<svg xmlns="http://www.w3.org/2000/svg" width="207.169" height="202.822" viewBox="0 0 207.169 202.822">
  <g id="Group_45" data-name="Group 45" transform="translate(0 0)">
    <path id="Path_10" data-name="Path 10" d="M544.828,524.322c1.085,21.3-5.131,39.785-16.442,56.31a100.294,100.294,0,0,1-34.571,31.929,109.329,109.329,0,0,1-36.8,12.739c-10.852,1.651-21.6,1.191-32.6-.46-20.193-3.031-37.19-12.231-52.677-24.616-8.457-6.759-14.225-16.018-19.993-25.147a81.353,81.353,0,0,1-12.373-33.545c-1.085-8.622-2.265-17.292-.873-26.362,1.581-10.309,3.586-20.264,7.608-29.853a101.268,101.268,0,0,1,16.855-26.562,99.936,99.936,0,0,1,34.312-25.536,104.4,104.4,0,0,1,28.391-8.5,95.936,95.936,0,0,1,14.461-1.2c19.368.023,37.461,4.388,54.4,14.119,18.141,10.427,31.894,24.817,40.976,43.524C542.221,494.988,545.972,509.626,544.828,524.322Z" transform="translate(-337.863 -423.51)" fill="#fdfdfd"/>
    <path id="Path_16" data-name="Path 16" d="M544.828,524.322c1.085,21.3-5.131,39.785-16.442,56.31a100.294,100.294,0,0,1-34.571,31.929,109.329,109.329,0,0,1-36.8,12.739c-10.852,1.651-21.6,1.191-32.6-.46-20.193-3.031-37.19-12.231-52.677-24.616-8.457-6.759-14.225-16.018-19.993-25.147a81.353,81.353,0,0,1-12.373-33.545c-1.085-8.622-2.265-17.292-.873-26.362,1.581-10.309,3.586-20.264,7.608-29.853a101.268,101.268,0,0,1,16.855-26.562,99.936,99.936,0,0,1,34.312-25.536,104.4,104.4,0,0,1,28.391-8.5,95.936,95.936,0,0,1,14.461-1.2c19.368.023,37.461,4.388,54.4,14.119,18.141,10.427,31.894,24.817,40.976,43.524C542.221,494.988,545.972,509.626,544.828,524.322Z" transform="translate(-337.863 -423.51)" fill="#e5e6e4"/>
    <path id="Path_26" data-name="Path 26" d="M540.343,522.9c1.427,17.74-3.208,33.486-11.123,48.537-3.078,5.862-7.4,10.84-11.583,15.723a96.342,96.342,0,0,1-55.661,32.755c-6.806,1.356-13.588,2.63-20.618,2.619-8.091-.012-15.947-1.616-23.708-3.267-15.062-3.2-28.5-10.191-40.551-19.768-10.2-8.115-17.987-18.212-24.3-29.511a91.091,91.091,0,0,1-11.771-48.407c.472-13.069,2.984-25.737,9.259-37.614,5.968-11.3,12.408-22.151,22.021-30.667,15.157-13.411,32.519-22.328,52.783-25.359a124.936,124.936,0,0,1,15.1-1.18c22.6-.672,42.757,6.5,61.063,19.238,7.631,5.308,13.965,12.055,19.816,19.344,10.451,13.033,16.006,28.131,19.143,44.2C541.086,514.016,540.343,518.805,540.343,522.9Z" transform="translate(-337.306 -422.935)" fill="#f8f5ef"/>
    <path id="Path_191" data-name="Path 191" d="M446.758,480.314c.024-2.1-.354-3.845-3.031-3.786-1.474.024-2.961-.024-4.435-.024-17.551,0-35.1-.024-52.641.024-3.02.012-5.992-.035-8.422-2.052-2.324-1.923-4.329-4.223-3.468-7.561.826-3.173,3.22-4.895,6.334-5.5a24,24,0,0,1,4.423-.153c24.1,0,48.218-.5,72.3.236,10.085.307,20.205.578,30.29,1.168,6.3.366,10.946,4.223,13.777,9.849a26.591,26.591,0,0,1,3.138,11.5c.012,8.964-2.217,17.445-8.681,24.239a2.723,2.723,0,0,1-.743-1.757c1-4.954,3.857-9.271,4.694-14.307.944-5.638.307-10.8-3.468-15.322-4.423-6.487-10.474-9.188-18.365-8.846-14.52.625-28.992-1.156-43.488-1.675-5.638-1.463-11.37-.6-17.067-.743-10.993-.271-22.01.4-32.991-.4-2.111-.153-3.916-.012-4.4,2.406-.448,2.182.849,3.562,2.595,4.612,2.312,1.4,4.883,1.227,7.407,1.238,16.289.035,32.59,0,48.879.035,2.324,0,4.812-.436,6.888.672C449.353,475.773,450.91,477.943,446.758,480.314Z" transform="translate(-331.276 -416.762)" fill="#e5e5e1"/>
    <path id="Path_192" data-name="Path 192" d="M487.925,500.019c.012.425.012.849.024,1.274-.708,1.522-1.734,3.043-.743,4.777,3.22,5.626,2.359,11.453.661,17.185-2.866,9.636-8.115,17.386-17.61,21.927-4.919,2.347-9.8,2.17-14.815,1.345a22.359,22.359,0,0,0-4.341-.708,1.96,1.96,0,0,1-2.595.024c-2.111-.035-4.223-.059-6.334-.094-.66-.79-1.864-.472-2.548-1.227h-3.786c-.684.755-1.887.436-2.548,1.238-.413.023-.837.035-1.25.047-.448.389-.873.79-1.3,1.2-.837.023-1.687.035-2.524.059-2.229,1.238-2.725,3.6-3.716,5.65-.613,1.262-1.085,2.984-3.126,1.675-.826-10.8,9.354-18.884,20.146-15.569,7.289,2.241,14.638,1.215,21.762.542,11.276-1.073,24.427-16.23,20.618-29.948a24.059,24.059,0,0,0-.425-3.562,7.372,7.372,0,0,1-.2-1.757C483.856,501.623,484.8,499.571,487.925,500.019Z" transform="translate(-322.88 -409.787)" fill="#d9deda"/>
    <path id="Path_193" data-name="Path 193" d="M446.234,480.063c1.439-4.27,1.274-4.718-2.017-5.025-1.474-.142-2.961-.047-4.447-.047-17.15,0-34.288-.035-51.438.024-3.043.012-5.921-.259-8.374-2.241a5.9,5.9,0,0,1-1.852-7.36c1.368-2.512,3.35-3.668,6.322-2.383,1.993.861,4.175.484,6.287.484,12.7.035,25.407,0,38.1.071,2.041.012,4.282-.684,5.992,1.18-2.359,2.453-5.449,1.864-8.351,1.934-14.131.33-28.273-.554-42.368.448-1.6,1.816-.342,2.607,1.215,3.149,1.828.625,3.774.378,5.662.378,16.9.035,33.816-.059,50.719.047,9.07.059,11.418,3.244,8.776,11.9-1.852,6.051-3.928,12.031-6.334,17.893-1.8,4.388-4.73,7.03-9.625,6.664-7.077-.531-14.331,1.628-21.231-1.415-.366-2.9,1.887-2.1,3.267-2.135,5.662-.106,11.323-.236,16.973.024,3.562.165,5.544-1.215,6.381-4.529Q443.055,489.6,446.234,480.063Z" transform="translate(-330.752 -416.511)" fill="#dbe7d2"/>
    <path id="Path_194" data-name="Path 194" d="M439.033,493.56c.259,3.9-1.8,5.2-5.45,5.119-5.284-.118-10.568-.059-15.864,0-1.84.023-3.857-.543-5.367,1.144-6.181,3.739-12.963,1.062-19.4,1.84-.908,0-1.828-.035-2.725-.047-.5.047-1.026.094-1.522.189-.2.118-.436.212-.637.33a3.135,3.135,0,0,0-.955,1.864,17.547,17.547,0,0,0,.083,3.857c.153.755.33,1.51.554,2.265.283.979.436,1.982.625,2.984.189.72.389,1.439.613,2.147a13.7,13.7,0,0,1,.472,2.17,15.423,15.423,0,0,0,.755,2.807c.26.7.46,1.4.672,2.111.248.708.5,1.4.719,2.123a15.7,15.7,0,0,1,.484,2.949,13.937,13.937,0,0,0,.637,2.843c.248.684.436,1.392.637,2.1.236.7.484,1.392.72,2.088a13.613,13.613,0,0,1,.5,2.158,19.543,19.543,0,0,0,.767,2.819,12.026,12.026,0,0,1,.484,2.147,15.674,15.674,0,0,0,.755,2.807c.26.7.46,1.4.672,2.111.248.7.5,1.4.719,2.111a14.54,14.54,0,0,1,.472,2.925,13.33,13.33,0,0,0,.6,2.784c.236.661.4,1.345.578,2.017.212.66.436,1.309.684,1.958a10.143,10.143,0,0,1,.425,1.321,23.642,23.642,0,0,0,.9,2.618,13.609,13.609,0,0,1,.448,1.333c.271.908.59,1.8.92,2.7a12.023,12.023,0,0,1,.484,2.123,18.851,18.851,0,0,0,.767,2.8,12.031,12.031,0,0,1,.484,2.147,15.412,15.412,0,0,0,.755,2.807c.26.708.472,1.427.684,2.147.271.743.531,1.474.743,2.229a6.391,6.391,0,0,1,.035,3.267,2.976,2.976,0,0,1-.991,1.321c-2.666-3.916-3.055-8.622-4.553-12.951-7.419-21.491-12.2-43.724-18.766-65.451-1.2-3.987.366-6.876,4.187-8.575,2.041-.908,4.14-.7,6.228-.7,12.467-.024,24.935-.142,37.39.059C434.126,497.488,437.086,496.9,439.033,493.56Z" transform="translate(-329.896 -410.935)" fill="#e0e3da"/>
    <path id="Path_195" data-name="Path 195" d="M402.35,572.63c.012-.436.012-.873.024-1.309,7.655,7.914,17.74,6.712,27.341,7.124,5.06.212,10.144.153,15.2-.023,2.807-.094,6.9.59,6.841-3.539-.047-3.727-3.963-3-6.57-3.043-8.658-.165-17.327.224-25.985-.189-5.909-.283-7.443-2.394-6.44-7.761a3.587,3.587,0,0,1,4.034-.838l.849.708c-.649.8-1.852,1.628-1.816,2.395.083,1.769,1.8,1.333,2.949,1.345q13.959.071,27.931.012a13.323,13.323,0,0,1,6.735,1.38c3.008,1.663,3.881,4.2,3.574,7.454-.33,3.527-3,4.341-5.685,4.989a19.7,19.7,0,0,1-4.423.165q-17.144.018-34.276,0C405.087,581.476,403.695,580.273,402.35,572.63Z" transform="translate(-326.287 -398.511)" fill="#dfe4d9"/>
    <path id="Path_196" data-name="Path 196" d="M422.615,547.392c1.958-.826,2.265-2.854,3.185-4.435.826-1.427,1.392-3.114,3.5-3.067-2.595,6.747-5.107,13.529-7.832,20.229-1.144,2.807-1.828,6.039-4.907,7.667a5.124,5.124,0,0,1-1.014-1.616,5.79,5.79,0,0,1-.177-1.911C417.519,558.538,417.248,551.744,422.615,547.392Z" transform="translate(-323.952 -402.619)" fill="#dcdfdc"/>
    <path id="Path_197" data-name="Path 197" d="M431.47,538.968a2.581,2.581,0,0,1,2.548-1.238A2.644,2.644,0,0,1,431.47,538.968Z" transform="translate(-321.059 -403.007)" fill="#dcdfdc"/>
    <path id="Path_198" data-name="Path 198" d="M436.84,537.73a2.573,2.573,0,0,1,2.548,1.227A2.6,2.6,0,0,1,436.84,537.73Z" transform="translate(-320.096 -403.007)" fill="#dcdfdc"/>
    <path id="Path_199" data-name="Path 199" d="M444.37,538.854c.861-.012,1.734-.012,2.595-.024C446.1,540.069,445.243,540.045,444.37,538.854Z" transform="translate(-318.744 -402.809)" fill="#dcdfdc"/>
    <path id="Path_200" data-name="Path 200" d="M416.43,562.32c.059.484.13.967.189,1.463-.413.035-.826.059-1.227.094l-.071-.141a.9.9,0,0,1-.4-.79c.035-.307.083-.46.165-.46A1.2,1.2,0,0,1,416.43,562.32Z" transform="translate(-324.031 -398.616)" fill="#d9e1d0"/>
    <path id="Path_201" data-name="Path 201" d="M429.31,540.023c.436-.4.861-.8,1.3-1.2C430.171,539.221,429.746,539.622,429.31,540.023Z" transform="translate(-321.447 -402.811)" fill="#dcdfdc"/>
    <path id="Path_266" data-name="Path 266" d="M428.892,560.95c-2.807,5.7-4.152,11.925-6.417,17.822-5.084,1.934-4.73-1.581-4.093-4.47,1.215-5.5,3.385-10.722,5.473-15.935a35.2,35.2,0,0,0,1.474-4.093,12.274,12.274,0,0,0,.142-1.6c-3.161-3.432-7.608-4.176-11.724-4.978-5.426-1.05-6.9,2.147-4.978,9.8,1.25,4.058,2.607,8.091,3.633,12.208.531,2.324,1.026,4.671,1.628,6.983.248,1.156.531,2.312.873,3.456a8.3,8.3,0,0,1,.377,2.736,6.637,6.637,0,0,0,1.368,3.609c1.9,2.253,4.506,1.852,7.006,1.887,9.212.13,18.436-.413,27.624.625,2.359.271,5.438-.437,4.989,3.656-1.356,1.675-3.291,1.8-5.19,1.816-11,.083-22,.153-33-.035-4.329-.071-7.219-2.206-8.3-6.452-6.475-25.348-14.225-50.353-20.547-75.736a8.886,8.886,0,0,1-.4-4.376,2.6,2.6,0,0,1,2.335-2.052c14.52-.094,29.051-.189,43.571.047,5.284.083,8.1-1.828,9.648-6.865,1.911-6.216,4.176-12.338,6.181-18.53,1.061-2.524,1.592-5.3,3.043-7.631,1.781-2.854,3.81-3.232,5.673.047a6.433,6.433,0,0,1,.153,3.031c-2.489,8.941-6.475,17.421-8.186,26.586.849,2.984,3.362,2.041,5.308,2.123,4.022.153,8.044-.035,12.066.094,2.548.083,5.166.142,6.629,2.831-.637,3.963-3.881,4.022-6.735,4.223-5.048.342-10.12.106-15.18.094-2.017,0-4.282-.826-5.815,1.333-3.892,8.858-6.251,18.223-9.884,28.131,9.295-2.654,17.386,1.663,26.1.861,6.452-.59,11.9-1.616,16.56-6.063a21.157,21.157,0,0,0,6.853-10.332c2.005-5.933-.189-11.43-5.992-13.789-2.607-1.062-5.532-1.557-4.176-5.485,4.14-2.489,9.719-2.111,12.892-6.5a11.934,11.934,0,0,0,1.934-2.772c.224-.543.484-1.062.731-1.592,4.8-15.157.448-22.175-15.77-25.407-25.147-.366-50.282-.142-75.418-.2a83.327,83.327,0,0,1-19.993-2.347c-1.109-.967-1.392-1.97-.177-3.067,14.968-.684,29.948.083,44.915-.012,2.737-.024,5.473-.142,8.2-.224,10.7.956,21.42.507,32.13.8,3.786.106,7.584.4,11.347.189,8.846-.507,15.428,2.984,19.934,10.545,4.553,11.076,3.421,21.29-4.836,30.3-1.522,1.663-2.772,3.2-1.687,5.556l-.071-.106c1.321.484,1.014,1.84,1.5,2.772,3.138,12.857-2.748,21.951-12.4,29.393a21.606,21.606,0,0,1-4.978,2.7c-4.706,1.946-21.467,1.911-26.445.047-6.192-2.312-14.85,1.286-17.209,7.337C430.649,556.28,428.715,558.226,428.892,560.95Z" transform="translate(-330.229 -416.178)" fill="#313431"/>
    <path id="Path_267" data-name="Path 267" d="M474.65,510.047c-1.309-1.356-3.939-2.194-.873-4.671,9.436-7.631,10.6-17.669,7.879-28.709-.2-.814-.33-1.651-.5-2.477,3.633,4.282,4.211,9.424,3.468,14.614a43.614,43.614,0,0,1-5.874,15.829A7.389,7.389,0,0,0,474.65,510.047Z" transform="translate(-313.721 -414.412)" fill="#c5d8d0"/>
    <path id="Path_268" data-name="Path 268" d="M475.738,507.272a3.682,3.682,0,0,1-1.5-2.772C475.762,504.866,475.868,506.01,475.738,507.272Z" transform="translate(-313.382 -408.971)" fill="#c5d8d0"/>
    <path id="Path_269" data-name="Path 269" d="M381.255,464.63c-.071.743-.153,1.486-.224,2.217,5.107,3.444,11.017,2.43,16.56,2.56,15.416.342,30.844.106,46.26.13,9.436.012,10.144.908,8.386,10.356-1.5,7.23-4.459,14.013-6.652,21.019-1.7,5.437-1.84,5.449-7.466,5.449-15.593-.012-31.2-.083-46.791-.13-.873-.342-.861-.672.012-.991q10.722-.106,21.455-.224c7.384.047,14.779-.012,22.163.189,3.48.094,5.579-1.239,6.688-4.494,2.453-7.171,5.143-14.272,7.431-21.491,1.651-5.2.236-7.006-5.272-7.042-18.377-.083-36.742-.059-55.118-.106a21.323,21.323,0,0,1-5.638-.448C379.38,470.622,378.967,468.64,381.255,464.63Z" transform="translate(-330.327 -416.128)" fill="#afd090"/>
    <path id="Path_270" data-name="Path 270" d="M390.391,499.066a2.165,2.165,0,0,0-.024.991c-.436.507-.873,1-1.309,1.51-1.71,1.993-.389,4.187.083,5.968,6.487,24.887,13.954,49.5,20.288,74.427.873,3.421,2.736,5.815,6.487,5.85,12.066.094,24.133.177,36.211-.059a3.96,3.96,0,0,0,2.807-1.309c.366-2.972-1.828-2.854-3.668-2.89-6.074-.153-12.161-.2-18.247-.283-4.824-.059-9.648-.189-14.473-.106-2.854.047-4.364-1.038-4.4-3.94a5.992,5.992,0,0,1-.354-2.984c.6-1.639,1.64-2.005,3.114-1.038-.873,4.01-.024,5.744,3.491,6.181a65.522,65.522,0,0,0,7.62.118c6.994.012,13.977,0,20.972.012a19.108,19.108,0,0,1,4.435.2,4.985,4.985,0,0,1,4.046,4.364c.33,2.536-1.25,3.8-3.338,4.777a11.039,11.039,0,0,1-4.954.826c-11.83-.024-23.649.248-35.444-1.191-2.619-.318-4.164-1.734-5.827-3.373-1.25-1.238-.814-3.35-2.43-4.329-.012-1.262-.035-2.536-.047-3.8-.389-.436-.8-.873-1.227-1.286-.012-.837-.024-1.687-.024-2.524-.767-.684-.436-1.887-1.25-2.548-.012-.849-.012-1.687-.024-2.536-.755-.684-.436-1.887-1.25-2.548-.012-.849-.024-1.687-.035-2.536-.755-.684-.425-1.887-1.238-2.548,0-.425-.012-.849-.012-1.262-.767-.672-.448-1.887-1.25-2.548,0-.425-.012-.837-.012-1.262-.448-.4-.79-.9-1.25-1.286-.012-.838-.012-1.687-.024-2.524-.767-.684-.448-1.887-1.25-2.548-.024-1.262-.035-2.536-.059-3.8-.389-.437-.79-.873-1.215-1.274-.012-.849-.012-1.687-.024-2.536-.755-.684-.436-1.887-1.25-2.548-.012-.849-.024-1.687-.035-2.536-.755-.684-.436-1.887-1.239-2.548-.012-.849-.024-1.687-.035-2.536-.389-.436-.8-.873-1.227-1.286-.012-.838-.012-1.687-.024-2.524-.767-.684-.448-1.887-1.25-2.548-.024-1.274-.035-2.536-.059-3.81-.389-.448-.79-.861-1.215-1.274-.012-.849-.012-1.687-.024-2.536-.755-.684-.436-1.887-1.25-2.548-.012-.849-.024-1.687-.035-2.536-.436-.4-.767-.908-1.239-1.286-.012-1.262-.024-2.536-.047-3.8-.4-.436-.8-.873-1.227-1.286v-6.322c.448-.4.837-.861,1.262-1.286h0c.425-.425.885-.814,1.286-1.262C388.574,498.984,389.482,499.031,390.391,499.066Z" transform="translate(-329.378 -409.966)" fill="#d9e1d0"/>
    <path id="Path_271" data-name="Path 271" d="M391.58,530.17a2.581,2.581,0,0,1,1.238,2.548A2.654,2.654,0,0,1,391.58,530.17Z" transform="translate(-328.22 -404.364)" fill="#dfe4d9"/>
    <path id="Path_272" data-name="Path 272" d="M389.43,522.63a2.642,2.642,0,0,1,1.25,2.548A2.621,2.621,0,0,1,389.43,522.63Z" transform="translate(-328.606 -405.717)" fill="#dfe4d9"/>
    <path id="Path_273" data-name="Path 273" d="M392.66,534.48a2.61,2.61,0,0,1,1.25,2.548A2.652,2.652,0,0,1,392.66,534.48Z" transform="translate(-328.026 -403.59)" fill="#dfe4d9"/>
    <path id="Path_274" data-name="Path 274" d="M387.27,514.01a2.611,2.611,0,0,1,1.25,2.548A2.631,2.631,0,0,1,387.27,514.01Z" transform="translate(-328.994 -407.264)" fill="#dfe4d9"/>
    <path id="Path_275" data-name="Path 275" d="M394.82,543.09a2.674,2.674,0,0,1,1.25,2.548A2.611,2.611,0,0,1,394.82,543.09Z" transform="translate(-327.638 -402.044)" fill="#dfe4d9"/>
    <path id="Path_276" data-name="Path 276" d="M396.97,549.56a2.611,2.611,0,0,1,1.25,2.548A2.652,2.652,0,0,1,396.97,549.56Z" transform="translate(-327.253 -400.883)" fill="#dfe4d9"/>
    <path id="Path_277" data-name="Path 277" d="M398.05,552.79a2.581,2.581,0,0,1,1.238,2.548A2.665,2.665,0,0,1,398.05,552.79Z" transform="translate(-327.059 -400.303)" fill="#dfe4d9"/>
    <path id="Path_278" data-name="Path 278" d="M399.13,557.1a2.611,2.611,0,0,1,1.25,2.548A2.642,2.642,0,0,1,399.13,557.1Z" transform="translate(-326.865 -399.53)" fill="#dfe4d9"/>
    <path id="Path_279" data-name="Path 279" d="M400.21,561.41a2.631,2.631,0,0,1,1.25,2.548A2.631,2.631,0,0,1,400.21,561.41Z" transform="translate(-326.671 -398.756)" fill="#dfe4d9"/>
    <path id="Path_280" data-name="Path 280" d="M386.2,510.78c.413.425.826.861,1.238,1.286C387.026,511.629,386.613,511.2,386.2,510.78Z" transform="translate(-329.186 -407.844)" fill="#dfe4d9"/>
    <path id="Path_281" data-name="Path 281" d="M386.382,500.02c-.425.425-.837.849-1.262,1.286C385.545,500.869,385.969,500.445,386.382,500.02Z" transform="translate(-329.38 -409.776)" fill="#dfe4d9"/>
    <path id="Path_282" data-name="Path 282" d="M387.476,498.95c-.425.425-.849.837-1.286,1.262C386.626,499.787,387.051,499.363,387.476,498.95Z" transform="translate(-329.188 -409.968)" fill="#dfe4d9"/>
    <path id="Path_283" data-name="Path 283" d="M385.12,506.47c.413.425.826.849,1.227,1.286C385.946,507.319,385.533,506.895,385.12,506.47Z" transform="translate(-329.38 -408.618)" fill="#dfe4d9"/>
    <path id="Path_284" data-name="Path 284" d="M401.29,565.71c.413.425.814.849,1.227,1.286C402.1,566.571,401.7,566.135,401.29,565.71Z" transform="translate(-326.477 -397.984)" fill="#dfe4d9"/>
    <path id="Path_285" data-name="Path 285" d="M395.9,547.4l1.25,1.286C396.737,548.249,396.325,547.825,395.9,547.4Z" transform="translate(-327.445 -401.271)" fill="#dfe4d9"/>
    <path id="Path_286" data-name="Path 286" d="M393.74,538.79c.4.425.814.849,1.215,1.274C394.554,539.639,394.141,539.215,393.74,538.79Z" transform="translate(-327.832 -402.816)" fill="#dfe4d9"/>
    <path id="Path_287" data-name="Path 287" d="M388.35,518.32c.4.425.814.849,1.215,1.274C389.164,519.169,388.763,518.745,388.35,518.32Z" transform="translate(-328.8 -406.491)" fill="#dfe4d9"/>
    <path id="Path_288" data-name="Path 288" d="M390.51,526.93c.413.425.814.849,1.227,1.286C391.324,527.791,390.923,527.366,390.51,526.93Z" transform="translate(-328.412 -404.945)" fill="#dfe4d9"/>
    <path id="Path_289" data-name="Path 289" d="M413.713,568.818a2.64,2.64,0,0,0-2.595,1.25c-.33.554-.661.554-1,0-.153-.755-.295-1.5-.448-2.253-.389-.92-.295-1.97-.849-2.843a19.178,19.178,0,0,1-1.781-7.631c1.1-1.014,3.2,1.168,3.786-1.026,1.356-4.989,4.659-9.507,3.774-15.039a13.465,13.465,0,0,0-1.144-1.18c-2.312-1.746-4.482-1.38-6.829.094-1.144.719-2.925,2.383-3.7-.59.955-5.1,4.6-5.52,8.669-4.8,2.288.4,4.282,1.734,6.346,2.8,3.043,2.737,2.253,6.039,1.168,9.247-1.522,4.541-3,9.094-4.612,13.588-1.262,3.515-.861,6.027,3.008,7.266,0,.33-.012.672-.035,1C416.225,568.736,414.963,568.783,413.713,568.818Z" transform="translate(-326.184 -403.581)" fill="#cce0c0"/>
    <path id="Path_290" data-name="Path 290" d="M416.08,567.188c-5.143-1.368-6-2.548-4.577-7.313,1.5-5.025,3.114-10.026,4.989-14.909a7.714,7.714,0,0,0-.413-7.195c2.56-.743,4.742-.755,5.2,2.63l.012-.047c-1.392,1-.307,2.807-1.286,3.951-1.923,5.968-3.822,11.948-5.768,17.9-.861,2.618-.543,4.2,2.76,3.468a1.648,1.648,0,0,1,.165,1.109A4.279,4.279,0,0,0,416.08,567.188Z" transform="translate(-324.754 -403.071)" fill="#adce8f"/>
    <path id="Path_318" data-name="Path 318" d="M472.9,530.356c-4.812,4.966-10.191,6.9-17.516,6.381-6.169-.436-12.255-.118-18.353-1.994-3.09-.955-6.487.613-9.8,2.182a269.616,269.616,0,0,1,10.049-31.151c2.111-2.04,4.753-1.191,7.207-1.345,6.9-.436,13.788-.177,20.724-.672,11.04-.8,16.3,8,13.328,15.428C476.97,523.149,474.788,526.64,472.9,530.356Z" transform="translate(-321.821 -409.114)" fill="#d9e2dc"/>
    <path id="Path_319" data-name="Path 319" d="M438.9,501.046a200.09,200.09,0,0,1,8.882-26.445,5.776,5.776,0,0,1,4.683-2.807c6.747-.2,13.529-.637,20.228.2,5.992.755,8.764,5.119,10.344,10.6,2.559,8.894-5.32,23.826-14.744,21.738-8.292.307-16.584.106-24.864.13C441.145,504.467,438.574,504.62,438.9,501.046Z" transform="translate(-319.73 -414.895)" fill="#dfe4df"/>
    <path id="Path_320" data-name="Path 320" d="M419.209,537.3c-5.579-3.208-11.158-3.432-17.327.755-1.887-9.224-5.78-17.162-7.148-25.878-.33-.873-.224-1.875-.743-2.7-.094-.425-.189-.849-.271-1.262-.012-3.255,2.43-3.727,4.753-3.774,10.12-.212,20.24-.189,30.36-.035,4.777.071,6.369,3.267,5.615,7.278-1.581,8.316-5.037,16.053-8.846,23.566C424.375,537.658,422.052,538.861,419.209,537.3Z" transform="translate(-327.836 -409.01)" fill="#dce0d1"/>
    <path id="Path_321" data-name="Path 321" d="M454.557,586.047c-.743,2.666-2.961,2.713-5.084,2.713q-16.79-.036-33.581-.154c-4.128-.024-6.617-1.958-7.69-6.063-2.536-9.79-5.013-19.6-7.985-29.263-4.458-14.5-8-29.24-11.984-43.866-.755-2.784-2.182-5.638.448-8.245,2.854,10.84,5.367,21.774,8.634,32.484,4.742,15.581,8.528,31.41,12.75,47.121.837,3.137,1.923,5.591,5.744,5.508C428.725,586.023,441.653,586.955,454.557,586.047Z" transform="translate(-329.013 -409.569)" fill="#94b96f"/>
    <path id="Path_322" data-name="Path 322" d="M452.055,479.545c-.177-9.106-.177-9.106-9.141-9.117-18.188-.012-36.376.012-54.564-.035-3.1-.012-6.546.378-7.49-3.892,6.475,1.085,13.022,1,19.533,1.1,23.838.342,47.688.472,71.537.731,2.288.024,4.647-.413,6.865.625-2.666,2.831-6.523,2.5-9.8,3.7a36.393,36.393,0,0,1-6.31.307,10.625,10.625,0,0,0-2.512.248,1.317,1.317,0,0,1-1.474-.26c-1.1-1.769-2.383-2.642-3.739-.33C453.695,474.8,453.813,477.575,452.055,479.545Z" transform="translate(-330.144 -415.793)" fill="#9cc781"/>
    <path id="Path_323" data-name="Path 323" d="M419.362,537.48c2.56.118,4.588-.637,5.449-3.314,2.265-7.018,5.874-13.541,7.832-20.689,1.651-6.039.555-7.584-5.838-7.608-8.469-.035-16.95.035-25.418.047-2.784,0-5.567-.059-7.513,2.465a4.964,4.964,0,0,1-.578-5.072h45.517c1.286,1.993-.059,3.739-.59,5.367-2.666,8.233-5.508,16.407-8.339,24.593C427.5,540.17,426.333,540.618,419.362,537.48Z" transform="translate(-327.989 -409.185)" fill="#afd293"/>
    <path id="Path_324" data-name="Path 324" d="M471.371,531.08c.142-4.341,3.385-7.525,4.164-11.76,1.474-8.009-3.491-14.968-11.488-13.765-9.46,1.427-18.884.224-28.285.944-.189-3.09,1.923-3.232,4.14-3.208,6.251.047,12.5.106,18.754.13,2.253,0,4.694.436,6.1-2.1a2.475,2.475,0,0,1,1.5-1.64,1.368,1.368,0,0,1,1.309.578c-.507,2.335.342,3.267,2.819,3.763,7.785,1.569,11.571,8.5,8.528,15.664C477.115,523.9,475.676,528.485,471.371,531.08Z" transform="translate(-320.291 -409.838)" fill="#83bfa5"/>
    <path id="Path_325" data-name="Path 325" d="M465.646,505.613l-1.262-.212c-.177-2.312,1.109-1.923,2.5-1.356,5.508,1.073,8.41-2.949,10.639-6.5,3.786-5.98,4.305-12.644.649-19.143-1.321-2.347-3.468-4.246-5.957-4.341-8.6-.342-17.268-1.663-25.8.837.165-.837.33-1.687.5-2.524a1.828,1.828,0,0,0,.944-.035c.4-.354.8-.731,1.18-1.109l7.785-.177c1.946-.991,4.117-.7,6.157-.932,14.673-1.758,23.071,7.962,19.45,22.434a27.186,27.186,0,0,1-1.4,4.14l.059-.083c-1.014.554-.7,1.864-1.451,2.571C476.415,504.433,471.367,505.742,465.646,505.613Z" transform="translate(-318.376 -415.18)" fill="#bcdac9"/>
    <path id="Path_326" data-name="Path 326" d="M414.957,539.2c1.463.649,2.713,1.64,2.064,3.35-2.194,5.85-3.4,12.066-6.346,17.539-2.571.212-1.781-2.878-3.633-3.126a76,76,0,0,1-3.645-12.951,3.084,3.084,0,0,1,.142-3.6c6.24-4.742,6.24-4.742,11.418-1.215-8.056,3.739-8.056,3.739-4.789,11.925C413.234,547.647,412.22,542.646,414.957,539.2Z" transform="translate(-326.19 -403.193)" fill="#d9e1d0"/>
    <path id="Path_327" data-name="Path 327" d="M479.444,496.906c-.319-3.373,1.321-6.452,1.239-9.86-.26-10.073-5.4-15.511-15.4-15.676-3.35-.059-6.688-.071-10.038-.094,3.137-1.875,6.7-2.147,10.191-2.666,11.854.307,18.837,8.658,16.855,20.276C481.814,491.681,481.885,494.76,479.444,496.906Z" transform="translate(-316.793 -415.414)" fill="#9bceb3"/>
    <path id="Path_328" data-name="Path 328" d="M403.749,541.06c-.047,1.2-.094,2.406-.142,3.6-1.227-3.031-3.326-6.169-.153-9.118,3.138-2.925,6.77-2.972,10.521-1.038a31.169,31.169,0,0,0,8.28,2.925c2.465.5,1.958,2.194.661,3.727a7.43,7.43,0,0,0-5.2-2.63,40.7,40.7,0,0,0-5.072-2.312C408.137,534.867,405.813,536.224,403.749,541.06Z" transform="translate(-326.388 -403.824)" fill="#8eb770"/>
    <path id="Path_329" data-name="Path 329" d="M468.418,499.251a2.947,2.947,0,0,0-2.5,1.356c-.519.425-1.038.849-1.545,1.274-1.7-1.864-3.94-1.191-5.98-1.215-5.921-.094-11.854-.012-17.775-.106-3.586-.059-3.161-1.852-1.522-4.01.967,2.3,2.843,2.949,5.143,2.8,7.325-.46,14.756,1.085,22-1.062C467.133,498.024,467.829,498.614,468.418,499.251Z" transform="translate(-319.91 -410.399)" fill="#d9e2dc"/>
    <path id="Path_330" data-name="Path 330" d="M418.636,543.841c-.165-1.51-.342-3.02,1.286-3.951A4.572,4.572,0,0,1,418.636,543.841Z" transform="translate(-323.382 -402.619)" fill="#8eb770"/>
    <path id="Path_331" data-name="Path 331" d="M474.571,495.091a2.248,2.248,0,0,1,1.451-2.571A2.441,2.441,0,0,1,474.571,495.091Z" transform="translate(-313.324 -411.122)" fill="#9bceb3"/>
    <path id="Path_332" data-name="Path 332" d="M407.947,560.35a2.369,2.369,0,0,1,.849,2.843A2.532,2.532,0,0,1,407.947,560.35Z" transform="translate(-325.302 -398.946)" fill="#adce8f"/>
    <path id="Path_333" data-name="Path 333" d="M409.035,564.673a7.119,7.119,0,0,1,1,0c-.059.92-.106,1.84-.165,2.772A2.6,2.6,0,0,1,409.035,564.673Z" transform="translate(-325.104 -398.173)" fill="#adce8f"/>
    <path id="Path_334" data-name="Path 334" d="M393.965,508.69a2.231,2.231,0,0,1,.743,2.7A2.537,2.537,0,0,1,393.965,508.69Z" transform="translate(-327.81 -408.219)" fill="#afd293"/>
    <path id="Path_354" data-name="Path 354" d="M448.252,508.831c3.763-.141,7.49.094,11.276-.908a16.468,16.468,0,0,1,9.931.672,5.178,5.178,0,0,1,3.751,5.827,24.876,24.876,0,0,1-7.808,15.357,6.639,6.639,0,0,1-6.475,1.8c-6.629-2.005-13.4-.755-20.087-1.132a34.147,34.147,0,0,1-4.411-.165c-1.84-.354-3.256-1.427-2.324-3.55a96.177,96.177,0,0,0,4.942-14.921c.613-2.406,2.512-3.126,4.895-3C444.03,508.926,446.141,508.831,448.252,508.831Z" transform="translate(-320.998 -408.443)" fill="#f7f5ef"/>
    <path id="Path_355" data-name="Path 355" d="M442.48,498.7a131.815,131.815,0,0,1,7.808-21.585c.9-1.887,2.064-3.008,4.329-2.961,5.06.106,10.144-.153,15.2.106,4.954.26,7.608,3.149,7.95,8.115a18.646,18.646,0,0,1-3.645,12.479c-2.312,3.185-5.2,5.119-9.625,4.836-6.735-.436-13.505-.177-20.252-.248C443.848,499.441,443.471,499.134,442.48,498.7Z" transform="translate(-319.083 -414.422)" fill="#f8f5ef"/>
    <path id="Path_356" data-name="Path 356" d="M413.728,507.572c4.223,0,8.445.012,12.668-.012,2.595-.012,4.187.719,3.078,3.763-2.371,6.523-5.461,12.762-7.384,19.462-.543,1.875-2.3,2.394-4.164,1.758a20.485,20.485,0,0,0-11.819-.236c-2.135.531-3.267-.236-3.833-2.111-.908-3.019-1.722-6.063-2.559-9.106-.554-2.029-.92-4.116-1.628-6.086-2.619-7.407-2.666-7.407,5.508-7.431C406.97,507.572,410.355,507.584,413.728,507.572Z" transform="translate(-327.333 -408.422)" fill="#f5f3ec"/>
    <path id="Path_357" data-name="Path 357" d="M448.829,471.01l-1.18,1.109C448.039,471.753,448.44,471.387,448.829,471.01Z" transform="translate(-318.155 -414.983)" fill="#9bceb3"/>
    <path id="Path_358" data-name="Path 358" d="M414.468,538.826a30.075,30.075,0,0,1-5.013,16.325,41.114,41.114,0,0,1-3.763-11.7c-.425-2.642.826-4.482,3.763-4.624,1.663-.083,3.338-.012,5.013,0Z" transform="translate(-325.701 -402.817)" fill="#f6f4ed"/>
  </g>
</svg>
