<svg xmlns="http://www.w3.org/2000/svg" width="207.343" height="203.297" viewBox="0 0 207.343 203.297">
  <g id="Group_46" data-name="Group 46" transform="translate(0 0)">
    <path id="Path_8" data-name="Path 8" d="M337.978,508.415a100.68,100.68,0,0,1,1.014,17.634c-.8,15.322-4.128,29.841-12.043,43.37a191.627,191.627,0,0,1-15.463,22.316c-3.444,4.341-7.891,7.62-12.3,10.887A110.547,110.547,0,0,1,251.343,623.2c-13.045,2.253-26.008,1.38-38.853-1.486a103.74,103.74,0,0,1-57.206-34.005c-11.559-13.364-18.66-28.933-22.269-46.225-1.321-6.31-1.1-12.6-1.25-18.919-.531-20.96,5.555-40.021,17.48-57.053,8.905-12.727,19.957-23.319,34.041-30.49,6.216-3.173,12.373-6.358,19.025-8.516a100.574,100.574,0,0,1,40.563-4.93c19.108,1.8,36.8,7.572,52.889,18.966,14.8,10.5,25.43,24.026,33.675,39.584A81.076,81.076,0,0,1,337.978,508.415Z" transform="translate(-131.733 -421.184)" fill="#fdfdfd"/>
    <path id="Path_15" data-name="Path 15" d="M338.992,526.049c-.8,15.322-4.128,29.842-12.043,43.37a191.629,191.629,0,0,1-15.463,22.316c-3.444,4.34-7.891,7.62-12.3,10.887A110.55,110.55,0,0,1,251.343,623.2c-13.045,2.253-26.008,1.38-38.853-1.486a103.741,103.741,0,0,1-57.206-34.005c-11.559-13.364-18.66-28.933-22.269-46.225-1.321-6.31-1.1-12.6-1.25-18.919-.531-20.96,5.556-40.021,17.48-57.053,8.905-12.727,19.957-23.319,34.041-30.49,6.216-3.173,12.373-6.358,19.025-8.516a100.576,100.576,0,0,1,40.563-4.93c19.108,1.8,36.8,7.573,52.889,18.967,14.8,10.5,25.43,24.026,33.675,39.584a81.073,81.073,0,0,1,8.54,28.285A100.682,100.682,0,0,1,338.992,526.049Z" transform="translate(-131.733 -421.184)" fill="#e5e6e4"/>
    <path id="Path_25" data-name="Path 25" d="M135.156,522.995c-1.132-17.669,3.951-33.356,11.771-48.383,2.548-4.907,6.145-9.118,9.589-13.317,13.494-16.478,30.549-28.037,51.2-33.38,22.21-5.756,44.279-4.73,65.7,4.258A101.843,101.843,0,0,1,310.785,458.7a69.209,69.209,0,0,1,8.245,11.182c7.62,13.21,14.307,26.928,15.44,42.4.531,7.289.79,14.7-.743,22.092-.885,4.282-1.156,8.658-2.406,12.975-5.1,17.634-14.072,33.156-27.353,45.493a97.933,97.933,0,0,1-48.277,25.017c-7.454,1.463-14.909,2.878-22.552,2.453-21.75-1.215-41.837-7.254-59.471-20.476A97.194,97.194,0,0,1,145.406,567C138.211,553.19,133.823,538.446,135.156,522.995Z" transform="translate(-131.161 -420.619)" fill="#f8f5ef"/>
    <path id="Path_190" data-name="Path 190" d="M225.992,573.784c-21.125-.979-39.513-11.276-50.448-33.9-5.626-11.63-7.195-23.626-3.68-35.774,9.259-31.965,35.574-45.529,62.773-43.5,2.949.224,5.52,1.25,6.593,4.14,1.5,4,4.694,5.933,8.316,7.242,6.487,2.347,10.993,6.664,14.579,12.5a35.739,35.739,0,0,0,10.061,10.439q13.216,9.253,12.078,25.607C284.248,550.276,259.761,573.229,225.992,573.784Z" transform="translate(-124.864 -414.143)" fill="#282120"/>
    <path id="Path_264" data-name="Path 264" d="M173.622,520.051c.472-24.864,10.5-40.481,28.485-50.589,6.593-3.7,14.237-6.57,22.375-6.063,3.869.248,3.727.33,3.421,4.034-.519,6.287.72,12.5,1.368,18.731.2,1.923.578,3.55-.366,5.461-2.088,4.246-1.392,7.985,2.383,11.076,2.7,2.217,4.364,5.013,6.369,7.738,3.031,4.117,5.8,9.106,12.125,9.012,4.447,4.411,9.365,2.866,14.484,1.5,2.359-.637,4.812,1.156,7.443.967,6.015-.436,7.124.932,4.73,7.077-5.662,14.531-15.994,24.687-30.066,30.915-12.349,5.461-24.982,5.308-37.532.33-6.275-2.489-12.467-4.966-17.622-9.743-2.029-1.876-4.117-4.954-8.056-4.128-1.18.248-1.616-1.746-2.218-2.831C176.276,535.066,172.985,526.243,173.622,520.051Z" transform="translate(-124.228 -413.617)" fill="#352727"/>
    <path id="Path_265" data-name="Path 265" d="M257.461,515.06c-5.39,1.392-10.663-1.191-16.136-2.571a6.625,6.625,0,0,1-3.9-3.079c-2.713-4.388-6.582-7.679-10.167-11.229-2.158-2.135-3.326-4.305-1.923-7.3a6.225,6.225,0,0,0-.307-5.5,14.108,14.108,0,0,1-.436-10.993,18.149,18.149,0,0,0,1.38-7.407c-.059-.8.118-1.757,1.18-1.958a1.877,1.877,0,0,1,2.052,1.121c2.253,4.506,6.452,6.558,10.733,8.386,7.042,3.008,10.427,9.625,14.992,15.027,3.279,3.88,6.511,7.726,10.757,10.568a16.731,16.731,0,0,1,5.909,7.254c2.324,5.084,1.521,6.841-4.164,7.62C264.349,515.413,261.129,515.06,257.461,515.06Z" transform="translate(-115.227 -413.321)" fill="#302525"/>
    <path id="Path_316" data-name="Path 316" d="M223.6,484.745c2.182,4.128.566,7.325-2.619,10a50.815,50.815,0,0,0-16.466,25.772c-1.427,5.037-4.8,6.782-10.262,6.381-3.975-.295-8.091-3.774-8.339-8.2-.767-13.376,1.1-26.338,10.167-36.883,5.048-5.874,12.2-9.118,19.78-10.686,5.886-1.215,8.257.661,9.035,6.641.307,2.312,1.345,5.072-1.3,6.971a6.208,6.208,0,0,1-2.111-4.482c-.4-6.015-3.94-5.6-7.962-3.951A36.77,36.77,0,0,0,193.6,495.738c-1.1,2.371-1.875,5.107.955,6.77,2.772,1.639,4.848-.318,6.511-2.312C207.133,492.919,214.269,487.245,223.6,484.745Z" transform="translate(-122.035 -412.281)" fill="#674949"/>
    <path id="Path_317" data-name="Path 317" d="M252.694,500.195a2.719,2.719,0,0,1-3.149.649c-8.764-3.267-14.213-9.472-16.159-18.624-.436-2.052.59-2.843,2.512-1.9a23.827,23.827,0,0,1,9.566,8.988C247.8,493.012,250.17,496.692,252.694,500.195Z" transform="translate(-113.503 -410.64)" fill="#281e1e"/>
    <path id="Path_353" data-name="Path 353" d="M222.853,484.384a51.782,51.782,0,0,1-8.009,5.06c-5.013,2.807-9.719,6-12.9,10.981a9.886,9.886,0,0,1-2.041,2.383c-2.253,1.828-4.753,3.008-7.525,1.132-2.7-1.84-2.972-4.518-1.816-7.325,4.6-11.134,12.408-19.049,23.861-23.012,5.485-1.887,7.171-.578,7.726,5.107.2,1.911.472,3.786.708,5.674Z" transform="translate(-121.289 -411.92)" fill="#e3cfcf"/>
  </g>
</svg>
