<svg xmlns="http://www.w3.org/2000/svg" width="207.45" height="203.324" viewBox="0 0 207.45 203.324">
  <g id="Group_44" data-name="Group 44" transform="translate(0 0)">
    <path id="Path_11" data-name="Path 11" d="M635.105,361.252c-5.036,22.871-17.445,41.235-34.89,55.909a97.986,97.986,0,0,1-51,22.222,135.707,135.707,0,0,1-15.746,1.12c-17.881.177-34.465-4.341-50.223-12.845a100.435,100.435,0,0,1-24.782-18.388c-14.449-14.933-23.708-32.566-26.916-53.3-4-25.926.283-50.223,14.992-71.962,10.769-15.935,24.817-28.426,42.781-36.47a102.9,102.9,0,0,1,27.081-8.41c8.6-1.274,17.3-3.008,26.362-1.085,6.534,1.392,13.187,2.312,19.769,3.857,13.741,3.208,25.3,10.4,36.541,18.389,11.1,7.879,18.742,18.636,25.348,30.325,3.244,5.709,6.4,11.347,8.375,17.681A101.154,101.154,0,0,1,635.105,361.252Z" transform="translate(-430.127 -237.183)" fill="#fdfdfd"/>
    <path id="Path_13" data-name="Path 13" d="M635.105,361.252c-5.036,22.871-17.445,41.235-34.89,55.909a97.986,97.986,0,0,1-51,22.222,135.707,135.707,0,0,1-15.746,1.12c-17.881.177-34.465-4.341-50.223-12.845a100.435,100.435,0,0,1-24.782-18.388c-14.449-14.933-23.708-32.566-26.916-53.3-4-25.926.283-50.223,14.992-71.962,10.769-15.935,24.817-28.426,42.781-36.47a102.9,102.9,0,0,1,27.081-8.41c8.6-1.274,17.3-3.008,26.362-1.085,6.534,1.392,13.187,2.312,19.769,3.857,13.741,3.208,25.3,10.4,36.541,18.389,11.1,7.879,18.742,18.636,25.348,30.325,3.244,5.709,6.4,11.347,8.375,17.681A101.154,101.154,0,0,1,635.105,361.252Z" transform="translate(-430.127 -237.183)" fill="#e5e6e4"/>
    <path id="Path_18" data-name="Path 18" d="M534.366,436.016c-24.109.979-44.255-6.476-61.818-19.592-20.028-14.944-33.4-34.878-37.615-60.084-2.784-16.69-2.135-33.215,3.527-49.256,7.7-21.856,21.55-38.747,41.283-51.061,11.689-7.289,24.38-11.406,37.685-14.083,14.142-2.854,28-1.179,41.849,2.312a99.69,99.69,0,0,1,43.311,23.814c8.976,8.221,15.888,18.412,21.314,29.582a100.794,100.794,0,0,1,8.6,27.553,78.239,78.239,0,0,1,.083,24.545c-1.18,7.879-2.265,15.794-5.556,23.225-6.653,15.015-15.157,28.792-27.943,39.313-10.616,8.728-22.245,15.9-35.833,19.438C553.226,434.33,543.318,437.373,534.366,436.016Z" transform="translate(-429.551 -236.589)" fill="#f8f5ef"/>
    <path id="Path_58" data-name="Path 58" d="M506.27,295.687a258.4,258.4,0,0,1,26.5-1.463c.8-.613,1.38-.153,1.935.389a12.343,12.343,0,0,1,.8,1.239,3.312,3.312,0,0,0,5.662-.059c1.038-.849,1.734-2.43,3.515-1.616,4.364,1.722,9.082.885,13.541,1.84,1.793.389,4.223.9,1.592,3.48-.413.33-.849.649-1.286.955a30.59,30.59,0,0,1-3.031,1.2,13.384,13.384,0,0,1-1.663.472c-1.51.307-2.949.837-4.447,1.18a44.459,44.459,0,0,1-7.3.436c-6.31.177-12.585.389-18.884.849-9.8.731-19.686-.507-29.441-2.088-2.371-.389-5.438-.649-4.14-4.577.554-.944,1.557-.92,2.453-1.121,2.229-1.911,5.1-1.486,7.679-2.147a4.952,4.952,0,0,1,2.913.72h-.118C503.687,296.819,504.972,296.395,506.27,295.687Z" transform="translate(-419.501 -226.997)" fill="#171717"/>
    <path id="Path_59" data-name="Path 59" d="M494.416,297.32c.224,1.3.637,2.512,2.194,2.63,3.739.295,7.278,1.757,11.158,1.474a36.108,36.108,0,0,1,11.205.873,20.214,20.214,0,0,0,9.353.047c6.676-1.628,13.328-.826,20-.767-1.368,3.373-4.435,2.453-7.018,2.807-12.739,1.757-25.477.637-38.192-.083-1.875.436-4.435-2.324-5.638,1.238-.26,2.595-.59,5.154-2.677,7.042-8.021,4.683-16.961,5.166-25.89,5.791a9.478,9.478,0,0,1-5.2-1.592c-2.017-1.616-.613-2.595.79-3.161q7.608-3.025,15.322-5.791c3.762-1.345,7.549-2.63,11.406-3.68,2.76-.755,3.574-1.923,1.864-4.435C492.069,298.228,492.729,297.438,494.416,297.32Z" transform="translate(-424.279 -226.388)" fill="#1c1b1a"/>
    <path id="Path_60" data-name="Path 60" d="M547.846,298.731l1.746-.071c-.083,1.687-.153,3.291,2.111,3.751,1.8.366,3.562.955,5.343,1.451,1.4.943,3.527-.165,4.647,1.581,1.144,1.592,2.489,2.583,4.505,1.415a13.821,13.821,0,0,1,1.392-.814l.779-.283a1.97,1.97,0,0,1,1.51.484c1.97,3.244,5.839,2.512,8.528,4.14,1.3.79,4.624.4,3.161,3.715-2.7,1.781-5.78,1.427-8.764,1.533-2.547,0-5.1-.047-7.643-.295-3.786-.826-7.643-1.368-11.276-2.8-4.742-.92-8.15-3-7.431-8.634A8.628,8.628,0,0,1,547.846,298.731Z" transform="translate(-409.262 -226.148)" fill="#1d1c1c"/>
    <path id="Path_61" data-name="Path 61" d="M490.277,374.366c-5.213-13.151-10.993-26.044-17.209-38.747a170.006,170.006,0,0,1-8.2-18.483c.425-.908.955-1.675,2.135-1.533,4.753,5.036,6.334,11.819,9.294,17.775,6.464,13.022,12.019,26.515,17.716,39.914a7.082,7.082,0,0,1,.613,3.079,2.577,2.577,0,0,1-1.946,1.97c-.4-.5-.8-.991-1.2-1.5C490.807,376.158,491.149,374.967,490.277,374.366Z" transform="translate(-423.89 -223.11)" fill="#868583"/>
    <path id="Path_62" data-name="Path 62" d="M502.233,297.857c-.92.118-1.828.236-2.748.342-4.73,1.451-7.643.79-7.124-5.249.212-2.406-.708-4.919-.5-7.443a7.651,7.651,0,0,1,.354-2.064,3.418,3.418,0,0,1,1.392-1.5,9.225,9.225,0,0,1,1.9-.79,5.969,5.969,0,0,1,2.984-.236c3.149,2.854,1.085,6.263,1.3,9.518,1.2-3.35-.9-7.124,1.062-10.368C502.6,285.909,501.714,291.936,502.233,297.857Z" transform="translate(-419.05 -229.485)" fill="#535353"/>
    <path id="Path_63" data-name="Path 63" d="M544.076,373.872c-2.689-.118-1.439,3.208-3.315,3.8a3.208,3.208,0,0,1-2.312-2.265c.719-11.689.33-23.543,4.506-34.8,4.1.212,2.7,3.538,3.279,5.744a84.807,84.807,0,0,1-1.085,15.64c-.507,3.527-.661,7.112.955,10.5C545.928,373.672,545.456,374.45,544.076,373.872Z" transform="translate(-410.682 -218.618)" fill="#5e5d5c"/>
    <path id="Path_64" data-name="Path 64" d="M569.6,332.808c-3.48,10.557-7.419,20.936-11.925,31.092-1.227.106-1.687-.7-2.04-1.663-.413-4.871,2.43-8.764,4.057-13,2.029-5.261,3.7-10.663,6.027-15.829a5.385,5.385,0,0,1,2.713-2.76C569.613,330.945,570.085,331.629,569.6,332.808Z" transform="translate(-407.604 -220.405)" fill="#696867"/>
    <path id="Path_65" data-name="Path 65" d="M527.705,300.074c-.519-.472-1.038-.944-1.545-1.415,1.746-8.858,3.515-17.716,5.249-26.574a4.618,4.618,0,0,1,1.121-2.854,4.764,4.764,0,0,1,2.371,3.409c-.106,8.021-2.312,15.7-3.963,23.449C530.571,297.8,530.276,299.968,527.705,300.074Z" transform="translate(-412.888 -231.431)" fill="#434241"/>
    <path id="Path_66" data-name="Path 66" d="M536.874,298.014l-2.748,2.819c-1.463-1.333-1.357-3.055-.967-4.706,1.8-7.584,2.383-15.44,5.166-22.8,1.5-1.592,2.453-.649,3.314.72-.625,6.924-2.536,13.588-4.01,20.346a10.786,10.786,0,0,0-.814,3.031l.2.295A2.2,2.2,0,0,1,536.874,298.014Z" transform="translate(-411.677 -230.845)" fill="#434241"/>
    <path id="Path_67" data-name="Path 67" d="M541.894,274.916c-.849-.425-1.687-.837-2.536-1.262a2.258,2.258,0,0,1-2.088.779,13.51,13.51,0,0,1-2.925-.967,14.979,14.979,0,0,1-1.238-.9c-1.191-.661-1.215-1.934-1.557-3.031,3.149-3.538,6.4-1.262,9.412.071C543.4,270.67,542.8,272.911,541.894,274.916Z" transform="translate(-411.921 -231.714)" fill="#232120"/>
    <path id="Path_68" data-name="Path 68" d="M559.42,308.56c-.873-1.569-3.149-.767-4.01-2.359,2.7.389,4.022-.955,5.166-3.326,2.8-5.827,5.237-11.854,8.776-17.315a3.574,3.574,0,0,1,1.274,2.571C568.1,295.6,566.238,303.441,559.42,308.56Z" transform="translate(-407.637 -228.499)" fill="#4d4947"/>
    <path id="Path_69" data-name="Path 69" d="M512.283,375.563a9.683,9.683,0,0,1-6.593-.885,3.434,3.434,0,0,1,2.147-2.512,74.429,74.429,0,0,1,23.555-.047c1.073.566,1.935,1.25,1.368,2.666-2.512,1.427-5.2,1.109-7.891.814A34.46,34.46,0,0,0,512.283,375.563Z" transform="translate(-416.562 -213.126)" fill="#79706c"/>
    <path id="Path_70" data-name="Path 70" d="M566.577,308.033c-.448,0-.9.012-1.345.012-1.887-5.1,2.335-8.339,3.833-12.385A16.8,16.8,0,0,1,573.477,289c1.463-.8,2.395-.236,3.008,1.168C573.713,296.427,570.045,302.183,566.577,308.033Z" transform="translate(-405.96 -227.949)" fill="#454645"/>
    <path id="Path_71" data-name="Path 71" d="M576.037,291.061c-.826-.389-1.64-.778-2.465-1.168-1.191,1.1-2.276.566-3.35-.212-.342-.8-.767-1.4-1.7-.613a1.236,1.236,0,0,1-1.215-.377c-.024-.932-.047-1.864-.059-2.784,2.241-4.14,5.036-1.38,7.407-.366C577.087,286.59,578.137,288.572,576.037,291.061Z" transform="translate(-405.512 -228.834)" fill="#3f3a38"/>
    <path id="Path_72" data-name="Path 72" d="M500.946,280.341v11.311c-.472.035-.932.059-1.4.094,0-2.265-.024-4.517.012-6.782.024-1.7-.531-2.878-2.406-3.031a12.956,12.956,0,0,0-1.38,1.014h-1.345a.824.824,0,0,0-1.238.13l-.035.023a1.031,1.031,0,0,1-1.262.4,2.193,2.193,0,0,1-.566-1.345c-.012-.5-.012-1,0-1.5a2.143,2.143,0,0,1,.6-1.321l.212-.283.342.083a14.172,14.172,0,0,1,7.525,0A.98.98,0,0,1,500.946,280.341Z" transform="translate(-419.143 -229.744)" fill="#343434"/>
    <path id="Path_73" data-name="Path 73" d="M491.987,282.43h1.191c.012,2.9.059,5.791.024,8.693-.083,7.513.625,6.546,6.393,6.664-2.383,2.041-5.2.885-7.844,1.085.012-2.406.012-4.812.024-7.219C491.2,288.563,490.8,285.473,491.987,282.43Z" transform="translate(-419.161 -229.061)" fill="#403834"/>
    <path id="Path_74" data-name="Path 74" d="M575.73,316.054c-1,4.128-3.09,7.785-5.119,11.453a1,1,0,0,1-1.439-.083,3.979,3.979,0,0,1-.6-2.394,7.369,7.369,0,0,1,.342-1.592c.354-.991.672-2.005,1-3.008a7.676,7.676,0,0,1,.672-1.4,24.836,24.836,0,0,0,1.817-3.409,3.358,3.358,0,0,1,1.062-1.168,2.2,2.2,0,0,1,1.545.177C575.259,315.087,575.495,315.571,575.73,316.054Z" transform="translate(-405.276 -223.325)" fill="#696967"/>
    <path id="Path_75" data-name="Path 75" d="M557.191,357.6l1.18,1.463c-1.2,4.046-2.312,8.127-4.73,11.689a2.542,2.542,0,0,1-1.911-1.934C552.556,364.606,552.331,359.865,557.191,357.6Z" transform="translate(-408.298 -215.568)" fill="#71716f"/>
    <path id="Path_76" data-name="Path 76" d="M488.46,369.07c.413-.472.826-.955,1.238-1.427,2.713-.554,5.39-.779,7.867.837a1.358,1.358,0,0,1,.035,1.828C494.334,371.453,490.949,373.528,488.46,369.07Z" transform="translate(-419.655 -213.839)" fill="#726b68"/>
    <path id="Path_77" data-name="Path 77" d="M540.469,370.794c.46.5.92.991,1.38,1.5-2.583,2.394-5.851,2.123-9,2.3a1.449,1.449,0,0,1-.377-1.121c.047-.4.106-.6.189-.6C534.76,370.3,537.567,370.37,540.469,370.794Z" transform="translate(-411.757 -213.24)" fill="#544f4d"/>
    <path id="Path_78" data-name="Path 78" d="M496.207,370.39c-.012-.448-.035-.885-.047-1.333.8-1.345,2.206-1.675,3.55-2.147a4.322,4.322,0,0,1,2.477.106,5.558,5.558,0,0,1,2.394,4.093,4.416,4.416,0,0,1-.248,1.569,3.588,3.588,0,0,1-1.073,1.156c-.259.071-.519.13-.778.2C501.161,371.486,499.569,369.422,496.207,370.39Z" transform="translate(-418.273 -213.92)" fill="#605d5b"/>
    <path id="Path_79" data-name="Path 79" d="M575.789,316.585c-.389-.5-.778-.979-1.168-1.474a3.716,3.716,0,0,0-2.8-.9c-1.5-.377-3.409-.165-3.586-2.465,3.137-.7,6.275-.071,9.4.047C577.027,313.389,576.4,314.981,575.789,316.585Z" transform="translate(-405.334 -223.856)" fill="#676867"/>
    <path id="Path_80" data-name="Path 80" d="M511.28,375.094a16.026,16.026,0,0,1,12.586.024A66.952,66.952,0,0,1,511.28,375.094Z" transform="translate(-415.559 -212.656)" fill="#575a58"/>
    <path id="Path_81" data-name="Path 81" d="M569.728,325.441c.46.024.92.059,1.38.083a26.985,26.985,0,0,1-3.338,8.221c-.366-.613-.743-1.227-1.109-1.84l-.707-.354c-.047-.26-.095-.519-.153-.778a7.39,7.39,0,0,1,.684-2.265,10.594,10.594,0,0,1,.755-1.392C567.864,326.267,568.454,325.335,569.728,325.441Z" transform="translate(-405.772 -221.342)" fill="#6b6b69"/>
    <path id="Path_82" data-name="Path 82" d="M492.062,282.682c-.071,3.078-.142,6.145-.2,9.224-1.309-3.421-1.1-6.971-.944-10.521.425-.531.767-.46,1.026.142A9.6,9.6,0,0,0,492.062,282.682Z" transform="translate(-419.235 -229.313)" fill="#535353"/>
    <path id="Path_83" data-name="Path 83" d="M466.617,316.006c-.507.5-1,1-1.51,1.5-.519-1.2-1.038-2.418-1.557-3.621,1.864-.071,3.715-.755,5.579.012C469.247,315.735,467.725,315.629,466.617,316.006Z" transform="translate(-424.127 -223.478)" fill="#656766"/>
    <path id="Path_84" data-name="Path 84" d="M507.807,373.341l-1.356,1.286c-1.8.059-3.621.177-4.93-1.427a.7.7,0,0,0,.661-.295l.424-.436a.792.792,0,0,0,.26-.684A4.022,4.022,0,0,1,507.807,373.341Z" transform="translate(-417.311 -213.074)" fill="#433f3e"/>
    <path id="Path_85" data-name="Path 85" d="M553.092,367.6l1.286,1.392c-1.852,2.265-4.211,1.073-6.417.956a1.156,1.156,0,0,1,.047-1.545A6.462,6.462,0,0,1,553.092,367.6Z" transform="translate(-409.023 -213.804)" fill="#53504e"/>
    <path id="Path_86" data-name="Path 86" d="M548.7,368.885c.012.378.024.767.047,1.144-1.946.354-3.869.554-5.52-.9.554-.436,1.1-.885,1.651-1.321a1.992,1.992,0,0,1,2.241-.8A2.428,2.428,0,0,1,548.7,368.885Z" transform="translate(-409.824 -213.89)" fill="#6e6b68"/>
    <path id="Path_87" data-name="Path 87" d="M499.835,279.257H492.31A6.372,6.372,0,0,1,499.835,279.257Z" transform="translate(-418.964 -229.852)" fill="#403834"/>
    <path id="Path_88" data-name="Path 88" d="M533.555,373.03c0,.436,0,.873-.012,1.3a11.586,11.586,0,0,1-4.883.307c-.047-.46-.083-.92-.13-1.392a2.673,2.673,0,0,1,1.486-1.144A3.47,3.47,0,0,1,533.555,373.03Z" transform="translate(-412.463 -212.987)" fill="#474442"/>
    <path id="Path_89" data-name="Path 89" d="M504.252,295.468c-1.356,1.368-2.63,1.8-3.692-.318Z" transform="translate(-417.483 -226.778)" fill="#403834"/>
    <path id="Path_90" data-name="Path 90" d="M536.256,294.081a2.564,2.564,0,0,1,.814-3.031A3.187,3.187,0,0,1,536.256,294.081Z" transform="translate(-411.107 -227.514)" fill="#5b5a5b"/>
    <path id="Path_91" data-name="Path 91" d="M486.41,365.42a2.638,2.638,0,0,1,1.2,2.477A2.561,2.561,0,0,1,486.41,365.42Z" transform="translate(-420.024 -214.164)" fill="#dcdcdb"/>
    <path id="Path_92" data-name="Path 92" d="M491.951,281.706a5.118,5.118,0,0,0-1.026-.142,1.01,1.01,0,0,1,.071-1.191c.307-.425.649-.472,1.014-.071C491.986,280.762,491.962,281.234,491.951,281.706Z" transform="translate(-419.242 -229.493)" fill="#403834"/>
    <path id="Path_93" data-name="Path 93" d="M491.972,280.433a7.332,7.332,0,0,1-1.014.071c-.2-.861.224-1.215,1.026-1.274C492,279.631,492,280.032,491.972,280.433Z" transform="translate(-419.216 -229.636)" fill="#535353"/>
    <path id="Path_204" data-name="Path 204" d="M539.563,386.02c-1.274-.047-2.548-.106-3.822-.153,7.561-8.021,7.36-18.318,8.339-28.273,1.262-12.81,3.739-25.5,3.774-38.417.035-13.918-1.521-15.18-15.522-13.435a106.407,106.407,0,0,1-32.2-.425c-1.982-.354-5.013.295-5.072-3.279,4.376.189,8.811.024,13.128.649,10.934,1.581,21.727-.484,32.578-.908a6.509,6.509,0,0,0,1.757-.613c2.347-.118,4.683-.224,7.03-.342,1.191-.9,2.843-.047,4.01-1.038a2.188,2.188,0,0,1,1.227-.142c2.477,3.256.708,7.065,1.392,10.557a7.525,7.525,0,0,1-.142,2.123c-1.085,3.031-.755,6.169-.755,9.295a47.367,47.367,0,0,1-.483,8.575c-1.262,3.609-.554,7.4-.932,11.087-.26,2.512-.861,4.883-2.748,6.735q-1.982,17.763-3.951,35.515C545.012,385.513,541.828,384.357,539.563,386.02Z" transform="translate(-418.471 -225.977)" fill="#b1b0b1"/>
    <path id="Path_205" data-name="Path 205" d="M533.857,271.821a3.872,3.872,0,0,1,1.109-.059c.755.672,1.887.424,2.654,1.061l2.477.106c-.5,8.1-2.878,15.864-4.364,23.779a14.622,14.622,0,0,0-.625,4.27c-1.687,2.961-4,2.465-6.463,1.191-.354-.472-.814-.873-1.191-1.333a8.174,8.174,0,0,1,.024-1.2c3.09-6.7,3.409-14.048,4.9-21.125C532.842,276.28,533.349,274.051,533.857,271.821Z" transform="translate(-412.658 -230.979)" fill="#5b5a5b"/>
    <path id="Path_206" data-name="Path 206" d="M545.8,311.353q-.053-5.768-.094-11.536c.5-.885,1.439-.873,2.253-1.1a9.143,9.143,0,0,1,.165,4.848C546.323,305.844,549.7,309.678,545.8,311.353Z" transform="translate(-409.379 -226.137)" fill="#8d8d8d"/>
    <path id="Path_207" data-name="Path 207" d="M545.27,299.779a3.669,3.669,0,0,1-4.01,1.038A4.383,4.383,0,0,1,545.27,299.779Z" transform="translate(-410.178 -225.969)" fill="#8d8d8d"/>
    <path id="Path_208" data-name="Path 208" d="M527.45,296.4l1.191,1.333A1.635,1.635,0,0,1,527.45,296.4Z" transform="translate(-412.656 -226.554)" fill="#434241"/>
    <path id="Path_209" data-name="Path 209" d="M495.831,301.86c4.116,2.489,8.835,2.194,13.3,2.536,11.382.861,22.741-.33,34.076-1.427,3.869-.377,4.93.083,5.921,3.68,2.123,7.655,1.687,15.416.766,23.189q-1.663,14.048-3.208,28.119-.938,8.758-2.194,17.457c-.731,5.142-3.279,8.433-8.009,10.238-.389.142-.79.271-1.2.378H509.7c-1.651-.519-3.291-1.038-4.942-1.557l-1.38-4.954c-2.642-3.763-2.288-8.386-3.633-12.526a22.923,22.923,0,0,1-.554-4.907c.212-2.843-.79-5.532-1.1-8.3a19.775,19.775,0,0,0-.637-4.317,13.141,13.141,0,0,1-.4-1.663,30.562,30.562,0,0,0-.979-4.1c-.377-1.392-.507-2.831-.767-4.234-.236-.873-.484-1.734-.708-2.618a21.7,21.7,0,0,1-.543-3.786c-1-6.971-1.946-13.942-3.185-20.877.035-3.031,1.2-6.063-.047-9.082C491.467,298.546,494.05,301.8,495.831,301.86Z" transform="translate(-419.23 -225.786)" fill="#dcdcda"/>
    <path id="Path_210" data-name="Path 210" d="M466.15,316.731c.224-1.439,1.852-1.2,2.512-2.111a95.621,95.621,0,0,0,25.253-5.119c2.784-.153,1.828,2.253,2.453,3.574.531,6.688,2.241,13.21,2.878,19.886.484,1.2.153,2.56.661,3.763a10.7,10.7,0,0,1,.307,2.737,7.33,7.33,0,0,0,.9,4.282,14.808,14.808,0,0,1,.448,3.527c.212,1.2.92,2.253,1.073,3.48.059,4.152,1.463,8.091,1.911,12.184a14.715,14.715,0,0,0,.448,2.961c-.436,4.046,3.267,7.95.425,12.078-1.038,1.191-2.571.967-3.881,1.368-2.607-.472-5.615,1.321-7.844-1.345C484.987,357.365,475.586,337.043,466.15,316.731Z" transform="translate(-423.66 -224.203)" fill="#dcdcdb"/>
    <path id="Path_211" data-name="Path 211" d="M491.009,314.3c-.319-1.238-.059-2.689-1.309-3.586,1.71-2.442.5-5.378,1.38-7.962,1.085,2.866,1.132,5.886,1.333,8.87C492.731,312.929,493.486,314.462,491.009,314.3Z" transform="translate(-419.433 -225.414)" fill="#5a5858"/>
    <path id="Path_212" data-name="Path 212" d="M547.659,378.008c-.861.071-1.722.141-2.583.224-2.147-.2-3.267-.767-3.031-3.527.625-7.136,2.241-14.19,1.9-21.42.307-7.053.861-14.1,1.179-21.16a114.458,114.458,0,0,0,2.029-16.655c.472-6.7,1-7.089,8.15-6.11,3.373.837,6.747,1.663,10.12,2.5,7.643,1.757,7.95,2.654,7.16,10.686-.554,5.614-3.232,10.392-4.753,15.6q-5.608,13.8-10.981,27.707C554.972,370.731,553.51,376.074,547.659,378.008Z" transform="translate(-410.042 -224.299)" fill="#dedddd"/>
    <path id="Path_213" data-name="Path 213" d="M571.334,287.872c1.25.448,2.5.885,3.751,1.333-2.194,4.423-4.423,8.846-6.582,13.281-.9,1.852-2.206,3.562-2.194,5.756l-.012-.012a3.67,3.67,0,0,0-1.191,1.356c-3.1,2.925-4.458,2.618-6.287-1.38a109.279,109.279,0,0,0,10-20.217,8.955,8.955,0,0,1,1.238-.177A.811.811,0,0,1,571.334,287.872Z" transform="translate(-407.025 -228.145)" fill="#5a5a5a"/>
    <path id="Path_214" data-name="Path 214" d="M563.085,338.2a9.974,9.974,0,0,1,1.463-5.331c2.418-4.494,2.477-9.578,3.444-14.414.554-2.76-.507-5.426-4.1-5.732a2.721,2.721,0,0,1-2.017-1.3l7.5.318c1.51,1.368,3.5.613,5.2,1.156a1.844,1.844,0,0,1,.141,2.56l.012-.059c-1.156,1.557-1.38,3.574-2.559,5.119l.023-.035c-1.415.861-.212,2.748-1.451,3.68l-.024.047c-.991,2.052-1.416,4.317-2.489,6.346l-.012.024c-.719.743-.578,1.84-1.1,2.666l.035-.012c-1.132.613-.625,1.981-1.309,2.807C564.819,336.624,565.255,339.054,563.085,338.2Z" transform="translate(-406.478 -223.856)" fill="#b1b3b4"/>
    <path id="Path_215" data-name="Path 215" d="M554.947,310.475a10.357,10.357,0,0,1-2.477.118c-2.441-.46-3.315.543-3.609,2.925-.849,6.629-1.934,13.234-2.937,19.851-3.067-.531-1.462-2.571-1.333-4.128.094-2.819.177-5.626.259-8.445,1.463-2.866-.4-6.145,1.132-9a5.039,5.039,0,0,0,.106-1.191c2.076-2.206.083-5.626,2.324-7.785C546.915,308.517,551.409,309.095,554.947,310.475Z" transform="translate(-409.675 -225.401)" fill="#585857"/>
    <path id="Path_216" data-name="Path 216" d="M564.14,306.438a1.728,1.728,0,0,1,1.191-1.368C564.942,305.53,564.541,305.99,564.14,306.438Z" transform="translate(-406.07 -224.997)" fill="#454645"/>
    <path id="Path_217" data-name="Path 217" d="M495.09,282.444c.46-.342.92-.672,1.38-1.014C496.01,281.772,495.55,282.114,495.09,282.444Z" transform="translate(-418.465 -229.241)" fill="#403834"/>
    <path id="Path_218" data-name="Path 218" d="M492.9,282.5c.354-.649.755-.79,1.238-.13A11.023,11.023,0,0,1,492.9,282.5Z" transform="translate(-418.858 -229.15)" fill="#403834"/>
    <path id="Path_219" data-name="Path 219" d="M544.853,325.22c.295,1.427-.141,3.078,1.333,4.128a105.621,105.621,0,0,1-2.324,21.007c-.484-2.3.743-4.907-1.262-6.936C543.945,337.428,542.789,331.118,544.853,325.22Z" transform="translate(-409.937 -221.38)" fill="#616060"/>
    <path id="Path_220" data-name="Path 220" d="M565.788,334.518c.849-.849,1.687-1.7,2.536-2.548.4.271.566.554.472.873s-.2.5-.319.5c-2.324,8.28-6.027,16.041-9.035,24.074-.59,1.569-1.451,3.043-1.368,4.789-2.666,3.48-3.267,7.82-4.824,11.76-1.427,1.71-3.456.814-5.178,1.2-.425-.425-.838-.861-1.262-1.286,6.558-5.968,8.1-14.52,11.465-22.139C560.8,346.006,562.191,339.778,565.788,334.518Z" transform="translate(-409.181 -220.168)" fill="#b2b1b0"/>
    <path id="Path_221" data-name="Path 221" d="M565.192,333.72c-.047-.46-.095-.92-.142-1.368.142-1.038.354-2.041,1.521-2.442a10.073,10.073,0,0,0,.212,1.191Z" transform="translate(-405.907 -220.538)" fill="#a2a09f"/>
    <path id="Path_222" data-name="Path 222" d="M536.474,272.815a2.617,2.617,0,0,1-2.654-1.062A2.692,2.692,0,0,1,536.474,272.815Z" transform="translate(-411.513 -230.981)" fill="#434241"/>
    <path id="Path_223" data-name="Path 223" d="M569.626,287.905c-.425-.012-.861-.035-1.286-.047C568.788,287.15,569.225,287.186,569.626,287.905Z" transform="translate(-405.316 -228.179)" fill="#4d4947"/>
    <path id="Path_224" data-name="Path 224" d="M567.251,328.606a7.775,7.775,0,0,1,2.489-6.346c-.094,1.25-.177,2.489-.271,3.739C568.725,326.872,567.994,327.745,567.251,328.606Z" transform="translate(-405.513 -221.912)" fill="#a2a09f"/>
    <path id="Path_225" data-name="Path 225" d="M570.6,319.919a5.709,5.709,0,0,1,2.548-5.119C573.042,316.864,572.617,318.787,570.6,319.919Z" transform="translate(-404.911 -223.251)" fill="#a2a09f"/>
    <path id="Path_226" data-name="Path 226" d="M569.39,322.78c.071-1.392-.165-2.9,1.451-3.68C570.723,320.48,570.77,321.907,569.39,322.78Z" transform="translate(-405.128 -222.479)" fill="#a2a09f"/>
    <path id="Path_227" data-name="Path 227" d="M572.782,315.24c-.047-.849-.094-1.71-.142-2.56,1.274.259,1.132,1.3,1.191,2.206A2.368,2.368,0,0,1,572.782,315.24Z" transform="translate(-404.544 -223.631)" fill="#a2a09f"/>
    <path id="Path_228" data-name="Path 228" d="M499.662,369.581c.118-4.305-1.71-8.41-1.345-12.75.5-.684,1-.708,1.545-.047a34.007,34.007,0,0,1,2.217,12.786C501.266,369.569,500.464,369.569,499.662,369.581Z" transform="translate(-417.895 -215.801)" fill="#80807f"/>
    <path id="Path_229" data-name="Path 229" d="M502.5,372.322l-.425.436-.035-.448Z" transform="translate(-417.218 -212.927)" fill="#3a3736"/>
    <path id="Path_230" data-name="Path 230" d="M566.316,330.326a2.453,2.453,0,0,1,1.1-2.666A2.767,2.767,0,0,1,566.316,330.326Z" transform="translate(-405.687 -220.942)" fill="#a2a09f"/>
    <path id="Path_305" data-name="Path 305" d="M545.9,310.43c-.248,3.02.873,6.2-1.132,9C544.9,316.4,543.71,313.2,545.9,310.43Z" transform="translate(-409.584 -224.035)" fill="#8d8d8d"/>
    <path id="Path_306" data-name="Path 306" d="M498.845,358.821a28.26,28.26,0,0,1-2.524-12.361,10.676,10.676,0,0,0-.92-3.1c-.094-1.168-.2-2.347-.3-3.515-.79-1.262-.094-2.854-.955-4.1-.024-.885-.047-1.757-.071-2.642a1.167,1.167,0,0,1,1.073-.566,1.459,1.459,0,0,1,1.085.637c.153,1.51.307,3.019.472,4.518.684,1.368-.071,3.1,1.085,4.352a1.14,1.14,0,0,1,.094,1.014c.885,1.2.083,2.831,1.014,4.022.389,3.019,1.675,5.933,1.215,9.059C499.376,356.887,500.048,358.3,498.845,358.821Z" transform="translate(-418.647 -220.068)" fill="#828181"/>
    <path id="Path_307" data-name="Path 307" d="M490.81,312.947c1.121-.554,1-1.746,1.4-2.677,2.229,7.112,2.642,14.52,3.538,21.844-.5.5-.6,1.368-1.474,1.486C492.249,326.866,491.565,319.907,490.81,312.947Z" transform="translate(-419.233 -224.064)" fill="#828180"/>
    <path id="Path_308" data-name="Path 308" d="M493.74,330.276c.5-.5.979-.991,1.474-1.486.118,1.168.224,2.347.342,3.515a1.021,1.021,0,0,1-.448,1.451c-.33,0-.649.012-.979.012C494,332.612,493.87,331.444,493.74,330.276Z" transform="translate(-418.708 -220.739)" fill="#5f5f5e"/>
    <path id="Path_309" data-name="Path 309" d="M498.12,355.226c.342-.932.33-2.029,1.274-2.666.165,1.628.33,3.267.484,4.895-.507.012-1.026.035-1.533.047C498.273,356.735,498.191,355.981,498.12,355.226Z" transform="translate(-417.921 -216.472)" fill="#676564"/>
    <path id="Path_310" data-name="Path 310" d="M498.338,345.482c-1.392-1.073-1.109-2.571-1.026-4.022A4.585,4.585,0,0,1,498.338,345.482Z" transform="translate(-418.081 -218.465)" fill="#868585"/>
    <path id="Path_311" data-name="Path 311" d="M497.405,341.262c-1.628-1.132-1.191-2.784-1.085-4.352A5.9,5.9,0,0,1,497.405,341.262Z" transform="translate(-418.268 -219.282)" fill="#868585"/>
    <path id="Path_312" data-name="Path 312" d="M494.9,333.221c.153-.484.295-.967.448-1.451a1.541,1.541,0,0,1,.731,1.533C495.69,333.292,495.289,333.268,494.9,333.221Z" transform="translate(-418.499 -220.204)" fill="#868585"/>
    <path id="Path_313" data-name="Path 313" d="M494.143,335.25c1.38,1.121,1.05,2.63.955,4.093A5.228,5.228,0,0,1,494.143,335.25Z" transform="translate(-418.651 -219.58)" fill="#868585"/>
    <path id="Path_314" data-name="Path 314" d="M495.2,341.71c1.121.79,1.05,1.934.92,3.1A4.58,4.58,0,0,1,495.2,341.71Z" transform="translate(-418.447 -218.42)" fill="#868585"/>
  </g>
</svg>
