<svg xmlns="http://www.w3.org/2000/svg" width="207.472" height="203.129" viewBox="0 0 207.472 203.129">
  <g id="Group_42" data-name="Group 42" transform="translate(0 0)">
    <path id="Path_7" data-name="Path 7" d="M170.8,421.789c-7.738,3.432-15.782,6.251-24.192,7.053-8.492.814-16.879,3.055-25.713,1.014-5.225-1.2-10.9-1.061-16.159-2.453-18.884-5.013-35.456-13.836-49.6-27.777C38.931,383.62,30.4,364.205,26.429,342.384c-.79-4.305-.118-8.87-.118-13.3-.885-24.51,7.325-46.131,22.6-64.779a92.636,92.636,0,0,1,36.152-27.034c7.808-3.279,15.569-6.558,23.956-7.9,11.04-1.769,22.01-2.5,33.3-.967,13.175,1.781,25.678,5.225,37.178,11.642,20.689,11.547,36.671,27.565,45.3,50.094,2.111,5.5,4.694,10.91,6.039,16.6,3.94,16.69,3.727,33.215-1.934,49.716-3.857,11.288-8.622,21.962-15.452,31.717C202.623,403.636,187.868,414.193,170.8,421.789Z" transform="translate(-26.044 -227.562)" fill="#fdfdfd"/>
    <path id="Path_12" data-name="Path 12" d="M228.9,356.444c-3.857,11.288-8.622,21.962-15.452,31.717-10.828,15.475-25.583,26.032-42.651,33.628-7.738,3.432-15.782,6.251-24.192,7.053-8.492.814-16.879,3.055-25.713,1.014-5.225-1.2-10.9-1.062-16.159-2.453-18.884-5.013-35.456-13.836-49.6-27.777C38.931,383.62,30.4,364.205,26.429,342.384c-.79-4.305-.118-8.87-.118-13.3-.885-24.51,7.325-46.13,22.6-64.778a92.636,92.636,0,0,1,36.152-27.034c7.808-3.279,15.569-6.558,23.956-7.9,11.04-1.769,22.01-2.5,33.3-.967,13.175,1.781,25.678,5.225,37.178,11.642,20.689,11.547,36.671,27.565,45.3,50.094,2.111,5.5,4.694,10.91,6.039,16.6C234.777,323.418,234.564,339.943,228.9,356.444Z" transform="translate(-26.044 -227.562)" fill="#e5e6e4"/>
    <path id="Path_17" data-name="Path 17" d="M29.389,328.28a86.488,86.488,0,0,1,18.046-56.77c10.969-14.331,24.487-26.055,41.719-33.1a105.533,105.533,0,0,1,49.563-7.5,93.906,93.906,0,0,1,42.757,14.331c12.562,7.985,23.944,17.433,31.682,30.384,6.181,10.356,11.04,21.349,13.281,33.357a106.5,106.5,0,0,1,.366,36.187c-2.17,14.083-7.655,26.657-15.393,38.393-7.549,11.453-17.858,20.111-29.264,27.435-10.2,6.546-21.408,10.639-33.309,13.222a93.259,93.259,0,0,1-35.1.778c-13.222-2.135-25.89-6.145-37.225-13.269-24.321-15.263-40.492-36.423-45.965-65.179C29.377,340.429,29.613,334.39,29.389,328.28Z" transform="translate(-25.454 -227.034)" fill="#f8f5ef"/>
    <path id="Path_27" data-name="Path 27" d="M60.67,352.539a2.963,2.963,0,0,1-2.748,1,1.689,1.689,0,0,0-2.442.283c-1.816-.413-1.321-1.911-1.309-3.055q.035-31.758.165-63.528c.024-4.423.153-4.423,6.228-5.791A2.433,2.433,0,0,1,61,283.585a18.058,18.058,0,0,0-2.383,8.422c0,17.527.153,35.055-.047,52.594a9.819,9.819,0,0,0,1.026,4.907A5.49,5.49,0,0,1,60.67,352.539Z" transform="translate(-21.008 -217.889)" fill="#434b45"/>
    <path id="Path_28" data-name="Path 28" d="M173.89,283.868c1.911-.566,3.9-1.132,3.857,1.982-.2,12.114.932,24.227-.024,36.329,1.38,4.388-.224,9,.979,13.4a73.468,73.468,0,0,1,.059,12.786c-.92,1.934-.189,4.022-.578,5.992-.377,1.934-1.25,2.524-2.7.719-1.262-2.571-1.085-5.343-1.085-8.08,0-16.454-.094-32.908.024-49.351A49.08,49.08,0,0,0,173.89,283.868Z" transform="translate(0.496 -217.535)" fill="#3b3c39"/>
    <path id="Path_29" data-name="Path 29" d="M94.569,340.032q-9.625.018-19.238.024c-1.25-1.569-4.753,1.356-4.871-2.453,2.241-2.088,5.06-1.816,7.761-1.852,6.31-.071,12.621-.118,18.919.035,2.288.059,4.683.035,6.322,2.123C101.233,341.648,97.27,338.2,94.569,340.032Z" transform="translate(-18.071 -208.154)" fill="#44504c"/>
    <path id="Path_30" data-name="Path 30" d="M61.664,281.106a114.555,114.555,0,0,1,32.507-2.949c2.512.094,5.06.012,7.443,1.026-2.017,2.477-4.883,1.769-7.5,1.993-5.013.189-10.061-.566-15.027.566-5.355.519-10.557,2.158-15.971,2.324a2.851,2.851,0,0,1-1.7-1.026A2.334,2.334,0,0,1,61.664,281.106Z" transform="translate(-19.713 -218.501)" fill="#444540"/>
    <path id="Path_31" data-name="Path 31" d="M180.793,346.644c-1.18,1.144-2.7,1.038-4.152,1.038q-10.4.035-20.818.024c-1.675,0-3.385.047-4.812-1.109,1.144-1.675,2.972-2.135,4.753-2.713a59.46,59.46,0,0,1,16.749-.047C175.213,344.981,178.551,344.226,180.793,346.644Z" transform="translate(-3.612 -206.793)" fill="#44524d"/>
    <path id="Path_32" data-name="Path 32" d="M122.144,282.58c8.622.826,17.209,1.864,25.725,3.456a3.271,3.271,0,0,1-2.076,2.371c-8.15-.177-16.372.13-23.932-3.8A2.123,2.123,0,0,1,122.144,282.58Z" transform="translate(-8.869 -217.686)" fill="#433c37"/>
    <path id="Path_33" data-name="Path 33" d="M137.778,345.513q-8.9-1.256-17.787-2.524c-.094-1.3.778-1.816,1.793-2.241a26.98,26.98,0,0,1,17.209,2.418C139.594,344.463,138.851,345.076,137.778,345.513Z" transform="translate(-9.181 -207.325)" fill="#36403d"/>
    <path id="Path_34" data-name="Path 34" d="M88.734,279.246c2.666-.083,5.331-.153,8-.236,2.418.141,4.848.271,7.266.413,1.4.755,3.02.354,4.47.873l4.376.389c.012,2.052-1.64,2.182-3.031,2.618a69.2,69.2,0,0,1-20.641-2.158A1.336,1.336,0,0,1,88.734,279.246Z" transform="translate(-14.83 -218.327)" fill="#3e3935"/>
    <path id="Path_35" data-name="Path 35" d="M142.63,286.723c.5-.4,1-.8,1.5-1.2q11.925.053,23.861.118a1.5,1.5,0,0,1-.6,2.064C159.061,289.106,150.733,290.745,142.63,286.723Z" transform="translate(-5.116 -217.159)" fill="#281e1b"/>
    <path id="Path_36" data-name="Path 36" d="M135.07,345.164c.519-.413,1.05-.826,1.569-1.238a11.783,11.783,0,0,1,12.29.094c.767,1.345-.059,1.958-1.132,2.453C143.444,347.134,139.352,345.235,135.07,345.164Z" transform="translate(-6.473 -206.976)" fill="#333c38"/>
    <path id="Path_37" data-name="Path 37" d="M106.78,281.69a3.607,3.607,0,0,0,2.784-1.25l10.45,1.345a2.478,2.478,0,0,1,.236,1.958,2.756,2.756,0,0,1-1.557,1.238C114.565,284.4,109.835,286.078,106.78,281.69Z" transform="translate(-11.551 -218.071)" fill="#463c38"/>
    <path id="Path_38" data-name="Path 38" d="M71.184,340.069a30.316,30.316,0,0,1-10.356,2.206c-.908-.507-1.781-1.026-1.286-2.312a13.66,13.66,0,0,1,11.583-1.746A1.364,1.364,0,0,1,71.184,340.069Z" transform="translate(-20.057 -207.802)" fill="#39423e"/>
    <path id="Path_39" data-name="Path 39" d="M90.9,339.741c2.748-2.241,6.074-.448,9.035-1.3,2.194-1.592,4.293-1.557,6.275.366.436,1.262-.366,1.769-1.345,2.158Q97.877,340.348,90.9,339.741Z" transform="translate(-14.402 -207.863)" fill="#2d3533"/>
    <path id="Path_40" data-name="Path 40" d="M174.354,283.8c1.522,1.144,2.713,2.383,2.536,4.576-.224,2.666-.13,5.367-.177,8.044-4.529-1.934-1.557-7.714-5.2-10.1a1.425,1.425,0,0,1,.2-1.734A2.823,2.823,0,0,1,174.354,283.8Z" transform="translate(0.032 -217.472)" fill="#393f3a"/>
    <path id="Path_41" data-name="Path 41" d="M177.466,347.5c-2.571-.9-5.614.873-7.926-1.4,2.359-2.052,4.789-2.029,7.278-.248,1.451-.448,1.545-1.64,1.616-2.878.094-1.557-.342-3.255,1.1-4.494.13,2.312.307,4.612.377,6.924C179.955,347.02,178.952,347.586,177.466,347.5Z" transform="translate(-0.285 -207.652)" fill="#2a302b"/>
    <path id="Path_42" data-name="Path 42" d="M178.139,329.689c-2.206-4.329-.554-8.941-.979-13.4C178.375,320.689,178.116,325.2,178.139,329.689Z" transform="translate(1.047 -211.635)" fill="#393f3a"/>
    <path id="Path_43" data-name="Path 43" d="M145.86,346.251c.484-.4.955-.8,1.439-1.215,2.937-2.076,5.827-2.135,8.669.2-1,1.451-2.713.814-4.022,1.333Z" transform="translate(-4.536 -206.754)" fill="#282e2a"/>
    <path id="Path_44" data-name="Path 44" d="M113.258,342.1c-1.864.13-3.786.543-5.308-1.038a4.853,4.853,0,0,1,2.961-2.288c1.934-.4,3.833-.637,5.084,1.427C115.947,342.062,114.036,341.272,113.258,342.1Z" transform="translate(-11.341 -207.648)" fill="#3b4544"/>
    <path id="Path_45" data-name="Path 45" d="M173,284.48c.012.436.012.861.024,1.3-2.666,2.63-5.52,3.833-8.893,1.2v-1.156l.177-.389c1.1-.295,2.3.035,3.35-.554C169.438,284.739,171.219,284.61,173,284.48Z" transform="translate(-1.256 -217.345)" fill="#2d2d29"/>
    <path id="Path_46" data-name="Path 46" d="M122.64,341.746c-.543.448-1.085.9-1.64,1.345-2.253-.059-4.612.649-6.641-.944a7.536,7.536,0,0,1,4.246-2.359C120.328,339.647,122,339.623,122.64,341.746Z" transform="translate(-10.19 -207.427)" fill="#3b4544"/>
    <path id="Path_47" data-name="Path 47" d="M111.6,339.787c-.625,1.026-1.71,1.085-2.713,1.321l-6.145-.318c.507-.4,1.014-.8,1.522-1.191C106.75,337.758,109.2,337.723,111.6,339.787Z" transform="translate(-12.276 -207.697)" fill="#2a2f2b"/>
    <path id="Path_48" data-name="Path 48" d="M118.76,340.752c-1.026,1.427-2.666,1.026-4.058,1.368-.755-.094-1.5-.177-2.253-.271.625-1.038,1.722-1.109,2.736-1.345A2.538,2.538,0,0,1,118.76,340.752Z" transform="translate(-10.533 -207.4)" fill="#2a2f2b"/>
    <path id="Path_49" data-name="Path 49" d="M69.41,339.974c-.047-.5-.083-.979-.13-1.474a.855.855,0,0,1,1.18-.165c1.663.566,3.7-.389,5.084,1.262C73.5,339.727,71.462,339.856,69.41,339.974Z" transform="translate(-18.283 -207.707)" fill="#1c201d"/>
    <path id="Path_50" data-name="Path 50" d="M117.82,283.563c.035-.389.071-.778.094-1.168a1.845,1.845,0,0,1,2.17-.153l2.784.46c-.012.413,0,.826.012,1.238C121.075,285.285,119.377,285.285,117.82,283.563Z" transform="translate(-9.569 -217.797)" fill="#262421"/>
    <path id="Path_51" data-name="Path 51" d="M106.1,280.254c-1.592.224-3.208.566-4.47-.873A6.449,6.449,0,0,1,106.1,280.254Z" transform="translate(-12.476 -218.274)" fill="#524641"/>
    <path id="Path_52" data-name="Path 52" d="M167.642,284.866c-.955,1.191-2.147.979-3.362.566C165.247,284.288,166.427,284.477,167.642,284.866Z" transform="translate(-1.229 -217.33)" fill="#6f947d"/>
    <path id="Path_53" data-name="Path 53" d="M55.27,342.979c.661-1.451,1.486-1.4,2.442-.283Z" transform="translate(-20.798 -207.043)" fill="#1d1f1f"/>
    <path id="Path_54" data-name="Path 54" d="M59.656,340.519c.448.425.885.849,1.333,1.274l-.531.212-.566-.035c-.46-.448-.932-.9-1.392-1.345A.822.822,0,0,1,59.656,340.519Z" transform="translate(-20.218 -207.32)" fill="#121211"/>
    <path id="Path_55" data-name="Path 55" d="M62.094,281.48v.991a1.668,1.668,0,0,1-2.5.318c-.012-.425-.024-.837-.024-1.262.472-.153.955-.318,1.427-.472A.942.942,0,0,1,62.094,281.48Z" transform="translate(-20.026 -217.966)" fill="#3c3532"/>
    <path id="Path_56" data-name="Path 56" d="M120.06,282.326c-.72.047-1.451.106-2.17.153a3.259,3.259,0,0,1,.118-.885A1.476,1.476,0,0,1,120.06,282.326Z" transform="translate(-9.557 -217.892)" fill="#6f947d"/>
    <path id="Path_57" data-name="Path 57" d="M61.875,281.565a1.865,1.865,0,0,1-1.085-.413c.118-.578.436-.743.967-.484A1.236,1.236,0,0,1,61.875,281.565Z" transform="translate(-19.807 -218.051)" fill="#6f947d"/>
    <path id="Path_202" data-name="Path 202" d="M60.17,283.033l2.5-.319c5.532-.8,10.958-2.324,16.6-2.406a49.062,49.062,0,0,1,15.263-.094q10.651.814,21.3,1.616c4.175,1.687,8.693,1.368,13.022,2.147,1.675.118,3.362.248,5.037.366,2.949,2.158,6.546,1.168,9.8,1.887,4.683,1.05,9.6,1.073,14.414,1.545a178.4,178.4,0,0,0,25.359.071c3.09.543,5.921-.92,8.893-1.2,2.206.047,4.069.283,4.034,3.3-.024,2.418-.566,4.989.944,7.242q.035,23.637.071,47.286c0,3.987.472,7.985-.271,11.948l-7.278.248q-8.917.018-17.834.024c-2.89-.059-5.78-.13-8.669-.189-4.034-1.97-8.351-1.368-12.6-1.333a50.517,50.517,0,0,0-17.716-2.63,4.99,4.99,0,0,0-4.223-.967l-3.574-.248c-1.6-1.215-3.456-1.179-5.331-1.014-2.442-.059-4.895-.13-7.337-.189-1.9-1.675-4.234-1.227-6.452-1.333a6.335,6.335,0,0,0-4.164-1.038c-7.513-.071-15.039-.224-22.552-.153-2.229.024-4.647-.307-6.641,1.238a3.11,3.11,0,0,0-1.179.165c-3.869.719-7.95.425-11.559,2.406h-.59l-.578.106c-2.784-.389-2.335-2.536-2.335-4.376-.024-8.669-.012-17.339-.012-26.008,0-10.568.177-21.149-.083-31.717C56.36,286.182,57.468,284.318,60.17,283.033Z" transform="translate(-20.59 -218.21)" fill="#6f947d"/>
    <path id="Path_203" data-name="Path 203" d="M91.043,280.315q-7.626.053-15.263.094c2.536-2.217,5.579-.9,8.374-1.144,2.265-.2,4.565-.035,6.853-.035C91.007,279.6,91.019,279.95,91.043,280.315Z" transform="translate(-17.116 -218.312)" fill="#3f4741"/>
    <path id="Path_291" data-name="Path 291" d="M110.052,332.573a33.779,33.779,0,0,1-8.492-6.24c-7.572-7.749-4.234-16.3,2.477-22.352,1.911-1.734,4.187-3.621,7.23-3.279,4.14-.519,6.122,1.451,6.31,5.485-2.607,1.84-5.461,1.356-8.292.849a1.928,1.928,0,0,1-1.038-.566c-.118.283.106.425.578.649,3.185,1.474,7.006.248,10.049,2.347a2.642,2.642,0,0,1,.5,1.7,4.654,4.654,0,0,1-1.923,3.008,9.443,9.443,0,0,1-4.258.826,10.541,10.541,0,0,0-3.043.354c-1.274.932-.661,2.123-.436,3.267.377,1.274.79,2.524,1.191,3.774a40.977,40.977,0,0,0,1.286,4.565,5.121,5.121,0,0,0,2.076,2.312c2.265.743,4.93.153,6.794,2.123.837,1.5,1.038,2.913-1.2,2.96-1.982.047-4.081.649-5.968-.566l.012.012C112.847,332.632,111.125,333.634,110.052,332.573Z" transform="translate(-13.266 -214.448)" fill="#96baa2"/>
    <path id="Path_292" data-name="Path 292" d="M111.34,333.353c1.875-.012,3.751.094,5.614-.059,1.663-.141,1.014-1.38.849-2.335a14.247,14.247,0,0,1,1.663-3.5c1.286-1.687,2.937-3.055,4.175-4.777a11.56,11.56,0,0,0,3.291-6.369,9.055,9.055,0,0,0-1.168-8.245c-1.356-1.946-1.7-3.774.778-5.154,3.822,1.923,5.791,5.685,7.419,9.118,4.305,9.035-.637,16.678-8.292,20.276C121.366,334.344,116.341,336.514,111.34,333.353Z" transform="translate(-10.733 -214.037)" fill="#779682"/>
    <path id="Path_293" data-name="Path 293" d="M126.927,303.528a3.25,3.25,0,0,0,.554,4.352,7.42,7.42,0,0,1,.8,9.637,7.8,7.8,0,0,1-2.041-2.394,6.418,6.418,0,0,1-.837-1.274,1.761,1.761,0,0,1,.72-1.911c.377-.224.637.059.932.224.012-.389-.212-.566-.684-.507a1.566,1.566,0,0,1-1.014-1.545,2,2,0,0,0,.389-.33c-.507.684.083-.236-.472.425a3.355,3.355,0,0,1-1.392-.377c-.472-.224-.92-.448-1.38-.684-1.911-.6-3.8-.094-5.685.047-1.132-.047-2.371.165-2.878-1.274-.012-1.085.967-1.321,1.592-1.864-2.335-1.474-3.421-4.47-6.393-5.166,2.878-2.029,5.968-1.4,8.964-.507S123.99,302.478,126.927,303.528Z" transform="translate(-11.128 -214.643)" fill="#8bab94"/>
    <path id="Path_294" data-name="Path 294" d="M58.5,296.859c1.25-2.984.7-6.664,3.149-9.306.967-1.05,2.3-2.064,3.9-1.356,1.734.755,1.368,2.076,1.062,3.692-.7,3.645-2.7,7.16-1.274,11.087.295.826-.342,1.581-1.18,1.97a2.659,2.659,0,0,1-2.961-.33C59.479,301.176,58.972,299.135,58.5,296.859Z" transform="translate(-20.218 -217.08)" fill="#93b8a0"/>
    <path id="Path_295" data-name="Path 295" d="M58.551,333.5c.047-3.951,1.687-6.57,4.812-7.207,1.769-.366,3.185-.189,3.114,2.453-.071,3.161-1.663,6-1.309,9.295.224,2.064-2.984,2.8-4.777,1.238C58.9,337.981,58.5,336.754,58.551,333.5Z" transform="translate(-20.209 -209.866)" fill="#92b69e"/>
    <path id="Path_296" data-name="Path 296" d="M169.465,327.66c3.727,3.892,2.984,8.315,1.345,12.715-1.356,3.633-3.232,4.152-7.749,2.595C165.761,338.11,164.44,331.552,169.465,327.66Z" transform="translate(-1.449 -209.594)" fill="#769682"/>
    <path id="Path_297" data-name="Path 297" d="M170.509,291.05c1.875,1.828,2.949,3.774,1.864,6.558-1.191,3.055-1.828,6.4-4.977,8.209a2.326,2.326,0,0,1-3.255-.719C165.249,299.967,164.223,293.845,170.509,291.05Z" transform="translate(-1.255 -216.166)" fill="#769682"/>
    <path id="Path_298" data-name="Path 298" d="M169.658,327.812c-1.1,3.763-2.76,7.336-3.279,11.3-.212,1.651-.507,3.928-3.137,4-.4-.46-.8-.908-1.215-1.368-.389-5.1,1.923-9.507,3.656-14.048C167.075,325.866,168.349,327.387,169.658,327.812Z" transform="translate(-1.642 -209.746)" fill="#89ac95"/>
    <path id="Path_299" data-name="Path 299" d="M165.88,327.57c.342.484,1.085,1.109.967,1.439-1.474,4.235-3.067,8.422-4.624,12.609C159.734,334.859,160.879,330.448,165.88,327.57Z" transform="translate(-1.827 -209.611)" fill="#92b79f"/>
    <path id="Path_300" data-name="Path 300" d="M163.308,303.916c-2.017-4.47-2.347-8.775,1.2-12.7.448-.389.885-.778,1.321-1.191.837,0,1.675-.012,2.5-.012C167.165,294.822,167.613,300.225,163.308,303.916Z" transform="translate(-1.673 -216.353)" fill="#93b89f"/>
    <path id="Path_301" data-name="Path 301" d="M163.08,303.922c3.043-4.14,2.595-9.554,5.036-13.906l1.309-.035a7.982,7.982,0,0,0,1.262,1.262h.012a11.258,11.258,0,0,0-2.949,5.343c-.9,2.961-1.215,6.24-3.432,8.717Z" transform="translate(-1.445 -216.358)" fill="#89ab95"/>
    <path id="Path_302" data-name="Path 302" d="M108.1,327.712c1.4,0,2.878-.236,3.822,1.2C110.53,328.915,109.044,329.175,108.1,327.712Z" transform="translate(-11.314 -209.588)" fill="#779682"/>
    <path id="Path_303" data-name="Path 303" d="M169.722,291.232l-1.262-1.262Z" transform="translate(-0.479 -216.36)" fill="#769682"/>
    <path id="Path_304" data-name="Path 304" d="M165.431,290.02c-.436.4-.885.79-1.321,1.191C164.546,290.81,164.995,290.409,165.431,290.02Z" transform="translate(-1.26 -216.351)" fill="#89ab95"/>
    <path id="Path_335" data-name="Path 335" d="M115.079,306.532a2.586,2.586,0,0,0,2.8.861,1.292,1.292,0,0,1,1.522.566c.2,1.333.142,2.477-1.7,2.3-1.356-1.781-3.326-1.3-5.107-1.321a17.494,17.494,0,0,1-7.6-2.076c-.837-.425-.79-1.392-.059-2.017.59-.507,1.1-.106,1.486.436C109.158,306.7,112.39,304.739,115.079,306.532Z" transform="translate(-11.983 -213.731)" fill="#bbcbac"/>
    <path id="Path_336" data-name="Path 336" d="M116.688,309.845a2.564,2.564,0,0,0,1.274-2.571,1.1,1.1,0,0,1,1.663.059c1.25,2.218.271,4.305-.377,6.416-.779,1.592-1.274,3.456-3.444,3.786a26.851,26.851,0,0,0-5.461-3.527,1.193,1.193,0,0,1-.33-.979c.047-.354.106-.519.189-.519,1.71-.083,3.421-.165,5.131-.26.861-.59.6-1.816,1.38-2.453Z" transform="translate(-10.973 -213.317)" fill="#9e957a"/>
    <path id="Path_337" data-name="Path 337" d="M120.318,324.547a2.32,2.32,0,0,1-2.324,2.63c-2.571-.613-5.508.908-7.785-1.368l.554-.625a5.193,5.193,0,0,1,1.533-.6c2.159-.259,4.341-.236,6.5-.543A2.438,2.438,0,0,1,120.318,324.547Z" transform="translate(-10.935 -210.244)" fill="#b0bea9"/>
    <path id="Path_338" data-name="Path 338" d="M114.769,306.45c-2.866-.566-6.027.873-8.669-1.25,3.314-.035,6.641-.083,9.955-.13C115.63,305.53,115.206,305.99,114.769,306.45Z" transform="translate(-11.673 -213.649)" fill="#989379"/>
    <path id="Path_339" data-name="Path 339" d="M110.816,311.683a3.432,3.432,0,0,1,.012.92c-.967,1.557-2.194,2.359-4.034,1.416-.318-.967-.436-1.887.637-2.489C108.563,311.577,109.684,311.636,110.816,311.683Z" transform="translate(-11.589 -212.49)" fill="#998266"/>
    <path id="Path_340" data-name="Path 340" d="M107.566,311.53c-.094.814-.2,1.628-.295,2.453a1.725,1.725,0,0,1,.472,2.1l-.554.554C105.549,314.8,105.042,313.052,107.566,311.53Z" transform="translate(-11.724 -212.49)" fill="#bfc7b2"/>
    <path id="Path_341" data-name="Path 341" d="M109.333,324.2c-1.781-1.368-1.121-3.326-1.25-5.1.248-.083.5-.177.755-.259,1.533.637,1.616,1.958,1.616,3.326a4.294,4.294,0,0,1-.5,1.51C109.746,323.863,109.533,324.028,109.333,324.2Z" transform="translate(-11.32 -211.176)" fill="#bfc7b2"/>
    <path id="Path_342" data-name="Path 342" d="M108.277,319.687c-1.5-.9-1.262-2.383-1.3-3.786l.035-.035a1.161,1.161,0,0,1,1.7.153,2.86,2.86,0,0,1-.366,3.609Z" transform="translate(-11.515 -211.765)" fill="#bfc7b2"/>
    <path id="Path_343" data-name="Path 343" d="M115.9,309.36c-.024,1.062-.153,2.064-1.38,2.453A2.52,2.52,0,0,1,115.9,309.36Z" transform="translate(-10.162 -212.879)" fill="#bbcbac"/>
    <path id="Path_344" data-name="Path 344" d="M110.414,325.933a2.671,2.671,0,0,1-1.274-2.548l.106-.035c1.923,0,2.005,1,1.321,2.43Z" transform="translate(-11.128 -210.368)" fill="#b0bea9"/>
    <path id="Path_345" data-name="Path 345" d="M119.816,325.475c-.448.012-.885.035-1.333.047l-.873-.071c-2.312-.271-5.119.047-4.518-3.739a4.551,4.551,0,0,1,2.689-2.383,8.7,8.7,0,0,1,1.828-.389,13.193,13.193,0,0,1,4.659.319,3.6,3.6,0,0,1,1.486,1.1C123.92,323.21,121.125,323.764,119.816,325.475Z" transform="translate(-10.433 -211.172)" fill="#95b8a0"/>
    <path id="Path_346" data-name="Path 346" d="M122.446,321.693c-.448-.024-.9-.035-1.356-.059a2.453,2.453,0,0,1-.719-1.38c.024-.271.059-.531.083-.8.094-.248.2-.5.295-.755a10.128,10.128,0,0,1,.9-1.333c.153-.212.318-.425.46-.637a5.494,5.494,0,0,0,.955-2.913c.153-1.191,1.132-1.7,1.958-2.324,1.439.955,1.121,2.489,1.262,3.869C126.043,318.119,125.973,320.95,122.446,321.693Z" transform="translate(-9.112 -212.497)" fill="#9bb6a0"/>
    <path id="Path_347" data-name="Path 347" d="M116.97,313.557c.377-2.04.743-4.093,1.121-6.133a4.177,4.177,0,0,1,4.93-.012,9.639,9.639,0,0,0,0,1.168c-.118.224-.224.448-.33.672-.8.92-.507,1.722.259,2.5a2.157,2.157,0,0,1,.4,1.569,3.111,3.111,0,0,1-2.135,1.474C119.612,315.031,118.079,315,116.97,313.557Z" transform="translate(-9.722 -213.372)" fill="#afc2ae"/>
    <path id="Path_348" data-name="Path 348" d="M123.217,307.511c-1.64,0-3.291.012-4.93.012-.46-.024-.92-.059-1.38-.083-.366-.106-.731-.2-1.1-.295C118.37,305.671,120.858,305.423,123.217,307.511Z" transform="translate(-9.93 -213.484)" fill="#8f946c"/>
    <path id="Path_349" data-name="Path 349" d="M121.129,312.87c.472-.366.932-.719,1.4-1.085.248-.531.6-.649,1.085-.283.436.012.861.024,1.3.047l-1.345,2.548a2.131,2.131,0,0,1-1.5.554C121.259,314.321,120.6,313.908,121.129,312.87Z" transform="translate(-9.01 -212.533)" fill="#7d8f6c"/>
    <path id="Path_350" data-name="Path 350" d="M123.525,312.048a6.951,6.951,0,0,1-1.085.271l-.212-.236a2.757,2.757,0,0,1-.012-3.822h0a11.264,11.264,0,0,0,1.262-.012l.047.047c.436.425.873.861,1.309,1.286a.913.913,0,0,1-.024,1.191C124.375,311.211,123.95,311.635,123.525,312.048Z" transform="translate(-8.917 -213.079)" fill="#b0caac"/>
    <path id="Path_351" data-name="Path 351" d="M123.16,308.339c.189-.177.366-.354.554-.519-.165.189-.33.377-.507.566C123.219,308.386,123.16,308.339,123.16,308.339Z" transform="translate(-8.611 -213.156)" fill="#7c8d69"/>
    <path id="Path_352" data-name="Path 352" d="M124.29,310.581c0-.4.012-.8.024-1.191a6.028,6.028,0,0,1,.436.873C124.762,310.31,124.455,310.475,124.29,310.581Z" transform="translate(-8.408 -212.874)" fill="#779682"/>
    <path id="Path_359" data-name="Path 359" d="M122.421,312.655c-.012.755.507,1.062,1.085,1.321,1.191,1.215.979,2.465.083,3.727l.047-.059q-.69.655-1.345,1.345l.059-.059a1.694,1.694,0,0,1-1.38.637,6.258,6.258,0,0,0-3.055.259c-.719.33-1.463.59-2.206.873a1.73,1.73,0,0,1-1.463-.5,3.159,3.159,0,0,1-.153-3.161l.59-.59c.955-1.321,1.9-2.642,2.854-3.963C119.177,312.549,120.8,312.608,122.421,312.655Z" transform="translate(-10.301 -212.317)" fill="#9dba9e"/>
    <path id="Path_360" data-name="Path 360" d="M108.117,316.5c-.366-.024-.731-.047-1.1-.059.012-.873.024-1.746.047-2.618,1.227-.46,2.465-.92,3.692-1.368,2.571.236,5.721-.236,5.154,4.022l-.012.047a1.385,1.385,0,0,1-1.427.283c-1.3-.708-2.595-1.439-4.152-.79A5.8,5.8,0,0,1,108.117,316.5Z" transform="translate(-11.508 -212.325)" fill="#bdb596"/>
    <path id="Path_361" data-name="Path 361" d="M110.551,326.227a2.89,2.89,0,0,0-1.321-2.43c.071-.448.142-.9.2-1.356a12.991,12.991,0,0,1,1.1-1.038,3.457,3.457,0,0,1,2.206-.519,1.388,1.388,0,0,1,.849,1.168,4.83,4.83,0,0,1-.684,2.984c-.366.366-.743.731-1.109,1.1A6.256,6.256,0,0,1,110.551,326.227Z" transform="translate(-11.111 -210.815)" fill="#a79c7b"/>
    <path id="Path_362" data-name="Path 362" d="M111.405,325.607l-.035-1.168a9.829,9.829,0,0,1,7.561.212h-.142C116.548,326.728,113.906,325.631,111.405,325.607Z" transform="translate(-10.727 -210.29)" fill="#a58d6c"/>
    <path id="Path_363" data-name="Path 363" d="M110.58,323.651l-.92-.106c-.4-1.286-.024-2.878-1.474-3.763-.083-1.238-.165-2.465-.236-3.7.46-.46.932-.908,1.392-1.368a6.318,6.318,0,0,1,2.677,2.029,3.322,3.322,0,0,1,.531,1.58c-.024.271-.059.554-.071.837A10.232,10.232,0,0,1,110.58,323.651Z" transform="translate(-11.341 -211.919)" fill="#99876c"/>
    <path id="Path_364" data-name="Path 364" d="M118.921,325.166l-7.561-.212c.531-1.215,1.321-2.347,1.238-3.763.212-.094.425-.177.637-.271.2.106.4.224.613.33a2.4,2.4,0,0,0,2.619,2.548A2.774,2.774,0,0,1,118.921,325.166Z" transform="translate(-10.729 -210.804)" fill="#b0bea9"/>
    <path id="Path_365" data-name="Path 365" d="M120.667,317.945c.472.035.955.059,1.427.094-.012.425-.035.849-.047,1.274-1.6,1.368-3.786.024-5.438,1.191l-.484-.047c-1.062-.071-1.18-.436-.354-1.109.436-.46.885-.92,1.321-1.368A3.369,3.369,0,0,1,120.667,317.945Z" transform="translate(-10.034 -211.427)" fill="#89a374"/>
    <path id="Path_366" data-name="Path 366" d="M116.41,320.221c1.533-1.651,3.586-.967,5.438-1.191a11.064,11.064,0,0,1-.035,1.25C120.007,320.269,118.2,320.245,116.41,320.221Z" transform="translate(-9.822 -211.143)" fill="#b0bea9"/>
    <path id="Path_367" data-name="Path 367" d="M116.165,319.06c.118.377.224.743.354,1.121-.991.472-1.97.944-2.961,1.415l-.083-.083c-.661-1.439-.8-2.595,1.38-2.406C115.28,319.083,115.728,319.072,116.165,319.06Z" transform="translate(-10.426 -211.138)" fill="#b0bea9"/>
    <path id="Path_368" data-name="Path 368" d="M122.113,317.5c-.024-1.238-.047-2.489-.083-3.727l1.345-.106C125.639,315.828,123.516,316.548,122.113,317.5Z" transform="translate(-8.814 -212.106)" fill="#8ba080"/>
    <path id="Path_369" data-name="Path 369" d="M121,318.215c.448-.448.9-.9,1.333-1.345C121.9,317.318,121.448,317.766,121,318.215Z" transform="translate(-8.999 -211.531)" fill="#84956b"/>
    <path id="Path_370" data-name="Path 370" d="M122.636,308.27c0,1.274.012,2.548.012,3.822-1.486-.259-3.786.448-3.515-2.194C119.346,307.951,121.268,308.435,122.636,308.27Z" transform="translate(-9.338 -213.075)" fill="#8eae98"/>
    <path id="Path_371" data-name="Path 371" d="M115.189,319.653c-1.109.436-1.321,1.38-1.38,2.418l-.578.035-.578-.012.035.047c-1.109-1.05-2.041-2.158-1.3-3.833l-.047.083a21.2,21.2,0,0,0,1.439-1.651,2.592,2.592,0,0,1,1.309-.613c.354-.094.708-.165,1.062-.236C115.165,317.152,115.177,318.4,115.189,319.653Z" transform="translate(-10.771 -211.707)" fill="#8a896e"/>
    <path id="Path_372" data-name="Path 372" d="M120.384,318.041c-1.191.012-2.383.012-3.574.024C117.99,316.579,119.181,316.5,120.384,318.041Z" transform="translate(-9.751 -211.523)" fill="#b8d0c2"/>
    <path id="Path_373" data-name="Path 373" d="M114.45,316.521a3.282,3.282,0,0,1-.189.9,1.745,1.745,0,0,1-2.548.094,2.338,2.338,0,0,1-2.583-2.619C112.633,313.042,112.881,313.124,114.45,316.521Z" transform="translate(-11.129 -212.103)" fill="#a7c0a7"/>
    <path id="Path_374" data-name="Path 374" d="M111.56,317.94c.7,1.191,1.522,2.335,1.3,3.833-.9.436-1.793.861-2.677,1.3C110.487,321.325,109.555,319.237,111.56,317.94Z" transform="translate(-10.941 -211.339)" fill="#b9b89a"/>
    <path id="Path_375" data-name="Path 375" d="M111.324,316.954c.849-.035,1.7-.059,2.548-.094-.472,1.191-1.522,1.274-2.571,1.356C111.312,317.792,111.324,317.379,111.324,316.954Z" transform="translate(-10.74 -211.533)" fill="#b9b89a"/>
  </g>
</svg>
