<svg xmlns="http://www.w3.org/2000/svg" width="39.158" height="39.026" viewBox="0 0 39.158 39.026">
  <g id="BALL" transform="translate(0 0)">
    <path id="Path_376" data-name="Path 376" d="M191.991,241.392a.266.266,0,0,0,.1-.029,20.393,20.393,0,0,1,5.5-4.8c.58-.346,1.188-.627,1.794-.918.1-.038.2-.069.3-.106a.726.726,0,0,0,.2-.061,22.659,22.659,0,0,1,2.791-1.022,27.03,27.03,0,0,1,4.2-.532,19.817,19.817,0,0,1,6.17.794,1.771,1.771,0,0,0,.349.086,6.5,6.5,0,0,1,1.607.5,4.021,4.021,0,0,0,1.464.753,9.856,9.856,0,0,1,2.219,1.329c.777.741,1.679,1.333,2.44,2.1a20.419,20.419,0,0,1,3.756,5.215c.052.086.092.178.138.265a1.15,1.15,0,0,1,.074.187,1.232,1.232,0,0,0,.085.3c.036.065.068.13.1.2a18.554,18.554,0,0,1,1.573,6.743,19.563,19.563,0,0,1-1.235,7.825,21.179,21.179,0,0,1-2.542,4.655,15.987,15.987,0,0,1-1.574,1.962h0a7.252,7.252,0,0,0-.886.79,15.459,15.459,0,0,1-4.851,3.22,17.832,17.832,0,0,1-6.574,1.784,18.62,18.62,0,0,1-7.826-.883,31.878,31.878,0,0,1-5.464-2.747,1.439,1.439,0,0,1-.568-.39c-.545-.541-1.114-1.058-1.658-1.6a19.233,19.233,0,0,1-4.87-8.2,19.8,19.8,0,0,1-.207-10.366c.09-.393.253-.773.361-1.167a1.641,1.641,0,0,0,.143-.408,1.468,1.468,0,0,1,.086-.192c.468-1.227,1.155-2.354,1.645-3.572A8.756,8.756,0,0,1,191.991,241.392Z" transform="translate(-187.855 -233.785)" fill="#221f1e"/>
    <path id="Path_377" data-name="Path 377" d="M451.39,339.952c.39-.633.792-1.257,1.167-1.9a19.2,19.2,0,0,0,2.549-11.809,16.051,16.051,0,0,0-1.443-5.46c-.046-.109-.074-.227-.11-.339a.112.112,0,0,1,.171-.016,10.36,10.36,0,0,1,1.061,2.816,18.7,18.7,0,0,1,.675,5.558,19.478,19.478,0,0,1-3.345,10.418,2.32,2.32,0,0,1-.556.744C451.5,340.037,451.44,340.033,451.39,339.952Z" transform="translate(-416.313 -308.797)" fill="#4e4846"/>
    <path id="Path_378" data-name="Path 378" d="M188.154,328.972a18.778,18.778,0,0,0-1.011,6.578,19.344,19.344,0,0,0,1.919,7.907,21.062,21.062,0,0,0,4.59,6.137c.275.259.684.375.829.772a.165.165,0,0,1-.261-.028h0a.924.924,0,0,1-.159-.127h0a.351.351,0,0,0-.157-.127,19.88,19.88,0,0,1-5.794-8.3,21.593,21.593,0,0,1-1.187-7.21A21.614,21.614,0,0,1,188,328.717c.06-.175.07-.385.26-.5a.241.241,0,0,1,.027.317l-.028.129C188.188,328.753,188.21,328.877,188.154,328.972Z" transform="translate(-186.91 -315.582)" fill="#706a69"/>
    <path id="Path_379" data-name="Path 379" d="M247.237,497.32c.345,0,.557.263.806.434a18.946,18.946,0,0,0,6.353,2.8,17.4,17.4,0,0,0,5.784.493,18.548,18.548,0,0,0,5.912-1.427c.365-.167.755-.277,1.133-.414.046.034.064.07.05.107s-.028.057-.042.057a9.942,9.942,0,0,1-2.044.871,18.471,18.471,0,0,1-6.581,1.033c-.648-.017-1.3-.044-1.944-.066a19.955,19.955,0,0,1-2.468-.431h0c-.332-.121-.688-.157-1.015-.293a21.337,21.337,0,0,1-4.931-2.294c-.061-.1-.207-.066-.275-.159h0a3.633,3.633,0,0,1-.431-.294h0C247.409,497.624,247.172,497.584,247.237,497.32Z" transform="translate(-239.227 -462.255)" fill="#4c4c4c"/>
    <path id="Path_380" data-name="Path 380" d="M307.333,234.031c-.93-.122-1.814-.462-2.739-.6a22.609,22.609,0,0,0-4.958-.21,32.4,32.4,0,0,0-3.265.536.2.2,0,0,1-.186,0,.119.119,0,0,1,.021-.167h0c.167-.16.411,0,.582-.138a20.142,20.142,0,0,1,3.855-.517,19.834,19.834,0,0,1,6.687.951c.04.031.054.061.041.092S307.347,234.031,307.333,234.031Z" transform="translate(-281.671 -232.933)" fill="#645a58"/>
    <path id="Path_381" data-name="Path 381" d="M425.491,268.29l-.171.016v0c-.074-.085-.048-.216-.135-.295a1.013,1.013,0,0,1-.021-.123.576.576,0,0,0-.113-.168,20.08,20.08,0,0,0-4.147-5.641,16.072,16.072,0,0,0-1.554-1.274c-.184-.137-.454-.2-.511-.474a.18.18,0,0,1,.261.025h0a.491.491,0,0,0,.169.121,18.49,18.49,0,0,1,5.513,6.26A4.117,4.117,0,0,1,425.491,268.29Z" transform="translate(-388.08 -256.656)" fill="#625b59"/>
    <path id="Path_382" data-name="Path 382" d="M226.23,245.6a16.6,16.6,0,0,0-4.21,2.572,15.728,15.728,0,0,0-2.753,2.713c-.113.146-.223.32-.438.345.026-.345.3-.543.5-.768a19.634,19.634,0,0,1,6.7-5.037.915.915,0,0,1,.481-.131.1.1,0,0,1,.044.107c-.011.038-.023.057-.036.057-.04.012-.08.021-.119.029A.459.459,0,0,0,226.23,245.6Z" transform="translate(-214.597 -243.65)" fill="#706765"/>
    <path id="Path_383" data-name="Path 383" d="M398.019,490.551c0-.056-.005-.11-.009-.166a18.147,18.147,0,0,0,4.534-3.024,2.356,2.356,0,0,1,.235-.166.12.12,0,0,1,.2.023,17.345,17.345,0,0,1-4.682,3.273A1.072,1.072,0,0,1,398.019,490.551Z" transform="translate(-370.013 -453.436)" fill="#727373"/>
    <path id="Path_384" data-name="Path 384" d="M197.156,306.712c-.009-.106-.017-.211-.026-.317a17.562,17.562,0,0,1,1.468-3.148c.064-.1.1-.232.269-.172a2.763,2.763,0,0,1-.564,1.208C197.865,305.066,197.645,305.952,197.156,306.712Z" transform="translate(-195.774 -293.758)" fill="#504a48"/>
    <path id="Path_385" data-name="Path 385" d="M403.641,250.418l-.261-.025a11.566,11.566,0,0,0-2.176-1.3c-.1-.058-.241-.1-.166-.265A7.053,7.053,0,0,1,403.641,250.418Z" transform="translate(-372.62 -246.721)" fill="#a09794"/>
    <path id="Path_386" data-name="Path 386" d="M276.758,239.559c0-.054-.005-.11-.008-.164a8.415,8.415,0,0,1,1.743-.706c.283-.056.53-.3.849-.149l.195.04c-.613.309-1.3.412-1.934.658A2.3,2.3,0,0,1,276.758,239.559Z" transform="translate(-264.835 -237.753)" fill="#564d4a"/>
    <path id="Path_387" data-name="Path 387" d="M441.946,467.84l.171.015a5.333,5.333,0,0,1-1.607,1.874c-.047-.23.127-.344.257-.472A10.885,10.885,0,0,0,441.946,467.84Z" transform="translate(-406.869 -436.685)" fill="#6c6b6c"/>
    <path id="Path_388" data-name="Path 388" d="M208.469,292l-.269.172a3.728,3.728,0,0,1,1.314-1.879C209.274,290.925,208.711,291.363,208.469,292Z" transform="translate(-205.376 -282.683)" fill="#c3bdbb"/>
    <path id="Path_389" data-name="Path 389" d="M299.78,523.38a11.648,11.648,0,0,1,2.468.431A5.237,5.237,0,0,1,299.78,523.38Z" transform="translate(-284.811 -484.859)" fill="#bdc0c2"/>
    <path id="Path_390" data-name="Path 390" d="M380.383,240.308a.535.535,0,0,0,0-.138,3.725,3.725,0,0,1,1.878.728.325.325,0,0,1-.412-.03A8.451,8.451,0,0,0,380.383,240.308Z" transform="translate(-354.721 -239.21)" fill="#b7afad"/>
    <path id="Path_391" data-name="Path 391" d="M391.44,245.42l.412.031.879.422.166.265A3.233,3.233,0,0,1,391.44,245.42Z" transform="translate(-364.314 -243.764)" fill="#5a514e"/>
    <path id="Path_392" data-name="Path 392" d="M242.73,495.29c.046.18.283.222.309.416a1.567,1.567,0,0,1-1.009-.727l.261.028Z" transform="translate(-234.72 -460.225)" fill="#b1b3b5"/>
    <path id="Path_393" data-name="Path 393" d="M434.178,482.819l-.2-.023a1.619,1.619,0,0,1,.874-.716A1.806,1.806,0,0,1,434.178,482.819Z" transform="translate(-401.212 -449.036)" fill="#6c6b6c"/>
    <path id="Path_394" data-name="Path 394" d="M292.14,521.138a1.608,1.608,0,0,1,1.015.293A1.26,1.26,0,0,1,292.14,521.138Z" transform="translate(-278.184 -482.91)" fill="#bdc0c2"/>
    <path id="Path_395" data-name="Path 395" d="M290.739,237.947c-.3-.028-.545.219-.849.149a.923.923,0,0,1,.879-.272A.184.184,0,0,1,290.739,237.947Z" transform="translate(-276.232 -237.16)" fill="#b0a7a4"/>
    <path id="Path_396" data-name="Path 396" d="M297.092,236.705a.633.633,0,0,1-.582.138C296.667,236.639,296.877,236.664,297.092,236.705Z" transform="translate(-281.974 -236.18)" fill="#b0a7a4"/>
    <path id="Path_397" data-name="Path 397" d="M249.64,500.46a.47.47,0,0,1,.431.294A.365.365,0,0,1,249.64,500.46Z" transform="translate(-241.32 -464.979)" fill="#b1b3b5"/>
    <path id="Path_398" data-name="Path 398" d="M252.88,502.647a.236.236,0,0,1,.275.159C253.021,502.827,252.914,502.8,252.88,502.647Z" transform="translate(-244.131 -466.873)" fill="#b1b3b5"/>
    <path id="Path_399" data-name="Path 399" d="M420.988,260.922a.137.137,0,0,1-.168-.122A.157.157,0,0,1,420.988,260.922Z" transform="translate(-389.797 -257.103)" fill="#a09794"/>
    <path id="Path_400" data-name="Path 400" d="M239.64,493.059a.137.137,0,0,1,.157.127A.159.159,0,0,1,239.64,493.059Z" transform="translate(-232.647 -458.559)" fill="#b1b3b5"/>
    <path id="Path_401" data-name="Path 401" d="M240.83,494.02a.153.153,0,0,1,.159.127A.144.144,0,0,1,240.83,494.02Z" transform="translate(-233.679 -459.393)" fill="#b1b3b5"/>
    <path id="Path_402" data-name="Path 402" d="M199.438,271a15.959,15.959,0,0,1-2.156-4.088,19.683,19.683,0,0,1-1.05-4.527,20.843,20.843,0,0,1-.121-2.294,16.6,16.6,0,0,1,.371-2.983,11.848,11.848,0,0,1,.249-1.194,24.158,24.158,0,0,1,1.027-2.885,16.743,16.743,0,0,1,2.5-4.093,17.129,17.129,0,0,1,3.216-3.09,17.511,17.511,0,0,1,3.513-2.064,15.647,15.647,0,0,1,2.485-.891c.857-.207,1.728-.358,2.578-.6a2.4,2.4,0,0,1,.643-.058c.939,0,1.879,0,2.818,0a13.944,13.944,0,0,1,3.257.481,17.715,17.715,0,0,1,2.667.836,16.491,16.491,0,0,1,2.306,1.142,17.788,17.788,0,0,0,2.882,4.2,22.51,22.51,0,0,1,3.647,7.005,21.226,21.226,0,0,0,.87,2.216,6.5,6.5,0,0,1,.4,3.684,18.823,18.823,0,0,1-9.853,13.357,16.9,16.9,0,0,1-7.1,1.683,19.561,19.561,0,0,1-13.467-5.415c-.344-.313-.653-.565-1.143-.326A.465.465,0,0,1,199.438,271Z" transform="translate(-194.889 -241.004)" fill="#352727"/>
    <path id="Path_403" data-name="Path 403" d="M246.991,267.31c.233.054.472.092.7.164a1.471,1.471,0,0,1,1.062.882,4.459,4.459,0,0,0,1,1.485,18.558,18.558,0,0,1,3.509,5.236,14.143,14.143,0,0,1,1.3,4.655,5.032,5.032,0,0,0,.215,1.29,1.668,1.668,0,0,1,.054,1.118,5.133,5.133,0,0,0-.008,1.354,12.318,12.318,0,0,0-.166,2.219,1.424,1.424,0,0,1-.152.626,36.544,36.544,0,0,1-1.672,4.43,14.479,14.479,0,0,1-1.086,1.781,7.245,7.245,0,0,0-1.044,1.94,1.3,1.3,0,0,1-.9.867,2.518,2.518,0,0,0-1.05.6,19.816,19.816,0,0,1-7.658,4.069q-.774.153-1.542.328a.9.9,0,0,1-.42-.036,1.108,1.108,0,0,0-1.2.232.422.422,0,0,1-.467.117,5.722,5.722,0,0,0-1.717-.119,5.367,5.367,0,0,1-1.646-.118.562.562,0,0,0-.422.046.689.689,0,0,1-.493.031,39.312,39.312,0,0,1-4.283-1.188,19.049,19.049,0,0,1-2.736-1.386,12.5,12.5,0,0,0-2.076-1.244,2.454,2.454,0,0,1-1.321-1.249,4.725,4.725,0,0,0-1.2-1.422,1.154,1.154,0,0,1-.475-1.131c.491-.214.763.139,1.044.422a17.732,17.732,0,0,0,4.13,3.247c3.244,1.731,6.638,3.041,10.4,2.773A17.688,17.688,0,0,0,251,291.1a17.024,17.024,0,0,0,2.8-6.83,9,9,0,0,0-.534-5.145c-.578-1.285-.963-2.664-1.477-3.988a27.914,27.914,0,0,0-3.84-6.086c-.268-.37-.52-.752-.8-1.111C247.009,267.764,246.8,267.582,246.991,267.31Z" transform="translate(-216.544 -262.75)" fill="#251c1c"/>
    <path id="Path_404" data-name="Path 404" d="M247.125,261.629a10.731,10.731,0,0,0,1.085,1.583c.855,1.329,1.971,2.476,2.737,3.869.552,1,.995,2.053,1.454,3.1.586,1.342.931,2.761,1.505,4.1a5.371,5.371,0,0,1,.35,2.944c-.13.894-.167,1.806-.382,2.692a19.765,19.765,0,0,1-1.354,3.4,19.11,19.11,0,0,1-2.92,4.5,16.147,16.147,0,0,1-2.845,2.532,18.83,18.83,0,0,1-3.873,2.158,20.945,20.945,0,0,1-7.221,1.358,17.223,17.223,0,0,1-3.613-.532,23.832,23.832,0,0,1-5.353-2.058,13.123,13.123,0,0,1-2.83-1.936,24.621,24.621,0,0,1-2-1.866.732.732,0,0,0-.635-.271v-.145a1,1,0,0,0,.684-.162.516.516,0,0,1,.768.1,18.137,18.137,0,0,0,2.227,1.932,15.3,15.3,0,0,0,2.365,1.475,17.617,17.617,0,0,0,3.558,1.458,11.619,11.619,0,0,0,4.134.842,7.636,7.636,0,0,1,1.446,0,13.012,13.012,0,0,0,4.106-.607,15.686,15.686,0,0,0,4.2-1.748,12.384,12.384,0,0,0,3.747-3.21c.446-.568.989-1.042,1.451-1.6a14.936,14.936,0,0,0,1.675-2.822,16.006,16.006,0,0,0,.885-1.959,8.491,8.491,0,0,0,.6-2.271c.045-.692.13-1.381.139-2.077a5.143,5.143,0,0,0-.465-2.156c-.427-.983-.775-2-1.13-3.016a17.723,17.723,0,0,0-2.963-5.634c-.586-.7-1.021-1.5-1.633-2.187-.485-.545-.873-1.2-1.358-1.757-.229-.265-.1-.6-.129-.907A2.631,2.631,0,0,1,247.125,261.629Z" transform="translate(-216.678 -257.069)" fill="#2c1f20"/>
    <path id="Path_405" data-name="Path 405" d="M466.688,318.53a.3.3,0,0,1,.135.294A.311.311,0,0,1,466.688,318.53Z" transform="translate(-429.582 -307.177)" fill="#4e4846"/>
    <path id="Path_406" data-name="Path 406" d="M196.257,331.878a.3.3,0,0,1,.11-.308A.32.32,0,0,1,196.257,331.878Z" transform="translate(-195.013 -318.488)" fill="#504a48"/>
    <path id="Path_407" data-name="Path 407" d="M274.63,246.874a.184.184,0,0,1,.17-.114C274.743,246.8,274.687,246.837,274.63,246.874Z" transform="translate(-262.996 -244.926)" fill="#564d4a"/>
    <path id="Path_408" data-name="Path 408" d="M465.68,316.32a.19.19,0,0,1,.113.169C465.754,316.433,465.717,316.377,465.68,316.32Z" transform="translate(-428.708 -305.26)" fill="#4e4846"/>
    <path id="Path_409" data-name="Path 409" d="M367.577,263.062l.87.72a6.854,6.854,0,0,1,1.524,1.6,2.007,2.007,0,0,1-1.4,3.166c-.725.123-1.456.235-2.188.32a2.625,2.625,0,0,1-1.954-.153,2.024,2.024,0,0,1-.736-2.65c.121-.28.468-.541.153-.9a2.379,2.379,0,0,1-.593-.8,1.6,1.6,0,0,1,.061-1.993,1.781,1.781,0,0,1,2.017-.528A6.534,6.534,0,0,1,367.577,263.062Z" transform="translate(-339.591 -257.92)" fill="#684a4a"/>
    <path id="Path_410" data-name="Path 410" d="M233.16,280a24.039,24.039,0,0,1,.631-4.9,15.026,15.026,0,0,1,1.025-3.358,11.614,11.614,0,0,1,3.2-4.033,11.132,11.132,0,0,1,5.672-2.46,6.8,6.8,0,0,1,2.816.47,2.922,2.922,0,0,1,1.655,1.41,2.966,2.966,0,0,1,.117,2.7,5.037,5.037,0,0,1-1.186,1.789c-1.375,1.349-2.719,2.729-4.1,4.073A11.662,11.662,0,0,0,241.3,278a22.994,22.994,0,0,0-1.849,4.744,2.868,2.868,0,0,1-1.336,1.715,2.184,2.184,0,0,1-1.853.3c-.223-.084-.468-.109-.695-.184a3.3,3.3,0,0,1-2.263-2.647A10.193,10.193,0,0,1,233.16,280Z" transform="translate(-227.026 -260.939)" fill="#563d3d"/>
    <path id="Path_411" data-name="Path 411" d="M367.455,282.039c.069.021.148.076.2.058.668-.208,1.374-.179,2.052-.338a1.966,1.966,0,0,0,1.225-2.957,4.785,4.785,0,0,0-.784-.938,3.416,3.416,0,0,1-.678-.744,3.506,3.506,0,0,1,2,2.859,1.869,1.869,0,0,1-1.776,2.013c-1.077.119-2.111.4-3.174.566a2.445,2.445,0,0,1-2.154-1.186,1.781,1.781,0,0,1,.324-2.232l.064.089c.033.276-.15.5-.194.753C364.285,281.66,365.708,282.676,367.455,282.039Z" transform="translate(-340.621 -271.259)" fill="#4c3737"/>
    <path id="Path_412" data-name="Path 412" d="M366.55,262.057c-.33-.04-.542-.294-.808-.451a3.8,3.8,0,0,0-2.228-.714,1.522,1.522,0,0,0-1.31,2.143c.175.386.3.826.729,1.042.162.342.183.63-.284.726l-.007-.005a.773.773,0,0,0-.15-.834,2.492,2.492,0,0,1-.724-1.959,1.678,1.678,0,0,1,1.415-1.4,3.211,3.211,0,0,1,1.736.336A3.512,3.512,0,0,1,366.55,262.057Z" transform="translate(-338.565 -256.915)" fill="#4c3737"/>
    <path id="Path_413" data-name="Path 413" d="M372.184,268.32a3.28,3.28,0,0,1,2.67,1.554,3.75,3.75,0,0,0,.252.35.609.609,0,0,1,.07.678.621.621,0,0,1-.676.308,7.784,7.784,0,0,1-1.716-.527,9.127,9.127,0,0,1-1.683-.956.58.58,0,0,1-.11-.975A1.489,1.489,0,0,1,372.184,268.32Z" transform="translate(-346.391 -263.626)" fill="#e1cece"/>
    <path id="Path_414" data-name="Path 414" d="M366.491,287.655c.331-.15.286-.446.284-.725.363.155.249.4.115.642a3.271,3.271,0,0,0-.426,1.414,1.841,1.841,0,0,0,2.073,1.663,2.72,2.72,0,0,1,.7-.1c-.042.057-.076.147-.131.166a2.1,2.1,0,0,1-2.9-1.452,2.466,2.466,0,0,1,.212-1.33A1.6,1.6,0,0,0,366.491,287.655Z" transform="translate(-342.406 -279.768)" fill="#5f4443"/>
    <path id="Path_415" data-name="Path 415" d="M235.279,281.388a20.577,20.577,0,0,1,1.458-7.711,9.58,9.58,0,0,1,1.657-2.588,11.357,11.357,0,0,1,6.8-4,5.538,5.538,0,0,1,3.3.533,3.041,3.041,0,0,1,1.5,3.165,4.982,4.982,0,0,1-1.4,2.391c-.858.9-1.748,1.78-2.688,2.61a13.769,13.769,0,0,0-2.923,3.536,15.881,15.881,0,0,0-1.634,4.052,3.643,3.643,0,0,1-.759,1.6,3.363,3.363,0,0,1-2.309,1.013,1.853,1.853,0,0,1-1.29-.353,3.281,3.281,0,0,1-1.715-3.1C235.305,282.16,235.279,281.772,235.279,281.388Z" transform="translate(-228.849 -262.506)" fill="#684a4a"/>
    <path id="Path_416" data-name="Path 416" d="M250.066,328.177a2.416,2.416,0,0,1-.775,1.1,1.828,1.828,0,0,1-2.31.264,1.887,1.887,0,0,1-.81-2.127,3.736,3.736,0,0,1,.658-1.424.161.161,0,0,1,.188.032c.164.383-.131.66-.235.979a3.055,3.055,0,0,0-.19.881.836.836,0,0,0,.143.6,1.767,1.767,0,0,1,.1.149.981.981,0,0,0,.435.42c.057.027.111.057.167.086a1.759,1.759,0,0,0,1.049.143c.054-.013.11-.024.164-.037a1.549,1.549,0,0,0,.216-.078c.04-.025.081-.049.121-.076l.1-.09s.05-.046.049-.048c.03-.034.064-.065.1-.1,0,0,.049-.048.048-.048a1.266,1.266,0,0,1,.1-.1s.048-.046.048-.048c.029-.033.061-.066.09-.1,0,0,.042-.053.041-.054l.068-.121a.549.549,0,0,1,.072-.125.658.658,0,0,1,.1-.107.316.316,0,0,1,.141-.054A.167.167,0,0,1,250.066,328.177Z" transform="translate(-238.247 -313.632)" fill="#cfbbbb"/>
    <path id="Path_417" data-name="Path 417" d="M293.31,271.6a5.824,5.824,0,0,1,3.752-1.188,1.507,1.507,0,0,1,.965.435,2.633,2.633,0,0,1,.881,2.536,2.447,2.447,0,0,1-1.716,1.948.393.393,0,0,1,.126-.39,2.309,2.309,0,0,0,1.159-2.564,1.96,1.96,0,0,0-2.509-1.531,11.841,11.841,0,0,0-1.24.379c-.119.046-.24.093-.358.145s-.228.1-.34.162a1.912,1.912,0,0,1-.353.149A.374.374,0,0,1,293.31,271.6Z" transform="translate(-279.199 -265.433)" fill="#886e6e"/>
    <path id="Path_418" data-name="Path 418" d="M281.156,304.9l-.167.276a26.245,26.245,0,0,0-4.272,2.626,7.273,7.273,0,0,0-1.544,1.581,1.113,1.113,0,0,1-.358.44l-.182-.015c-.042-.646.472-.982.8-1.417a4.262,4.262,0,0,1,.887-.8,2.425,2.425,0,0,1,.235-.131c.048-.026.1-.05.149-.073s.093-.05.138-.077c.02-.016.042-.029.062-.045.037-.034.076-.068.114-.1l.056-.052a1.152,1.152,0,0,1,.118-.094,1.127,1.127,0,0,1,.13-.073c.041-.025.084-.05.125-.077l.057-.046c.034-.034.072-.068.107-.1l.054-.052a.877.877,0,0,1,.117-.093,1.234,1.234,0,0,1,.129-.074c.041-.027.084-.052.123-.08.019-.016.038-.029.058-.045a1.087,1.087,0,0,1,.118-.088c.041-.026.083-.049.127-.072l.122-.076s.058-.042.057-.044a1.069,1.069,0,0,1,.117-.086.927.927,0,0,1,.13-.068c.066-.033.133-.066.2-.1.044-.025.09-.046.135-.069s.09-.048.137-.07.09-.045.137-.066.089-.045.134-.066.088-.042.133-.062.085-.042.127-.064a.885.885,0,0,1,.126-.065c.064-.031.127-.061.188-.1a.951.951,0,0,1,.125-.069c.064-.034.129-.066.194-.1l.131-.069c.043-.028.085-.054.127-.084.02-.017.041-.032.062-.048a.618.618,0,0,1,.139-.084.434.434,0,0,1,.164-.019A.232.232,0,0,1,281.156,304.9Z" transform="translate(-262.997 -295.277)" fill="#d3bcbc"/>
    <path id="Path_419" data-name="Path 419" d="M251.77,298.42l-.17-.016a12.875,12.875,0,0,1,2.893-4.191.131.131,0,0,1,.179-.013c.064.39-.233.616-.438.853a18.47,18.47,0,0,0-1.74,2.438,1.465,1.465,0,0,1-.1.147c-.017.023-.037.045-.053.068-.032.045-.066.089-.1.133s-.057.089-.086.133c-.04.065-.08.13-.115.2a.873.873,0,0,1-.076.133.457.457,0,0,1-.115.1A.722.722,0,0,1,251.77,298.42Z" transform="translate(-243.02 -286.049)" fill="#bfacad"/>
    <path id="Path_420" data-name="Path 420" d="M273.606,281.134l-.186-.017a9.566,9.566,0,0,1,2.094-1.668c.179-.113.362-.22.544-.33l.394-.048.069.076a.26.26,0,0,1-.061.187,28.223,28.223,0,0,0-2.336,1.625A.556.556,0,0,1,273.606,281.134Z" transform="translate(-261.947 -272.951)" fill="#bdabac"/>
    <path id="Path_421" data-name="Path 421" d="M251.954,275.858a19.8,19.8,0,0,1,2.541-1.76,3.08,3.08,0,0,1,.33-.129.9.9,0,0,1,.176-.149c.044-.028.09-.052.136-.076.07-.039.145-.068.218-.1l.151-.081q.127-.054.255-.111a.933.933,0,0,1,.2-.064,6.9,6.9,0,0,1,1.024-.326,2.074,2.074,0,0,1,2.424,1.054,2.376,2.376,0,0,1-.334,2.546,3.5,3.5,0,0,1-.782.625l-.137.009c-.045.051-.1.094-.146.143h0a1.066,1.066,0,0,1-.153.137c-.045,0-.09,0-.135.008-.077.089-.213.056-.29.145h0c-.078.084-.212.057-.288.146h0c-.049.048-.1.093-.15.141l-.139.005c-.045.052-.1.09-.148.141-.046,0-.094,0-.141.005-.046.05-.1.09-.15.139-.046,0-.093,0-.139.005-.045.05-.1.09-.149.14l-.141.005c-.048.048-.1.092-.144.142s-.1.094-.151.139l-.138.005c-.046.05-.1.093-.146.142h0a1.361,1.361,0,0,1-.151.138l-.137.009c-.046.05-.1.093-.146.143h0c-.048.048-.1.1-.146.142h0a1.037,1.037,0,0,1-.15.138l-.137.008c-.046.05-.1.094-.146.143h0c-.048.048-.1.1-.146.143h0c-.046.05-.1.1-.148.142l-.139.007c-.045.05-.1.087-.145.142a6.126,6.126,0,0,0-1.883,2.165h0c-.052.045-.09.1-.141.147q-.006.068-.008.135a1.265,1.265,0,0,1-.141.153h0c-.046.05-.1.1-.143.146h0c-.049.048-.1.1-.144.145h0c-.049.048-.1.1-.146.144h0c-.049.048-.1.1-.146.143h0c-.077.088-.211.061-.289.146h0a1.868,1.868,0,0,1-1.446-.143h0a1.838,1.838,0,0,1-.58-.577h0a2.4,2.4,0,0,1-.285-.583,2.529,2.529,0,0,1,.285-1.3,2.3,2.3,0,0,0,.294-.715v0c.049-.046.089-.1.137-.15.005-.045.009-.09.013-.135a1.235,1.235,0,0,1,.134-.153c.005-.045.011-.089.013-.134a.982.982,0,0,1,.133-.154h0c.049-.046.094-.1.139-.147A10.306,10.306,0,0,1,251,277.016C251.288,276.608,251.633,276.241,251.954,275.858Z" transform="translate(-240.295 -267.675)" fill="#e4d1d1"/>
    <path id="Path_422" data-name="Path 422" d="M255.03,350.13a5.005,5.005,0,0,0,1.446.143A1.192,1.192,0,0,1,255.03,350.13Z" transform="translate(-245.995 -334.586)" fill="#d3bcbc"/>
    <path id="Path_423" data-name="Path 423" d="M250.67,345.78a1.5,1.5,0,0,1,.58.577A.6.6,0,0,1,250.67,345.78Z" transform="translate(-242.214 -330.813)" fill="#d3bcbc"/>
    <path id="Path_424" data-name="Path 424" d="M248.484,341.38a.837.837,0,0,1,.285.584A.5.5,0,0,1,248.484,341.38Z" transform="translate(-240.314 -326.997)" fill="#d3bcbc"/>
    <path id="Path_425" data-name="Path 425" d="M265.92,350.266a.31.31,0,0,1,.289-.146A.288.288,0,0,1,265.92,350.266Z" transform="translate(-255.441 -334.577)" fill="#d3bcbc"/>
    <path id="Path_426" data-name="Path 426" d="M273.59,342.637l.141-.147Z" transform="translate(-262.094 -327.959)" fill="#d3bcbc"/>
    <path id="Path_427" data-name="Path 427" d="M272.46,344.763c.047-.051.094-.1.141-.153C272.554,344.662,272.508,344.712,272.46,344.763Z" transform="translate(-261.114 -329.798)" fill="#d3bcbc"/>
    <path id="Path_428" data-name="Path 428" d="M271.38,345.916l.143-.146Z" transform="translate(-260.177 -330.804)" fill="#d3bcbc"/>
    <path id="Path_429" data-name="Path 429" d="M270.3,347.015l.145-.145C270.4,346.918,270.348,346.966,270.3,347.015Z" transform="translate(-259.24 -331.759)" fill="#d3bcbc"/>
    <path id="Path_430" data-name="Path 430" d="M269.2,348.1l.146-.145Z" transform="translate(-258.286 -332.704)" fill="#d3bcbc"/>
    <path id="Path_431" data-name="Path 431" d="M268.1,349.183c.049-.048.1-.1.146-.143C268.2,349.088,268.149,349.135,268.1,349.183Z" transform="translate(-257.332 -333.641)" fill="#d3bcbc"/>
    <path id="Path_432" data-name="Path 432" d="M305.326,276.081a5.333,5.333,0,0,1,.432-.48,2.314,2.314,0,0,0,.725-2.09,2.1,2.1,0,0,0-2.381-1.573,8.236,8.236,0,0,1-1.373.394.1.1,0,0,1-.042-.1c.011-.036.023-.053.036-.053a5.03,5.03,0,0,1,1.692-.548,2.062,2.062,0,0,1,2.07,1,2.4,2.4,0,0,1-1,3.466Z" transform="translate(-287.33 -266.472)" fill="#d4c0c0"/>
    <path id="Path_433" data-name="Path 433" d="M296.28,278.142a.426.426,0,0,1,.292-.142l.072.038a.107.107,0,0,1-.046.134h0a.2.2,0,0,1-.274.015Z" transform="translate(-281.775 -272.023)" fill="#bdabac"/>
    <path id="Path_434" data-name="Path 434" d="M298.48,277.046a.455.455,0,0,1,.288-.146l.073.038a.11.11,0,0,1-.045.137h0a.2.2,0,0,1-.275.015Z" transform="translate(-283.683 -271.068)" fill="#bdabac"/>
    <path id="Path_435" data-name="Path 435" d="M300.959,275.94c0,.052,0,.1.007.155h0a.2.2,0,0,1-.274.015l-.041-.044A.388.388,0,0,1,300.959,275.94Z" transform="translate(-285.565 -270.236)" fill="#bdabac"/>
    <path id="Path_436" data-name="Path 436" d="M316.11,307.775a.308.308,0,0,1,.29-.145A.3.3,0,0,1,316.11,307.775Z" transform="translate(-298.975 -297.723)" fill="#d4c0c0"/>
    <path id="Path_437" data-name="Path 437" d="M313.94,308.866a.3.3,0,0,1,.288-.146A.3.3,0,0,1,313.94,308.866Z" transform="translate(-297.092 -298.668)" fill="#d4c0c0"/>
    <path id="Path_438" data-name="Path 438" d="M295.32,320.838c.05-.046.1-.091.15-.138C295.421,320.746,295.37,320.791,295.32,320.838Z" transform="translate(-280.942 -309.059)" fill="#d4c0c0"/>
    <path id="Path_439" data-name="Path 439" d="M293.2,321.953l.146-.143Z" transform="translate(-279.103 -310.022)" fill="#d4c0c0"/>
    <path id="Path_440" data-name="Path 440" d="M292.11,323.033l.146-.143Z" transform="translate(-278.158 -310.959)" fill="#d4c0c0"/>
    <path id="Path_441" data-name="Path 441" d="M290.98,324.112l.148-.142Z" transform="translate(-277.178 -311.896)" fill="#d4c0c0"/>
    <path id="Path_442" data-name="Path 442" d="M288.84,325.232l.145-.142Z" transform="translate(-275.321 -312.867)" fill="#d4c0c0"/>
    <path id="Path_443" data-name="Path 443" d="M296.47,319.762c.049-.048.1-.1.146-.142C296.567,319.666,296.518,319.714,296.47,319.762Z" transform="translate(-281.939 -308.123)" fill="#d4c0c0"/>
    <path id="Path_444" data-name="Path 444" d="M297.56,318.683l.146-.143Z" transform="translate(-282.885 -307.186)" fill="#d4c0c0"/>
    <path id="Path_445" data-name="Path 445" d="M299.69,317.568l.151-.138C299.791,317.476,299.74,317.523,299.69,317.568Z" transform="translate(-284.732 -306.223)" fill="#d4c0c0"/>
    <path id="Path_446" data-name="Path 446" d="M300.83,316.5l.146-.142C300.928,316.408,300.879,316.454,300.83,316.5Z" transform="translate(-285.721 -305.295)" fill="#d4c0c0"/>
    <path id="Path_447" data-name="Path 447" d="M302.98,315.409l.151-.139Z" transform="translate(-287.586 -304.35)" fill="#d4c0c0"/>
    <path id="Path_448" data-name="Path 448" d="M306.27,313.241l.149-.141C306.369,313.146,306.319,313.193,306.27,313.241Z" transform="translate(-290.44 -302.467)" fill="#d4c0c0"/>
    <path id="Path_449" data-name="Path 449" d="M308.44,312.149l.15-.139Z" transform="translate(-292.322 -301.522)" fill="#d4c0c0"/>
    <path id="Path_450" data-name="Path 450" d="M310.63,311.05l.149-.14C310.729,310.958,310.679,311,310.63,311.05Z" transform="translate(-294.221 -300.568)" fill="#d4c0c0"/>
    <path id="Path_451" data-name="Path 451" d="M312.8,309.951c.051-.046.1-.093.15-.141C312.9,309.858,312.85,309.9,312.8,309.951Z" transform="translate(-296.104 -299.614)" fill="#d4c0c0"/>
    <path id="Path_452" data-name="Path 452" d="M319.32,306.667l.153-.137C319.422,306.576,319.37,306.621,319.32,306.667Z" transform="translate(-301.759 -296.769)" fill="#d4c0c0"/>
    <path id="Path_453" data-name="Path 453" d="M320.47,305.6l.146-.143Z" transform="translate(-302.756 -295.841)" fill="#d4c0c0"/>
    <path id="Path_454" data-name="Path 454" d="M304.12,314.332l.145-.142Z" transform="translate(-288.575 -303.413)" fill="#d4c0c0"/>
    <path id="Path_455" data-name="Path 455" d="M254.144,322.89l-.134.153Z" transform="translate(-245.111 -310.959)" fill="#cfbbbb"/>
    <path id="Path_456" data-name="Path 456" d="M253.017,325.06l-.137.15Z" transform="translate(-244.131 -312.841)" fill="#cfbbbb"/>
    <path id="Path_457" data-name="Path 457" d="M255.253,320.71c-.044.052-.088.1-.133.154C255.164,320.813,255.209,320.762,255.253,320.71Z" transform="translate(-246.074 -309.068)" fill="#cfbbbb"/>
    <path id="Path_458" data-name="Path 458" d="M256.249,319.6l-.139.147Q256.182,319.674,256.249,319.6Z" transform="translate(-246.932 -308.105)" fill="#cfbbbb"/>
    <path id="Path_459" data-name="Path 459" d="M296.486,279.315l.275-.015a.29.29,0,0,1-.29.143A.709.709,0,0,1,296.486,279.315Z" transform="translate(-281.939 -273.15)" fill="#d4c0c0"/>
    <path id="Path_460" data-name="Path 460" d="M298.675,278.225l.275-.015a.3.3,0,0,1-.289.143A.6.6,0,0,1,298.675,278.225Z" transform="translate(-283.839 -272.205)" fill="#d4c0c0"/>
    <path id="Path_461" data-name="Path 461" d="M300.863,277.135l.274-.015a.292.292,0,0,1-.288.145A.7.7,0,0,1,300.863,277.135Z" transform="translate(-285.738 -271.259)" fill="#d4c0c0"/>
  </g>
</svg>
