<svg xmlns="http://www.w3.org/2000/svg" width="207.616" height="203.423" viewBox="0 0 207.616 203.423">
  <g id="Group_43" data-name="Group 43" transform="translate(0 0)">
    <path id="Path_9" data-name="Path 9" d="M362.105,429.38c-6.617,1.274-13.3,2.677-20,2.383-14.826-.637-29.216-3.468-42.922-9.542-14.142-6.275-26.68-14.826-36.447-26.728-11.217-13.659-19.662-28.886-23-46.614-1.18-6.322-1.073-12.585-1.262-20.924-.92-13.8,3.3-28.556,10.026-42.557,3.079-6.393,7.431-12.255,11.736-17.964,12.774-16.914,30.054-27.482,49.929-33.958A100.061,100.061,0,0,1,349.5,228.7c21.526,1.769,41.247,8.846,58.138,22.47,5.862,4.742,10.84,10.6,15.9,16.313,10.863,12.267,16.82,26.716,20.205,42.333,4.506,20.806,2.088,41.07-6.629,60.5-2.335,5.2-4.671,10.533-7.95,15.145C412.588,408.8,390.472,423.907,362.105,429.38Z" transform="translate(-238.344 -228.379)" fill="#fdfdfd"/>
    <path id="Path_14" data-name="Path 14" d="M437.11,370.31c-2.335,5.2-4.671,10.533-7.95,15.145-16.572,23.342-38.688,38.452-67.055,43.925-6.617,1.274-13.3,2.677-20,2.383-14.826-.637-29.216-3.468-42.922-9.542-14.142-6.275-26.68-14.826-36.447-26.728-11.217-13.659-19.662-28.886-23-46.614-1.18-6.322-1.073-12.585-1.262-20.924-.92-13.8,3.3-28.556,10.026-42.557,3.079-6.393,7.431-12.255,11.736-17.964,12.774-16.914,30.054-27.482,49.929-33.958A100.062,100.062,0,0,1,349.5,228.7c21.526,1.769,41.247,8.846,58.138,22.47,5.862,4.742,10.84,10.6,15.9,16.313,10.863,12.267,16.82,26.716,20.205,42.332C448.244,330.62,445.826,350.884,437.11,370.31Z" transform="translate(-238.344 -228.379)" fill="#e5e6e4"/>
    <path id="Path_19" data-name="Path 19" d="M432.543,292.873c1.887.059,2.241,1.439,2.784,2.9a94.824,94.824,0,0,1,5.155,45.906c-1.628,12.845-6.1,24.38-11.524,35.857-2.418,5.119-6.782,8.551-9.873,13.081-7.938,11.654-19.308,19.367-31.622,25.572a104.422,104.422,0,0,1-33.026,10.226c-22.21,3.067-42.828-1.557-62.2-11.913a91.335,91.335,0,0,1-36.223-34.43c-6.511-11.028-11.571-22.422-13.682-35.114-.979-5.909-.236-11.807-.59-17.693a70.485,70.485,0,0,1,5.072-29.688c11.17-28.98,31.245-49.3,60.426-60.1a97.82,97.82,0,0,1,44.232-5.461A99.275,99.275,0,0,1,390.3,244.3a95.576,95.576,0,0,1,23.13,17.445c1.191,1.262,2.548,2.347,1.227,4.282a2.39,2.39,0,0,1-.861,1.651A304.256,304.256,0,0,1,380.126,283.7c-1.757.719-4.046,1.1-5.591.153-7.808-4.765-16.065-.66-23.932-1.616-13.092-1.592-23.979,4.588-35.633,8.174A35.426,35.426,0,0,0,312.3,292.9a4.383,4.383,0,0,1-1.663.814,7.775,7.775,0,0,1-1.887.012c-7.69-2.158-10.911,4.576-15.109,8.315-4.683,4.164-8.587,8.469-15.593,7.879-5.1-.425-6.582,3.338-6.464,7.478.106,3.869-.472,7.018-3.892,9.353a6.615,6.615,0,0,0-2.453,5c-.448,4.435-1.451,8.764-2.265,13.128a17.423,17.423,0,0,0,1.427,10.557c7.443,15.982,17.716,28.65,36.683,31.623,15.676,2.465,31.127,2.465,46.473-1.8,14.189-3.94,25.985-12,36.694-21.809A97.827,97.827,0,0,0,408.41,331.5c5.85-12.043,10.545-24.84,19.5-35.2C429.17,294.855,429.724,292.307,432.543,292.873Z" transform="translate(-237.752 -227.822)" fill="#f8f5ef"/>
    <path id="Path_20" data-name="Path 20" d="M309.878,284.853c2.347-3.385,6.676-2.7,9.872-4.588,2.029-1.2,5.037-1.864,7.62-2.43,3.609-.79,7.431-.342,10.191-3.668.743-.9,2.56-.649,3.586.106,3.008,2.206,5.968,1.333,9.342.932,3.739-.448,7.525.118,11.264-1.415a5.793,5.793,0,0,1,5.945,1.486c3.715,3.881,7.655,2.76,11.583.956,8.587-3.951,17.091-8.1,25.619-12.184,2.276-1.085,4.529-2.182,6.806-3.279,1.4.024,3.126-.755,3.715,1.415-1.085,3.244-4.2,4.022-6.794,5.166-8.846,3.94-17.61,8.044-26.209,12.5a23.76,23.76,0,0,1-7.254,1.97,9.317,9.317,0,0,1-3.043-.094c.66.566,1.852.047,2.949.165,12.515,1.828,21.609,8.009,25.973,20.264.731,2.064,2.477,3.314,3.975,4.753a5.341,5.341,0,0,1,1.545,3.362c-1.887,14.083-7.655,25.914-20.712,32.767-5.261,2.76-3.8,6.7-3.456,10.734-.637,1.793.979,3.5.212,5.3-13.883,13.317-29.936,22.187-49.256,24.982-12.29,1.769-24.392,1.109-36.553-.8-13.954-2.194-23.8-10.12-31.092-21.762-.779-1.25-1.132-2.819-2.076-3.892-6.617-7.572-6.075-16.23-3.951-25.123a24.21,24.21,0,0,0,.8-4.317c.389-6.983.6-7.254,7.006-10.663-.354-2.395-1.333-4.765-1.1-7.3a8.573,8.573,0,0,1,9.283-7.455c3.751.283,4.836-.236,8.257-2.335,4.553-2.8,7.572-7.207,11.618-10.557,4.305-3.55,5.9-4.364,11.889-2.088a.736.736,0,0,0,1.191-.283l-.047.059C309.571,286.917,309.3,285.679,309.878,284.853Z" transform="translate(-234.771 -222.586)" fill="#020202"/>
    <path id="Path_21" data-name="Path 21" d="M357.151,281.011c13.871-5.626,27.046-12.75,40.587-19.061a78.907,78.907,0,0,1,10.191,14.166c-8.009,9.059-14.178,19.32-19.474,30.136-.377.767-1.262,1.1-2.017,1.474-2.866-1.581-4.954-3.68-5-7.23a15.244,15.244,0,0,0-.46-2.477c-.778-4.27-6.393-3.4-7.7-7.62-1.262-4.057-4.718-5.709-9.153-4.293-1.2.389-1.84-.684-2.571-1.427a7.747,7.747,0,0,0-4.329-2.453q-.69-.354-.5-.778C356.868,281.152,357.01,281.011,357.151,281.011Z" transform="translate(-217.101 -222.353)" fill="#b4ada9"/>
    <path id="Path_22" data-name="Path 22" d="M362.986,352.214c1.132-3.279-1.38-5.485-3-8.752,15.086-7.337,24.864-18.742,27.117-35.657,3.774-10.415,8.658-20.229,15.994-28.627,1.4-1.6,2.7-3.94,5.579-3.208.46,2.607,4,3.55,3.6,6.617-6.1,3.881-9.353,10.073-12.68,16.077-7.018,12.715-12.255,26.409-20.217,38.582-4.093,6.263-8.563,12.515-15.393,16.372a.894.894,0,0,1-1.121-.354C362.632,352.981,362.667,352.627,362.986,352.214Z" transform="translate(-216.507 -219.861)" fill="#b1aaa6"/>
    <path id="Path_23" data-name="Path 23" d="M362.664,351.392c.908.814,1.663.106,2.182-.436,6.11-6.428,12.444-12.668,16.454-20.783,5.143-10.427,10.509-20.736,15.534-31.21,3.149-6.57,8.021-11.878,12.149-17.74,1.262-1.781,2.076-.165,2.972.554-.33.767-.661,1.545-.991,2.312-5.249,6.546-10.144,13.27-13.706,20.972-4.494,9.707-9.365,19.261-14.437,28.674-4.635,8.6-11.347,15.546-18.8,21.8C364.009,354.01,360.081,353.774,362.664,351.392Z" transform="translate(-216.185 -219.038)" fill="#191918"/>
    <path id="Path_24" data-name="Path 24" d="M404.743,276.309c-6.924,5.437-11.205,12.786-15.062,20.488-1.946,3.892-3.727,7.914-6.511,11.335-.106-1-.224-2.005-1.25-2.571,3.338-6.475,6.558-13.01,10.038-19.391,2.736-5.025,6.829-8.905,11.453-12.22A3.318,3.318,0,0,1,404.743,276.309Z" transform="translate(-212.571 -220.199)" fill="#232120"/>
    <path id="Path_94" data-name="Path 94" d="M302.217,281.17a2.273,2.273,0,0,1-1.3,2.7C301.05,282.821,300.955,281.665,302.217,281.17Z" transform="translate(-227.111 -218.902)" fill="#382c2c"/>
    <path id="Path_95" data-name="Path 95" d="M301.151,283.4c-.177,1.05-.566,1.18-1.191.283A4.51,4.51,0,0,1,301.151,283.4Z" transform="translate(-227.283 -218.502)" fill="#382c2c"/>
    <path id="Path_96" data-name="Path 96" d="M281.748,360.2a17.542,17.542,0,0,0,1.12-1.533c3.432-5.968,3.421-5.956,8.563-1.227a5.312,5.312,0,0,0,2.076,1.368c5.438,1.274,10.852,2.913,16.36,3.5,5.107.543,7.7-1.533,9.318-6.688.778-2.5,1.911-3.09,4.305-3.338,2.677-.283,5.272-1.392,7.9-2.123,1.392-.389,2.713-1.014,3.987.554,2.512,3.09,5.556,1.415,7.077-.531,4.765-6.1,12.562-6.4,18.813-11.347.212,5.284,1.168,9.5,7.348,10.922-11.524,8.363-22.705,14.5-35.928,16.69a126.6,126.6,0,0,1-40.363-.165c-3.716-.578-7.443-1.522-10.592-3.857A1.374,1.374,0,0,1,281.748,360.2Z" transform="translate(-230.656 -208.55)" fill="#b4ada9"/>
    <path id="Path_97" data-name="Path 97" d="M352.818,323.952c2.583,7.348,2.159,8.516-4.576,11.783-2.076,1-4.246,1.793-6.393,2.654-6.181,2.453-6.181,2.442-9.082-3.751-3.409-7.278-1.451-11.948,6.1-14.508,1.038,1.215,1.085,3.881,3.975,2.194,2.206-1.3,4.694-1.8,6.511.932a2.886,2.886,0,0,1-1.25,1.439,4.546,4.546,0,0,1,.578-.141s.165-.519.189-.554a5.438,5.438,0,0,1,1.121-.837A3.25,3.25,0,0,1,352.818,323.952Z" transform="translate(-221.684 -211.909)" fill="#362828"/>
    <path id="Path_98" data-name="Path 98" d="M355.574,311.068c1.84-3.043,4.577-4.494,8-3.479,4.093,1.2,6.759,4.2,8.2,8.186a3.23,3.23,0,0,1-1.014,3.456,99.9,99.9,0,0,1-7.219,7.1c-5.426,4.447-10.769,2.206-11.748-4.812-.2-1.451-.283-2.972.908-4.175a1.084,1.084,0,0,1,1.274-.472,2.891,2.891,0,0,1,.932,1.073C358.4,315.079,358.464,314.43,355.574,311.068Z" transform="translate(-218.001 -214.218)" fill="#322525"/>
    <path id="Path_99" data-name="Path 99" d="M327.6,328.687c2.7.6,4.388,2.571,5.732,4.718,2.642,4.223,2.913,8.7-3.751,9.637-4.152.578-8.162,2.052-12.279,2.984a5.854,5.854,0,0,1-7.077-6.876c1.061-6.157,5.815-10.238,13.34-11.429a.747.747,0,0,1,.566.861c-.024.33-.059.672-.071.991a1.127,1.127,0,0,0,.543.708c.295.106.578.224.885.318a2.714,2.714,0,0,0,1.062.13c.012-.047.4-.413.377-.448a2.837,2.837,0,0,1,.118-1.262C327.233,328.9,327.41,328.793,327.6,328.687Z" transform="translate(-225.458 -210.546)" fill="#372928"/>
    <path id="Path_100" data-name="Path 100" d="M388.3,312.12c-1.392,5.378-3.916,10.238-8.009,13.187-6.464,4.659-12.326,10.321-19.71,13.6-4.588,2.029-9.283,3.7-13.777,6.063-4.081,2.159-8.587,3.432-11.8,7.065-.92,1.038-2.253,1.474-3.338.354-2.335-2.406-4.647-.861-7.053-.283-3.515.837-6.747,3.409-10.9,1.569C342.347,346.573,368.945,335.946,388.3,312.12Z" transform="translate(-224.813 -213.347)" fill="#452e2e"/>
    <path id="Path_101" data-name="Path 101" d="M324.162,311.524c1.663.059,3.456-.354,4.907.731,2.784,2.064,5.32,4.624,5.084,8.257-.248,3.81-3.232,5.508-6.688,6.593-6.594,2.064-11.1.13-13.01-5.957-.849-2.713-1.109-5.461,2.064-7.112,1.156.767,1.451,2.111,2.17,3.161.224.307.578.731.849.625.932-.354.295-1.215.46-1.864C320.895,314.013,324.2,314.332,324.162,311.524Z" transform="translate(-224.781 -213.459)" fill="#352727"/>
    <path id="Path_102" data-name="Path 102" d="M377.228,307.989c-.271.307-.755.6-.767.92-.047,1.71,1.392,3.763-1.144,4.883-2.571,1.132-4.341-.212-6.122-1.9-5.213-4.907-5.555-9.023-.967-13.376,3.137-2.984,5.107-2.89,9.106.436C377.11,301.95,379.8,305,377.228,307.989Z" transform="translate(-215.604 -216.175)" fill="#342626"/>
    <path id="Path_103" data-name="Path 103" d="M341.1,302.738c1.887-4.836,5.438-6.593,9.507-4.683,3.527,1.651,5.756,7.631,4.022,10.792-.094.177-.177.425-.33.507a12.492,12.492,0,0,1-9.731.425c-2.677-.9-4.895-3.161-3.963-6.711.035-.153.33-.236.507-.354C341.11,302.691,341.1,302.738,341.1,302.738Z" transform="translate(-220.026 -216.007)" fill="#372929"/>
    <path id="Path_104" data-name="Path 104" d="M295.766,328.445c2.288,2.76,1.121,4.565-1.687,5.815a49.587,49.587,0,0,1-4.694,1.734c-1.7.554-6.817-2.913-7.549-5.048-1.062-3.138.731-6.77,3.987-7.36,3.1-.554,6.31-.649,8.493,2.418C293.4,327.655,293.844,328.481,295.766,328.445Z" transform="translate(-230.591 -211.343)" fill="#342727"/>
    <path id="Path_105" data-name="Path 105" d="M297.6,345.516c-2.5.035-4.954,0-7.384.967-1.5.59-3.5.9-4.683-.59-1.356-1.722-.33-3.586.554-5.261,2.972-5.65,9.849-7.82,16.607-5.261C302.067,339.3,302.456,343.723,297.6,345.516Z" transform="translate(-229.991 -209.364)" fill="#2b2121"/>
    <path id="Path_106" data-name="Path 106" d="M294,285.514c3.668-2.041,5.874.5,7.985,2.736a3.857,3.857,0,0,1,.118,5.2c-1.934,2.536-4.258,4.694-7.667,4.848-1.592.071-3.244-1.25-3.291-2.465-.118-2.878-2.335-5.992.472-8.7a1.334,1.334,0,0,0,1.911.413A2.063,2.063,0,0,0,294,285.514Z" transform="translate(-229.035 -218.257)" fill="#322525"/>
    <path id="Path_107" data-name="Path 107" d="M312.631,303.284c-1.132.566-2.229,1.2-3.409,1.663-4.022,1.581-6.122.731-8.162-3.244-1.616-3.149-.991-5.19,2.265-7.443,2.677-1.852,8.056.413,9.047,4.01.436,1.581.177,3.35.236,5.036Z" transform="translate(-227.239 -216.671)" fill="#352828"/>
    <path id="Path_108" data-name="Path 108" d="M313.964,330.4a29.929,29.929,0,0,1-1.463,2.8c-3.892,5.8-7.938,5.709-12.562-.26,1.25-1.262,2.477-2.536,2.111-4.553a7.494,7.494,0,0,1,1.628-2.524c.342-.79-.083-1.356-.578-1.9-.731-1.156-1.262-2.335-.578-3.7.837-.012,1.663-.024,2.5-.047a3.238,3.238,0,0,1,3.857,0c.837.012,1.663.024,2.5.047C311.169,323.911,309.234,328,313.964,330.4Z" transform="translate(-227.287 -212.009)" fill="#352727"/>
    <path id="Path_109" data-name="Path 109" d="M312.662,352.356c-.083,3.6-3.338,6.251-7.289,5.945-2.524-.2-5.225-3-5.272-5.449-.059-3.621,2.913-5.956,7.348-5.78C311.636,347.225,312.756,348.369,312.662,352.356Z" transform="translate(-227.258 -207.075)" fill="#352727"/>
    <path id="Path_110" data-name="Path 110" d="M281.651,323.3a4.37,4.37,0,0,1-2.984-.755c-.637-.543-1.38-1.875-.684-1.97,4.447-.566,1.321-3.55,1.6-5.2.425-2.512,1.168-4.459,3.432-5.579,1.852-.92,3.161.307,4.435,1.474,1.816,1.663,2.972,3.491,2.206,6.11A8.174,8.174,0,0,1,281.651,323.3Z" transform="translate(-231.278 -213.821)" fill="#352727"/>
    <path id="Path_111" data-name="Path 111" d="M350.166,289.4c-.083,2.925-4.034,7.23-6.759,7.36-2.159.106-4.529-2.595-4.517-5.166.012-3.9,3.031-8.021,5.827-7.938A5.733,5.733,0,0,1,350.166,289.4Z" transform="translate(-220.295 -218.456)" fill="#362929"/>
    <path id="Path_112" data-name="Path 112" d="M323.159,293.723c-1.1,3.81-3.421,5.768-6.263,5.3-2.748-.46-5.992-4.022-6.015-6.593-.024-3.1,4.223-5.638,7.631-4.246,1.852.755,3.951,1.6,4.612,3.928a.934.934,0,0,0-.377,1.132C322.852,293.558,323.005,293.723,323.159,293.723Z" transform="translate(-225.323 -217.714)" fill="#322525"/>
    <path id="Path_113" data-name="Path 113" d="M339.011,316.258c.2,2.158-.436,3.515-2.843,4.081-2.949.7-2.206-1.875-2.949-3.019a45.276,45.276,0,0,1-2.548-5.072c-.861-1.781-.271-3.232,1.05-4.541s2.76-1.875,4.553-1.014c.944.46,1.911.885,2.843,1.38,4.223,2.241,4.246,2.453.967,6.841-.33-.389-.7-.484-1.038-.189A1.033,1.033,0,0,0,339.011,316.258Z" transform="translate(-221.843 -214.395)" fill="#302525"/>
    <path id="Path_114" data-name="Path 114" d="M272.01,312.691c3.6,1.864,4.517,3.81,3.774,7.915a5.25,5.25,0,0,1-5.072,4.742,36.9,36.9,0,0,1-3.786,0,.755.755,0,0,1-.283-.814c.094-.271.189-.413.283-.413-.448-1.227-.908-2.442-1.356-3.668a5.038,5.038,0,0,0-1.179-1.415v-1.274c.826-.7.531-1.887,1.2-2.654l1.144-1.286a.883.883,0,0,1,1.38.012,1.641,1.641,0,0,1,.259,1.144c.236-.743-.4-1.345-.354-2.064C269.3,311.7,270.63,311.83,272.01,312.691Z" transform="translate(-233.668 -213.364)" fill="#382a2a"/>
    <path id="Path_115" data-name="Path 115" d="M262.923,335.7c4.482,3.432,8.068,7.844,13.564,10a56.911,56.911,0,0,0,16.489,4.022c-2.524,2.63-5.438,1.946-7.372,3.409-.731.554-1.557.023-2.076-.79a3.8,3.8,0,0,0-2.489-1.816c-7.124-1.309-12.09-6.11-17.209-10.663C262.746,338.9,261.708,337.705,262.923,335.7Z" transform="translate(-234.03 -209.114)" fill="#462f2f"/>
    <path id="Path_116" data-name="Path 116" d="M295.66,345.354a3.666,3.666,0,0,1,1.993-2.961c1.852-1.25,2.182-2.866.92-4.836-2.17-3.4,1.1-1.887,2.182-2.347a9.978,9.978,0,0,1,8.363,6.7c.767,2.017.118,3.35-2.135,3.409C303.2,345.413,299.423,345.354,295.66,345.354Z" transform="translate(-228.055 -209.202)" fill="#352727"/>
    <path id="Path_117" data-name="Path 117" d="M315.733,303.267c.519-2.866,1.887-4.2,4.789-2.548,2.453,1.392,6.393,1.982,6.086,5.438-.307,3.5-4.435,2.548-6.77,3.208-6.11,1.71-8.587-.519-9.094-7.23l-.024.024c1.934-1.451,3.149-.814,3.869,1.309.566.719.436,1.9,1.51,2.217a.7.7,0,0,0,.507-.861c-.059-.319-.142-.472-.283-.484A1.907,1.907,0,0,1,315.733,303.267Z" transform="translate(-225.352 -215.522)" fill="#322525"/>
    <path id="Path_118" data-name="Path 118" d="M286.08,337.815c-.672,2.041-1.333,4.459-2.276,6.747a1.873,1.873,0,0,1-2.713.708c-2.335-1.238-5.921-1.439-6.487-4.317-.637-3.255,2.3-5.013,4.883-6.523C282.883,332.424,285.868,333.769,286.08,337.815Z" transform="translate(-231.851 -209.507)" fill="#342626"/>
    <path id="Path_119" data-name="Path 119" d="M303.329,318.646c-.425-2.347-.4-4.352-.908-6.346-.9-3.574,1.286-5.544,4.942-5.048,2.654.354,4.883,3.326,4.812,6.4s-1.757,4.753-5.072,4.966C305.888,318.716,304.65,318.646,303.329,318.646Z" transform="translate(-226.878 -214.234)" fill="#352828"/>
    <path id="Path_120" data-name="Path 120" d="M355.239,300.607c-2.005-1.675-2.005-3.951-.472-5.473,1.722-1.7,4.411-.979,6.605-.566a4.481,4.481,0,0,1,3.715,3.81c.319,2.206-1.2,3.668-2.961,4.305-2.63.944-5.414,1.239-6.9-2.088Z" transform="translate(-217.642 -216.589)" fill="#312525"/>
    <path id="Path_121" data-name="Path 121" d="M327.069,294.32a27.891,27.891,0,0,1,3.715.012c2.76.366,6.216,3.126,6.145,5.249-.106,3.02-1.168,5.673-4.777,6.157-2.89-1.451-6.475-2.276-5.945-6.723.224-.837,2.147-1.5.271-2.583A1.911,1.911,0,0,1,327.069,294.32Z" transform="translate(-222.581 -216.554)" fill="#372929"/>
    <path id="Path_122" data-name="Path 122" d="M272.5,298.772c2.324-.236,5.107,2.619,5.909,5.839.649,2.6-.519,5.685-2.524,6.4a4.66,4.66,0,0,1-3.668-.13c-2.713-1.368-3.515-9.318-1.191-11.371A5.963,5.963,0,0,1,272.5,298.772Z" transform="translate(-232.722 -215.745)" fill="#362929"/>
    <path id="Path_123" data-name="Path 123" d="M350.525,319.988c-2.642-.767-4.635-1.415-6.676-1.9-1.238-.295-2.63-.318-2.748-1.982-.094-1.392.885-2.288,1.793-3.173.955-.932,2.229-1.109,3.409-1.533,1.592-.566,3.149-1.427,4.73-.083,1.6,1.356,1.132,2.937.507,4.6A40.717,40.717,0,0,0,350.525,319.988Z" transform="translate(-219.899 -213.619)" fill="#332626"/>
    <path id="Path_124" data-name="Path 124" d="M352.943,282.22c2.182-.024,7.4.755,7.82,1.3a4.228,4.228,0,0,1-.059,5.721,4.651,4.651,0,0,1-6.629,1.18,5.463,5.463,0,0,1-2.347-5.461A3.166,3.166,0,0,0,352.943,282.22Z" transform="translate(-218 -218.714)" fill="#342727"/>
    <path id="Path_125" data-name="Path 125" d="M360.669,342.781a18.381,18.381,0,0,1-2.017,2.347c-2.005,1.7-4.305,2.076-6.051-.106-1.71-2.123-.849-4.282.932-6.133,1.828-1.911,3.9-3.6,6.534-1.958,2.253,1.415,2.654,3.586.672,5.768l-.424-.354C360.138,342.262,360.256,342.4,360.669,342.781Z" transform="translate(-218 -209.012)" fill="#342727"/>
    <path id="Path_126" data-name="Path 126" d="M303.037,320.16c.4,1.215.814,2.442,1.215,3.656a1.164,1.164,0,0,1,.566,1.3,6.756,6.756,0,0,1-1.769,2.56,3.905,3.905,0,0,0,.236.554c2.548,4.282,2.548,4.282-2.831,4.612-4.411-4.824-4.482-6.417-.295-10.462A29.545,29.545,0,0,1,303.037,320.16Z" transform="translate(-227.8 -211.904)" fill="#2e2323"/>
    <path id="Path_127" data-name="Path 127" d="M284.545,308.078c-2.548-.047-3.574-1.864-4.388-3.857-1.227-3-.637-6.676,1.274-8.139,1.887-1.451,5.308-.708,8.233,1.793C288.049,301.319,283.755,303.43,284.545,308.078Z" transform="translate(-230.953 -216.358)" fill="#281e1e"/>
    <path id="Path_128" data-name="Path 128" d="M322.8,283.277c-.5.66-.849,1.628-1.51,1.923a4.9,4.9,0,0,1-6.865-2.442c-.908-2.111.295-3.951,3.35-5.1,2.972-1.12,4.9.024,5.839,3.527.059.224-.507.6-.778.908C322.233,282.475,321.762,282.853,322.8,283.277Z" transform="translate(-224.74 -219.606)" fill="#312525"/>
    <path id="Path_129" data-name="Path 129" d="M333.233,277.187a18.389,18.389,0,0,1,2.76-1.309c3.409-.991,5.591-.33,6.145,1.958a4.877,4.877,0,0,1-2.89,6.122c-2.807,1.38-4.765,1.085-5.909-2.017-.071-.189-.13-.4-.189-.59.071-.236.153-.472.224-.708a2.8,2.8,0,0,0,.082-2.772C333.374,277.659,333.3,277.423,333.233,277.187Z" transform="translate(-221.325 -219.933)" fill="#392c2c"/>
    <path id="Path_130" data-name="Path 130" d="M300.174,303.518c1.923,1.356,1.415,3.173.92,5.544-3.208-.779-6.5-3.02-9.755-.507h0c.425-1.781.861-3.562,1.262-5.343.814-3.7,2.347-4.47,5.343-2.512a5.233,5.233,0,0,1,2.253,2.831Z" transform="translate(-228.83 -215.585)" fill="#261e1e"/>
    <path id="Path_131" data-name="Path 131" d="M283.971,307.695a14.231,14.231,0,0,1-1.168-3.432c-.153-2.406-.554-5.19,3.515-4.647,1.4.189,1.64-1.675,2.772-2.135,2.465,2.465,3.444,5.261,1.4,8.386C288.937,308.237,286.613,308.768,283.971,307.695Z" transform="translate(-230.379 -215.975)" fill="#3d2f2e"/>
    <path id="Path_132" data-name="Path 132" d="M312.628,330.292c-1.734-.248-4.187.767-4.8-1.71-.755-3.055-.861-6.24,2.206-8.422a9.037,9.037,0,0,1,4.187,4.447C315.542,327.1,315.247,328.971,312.628,330.292Z" transform="translate(-225.951 -211.904)" fill="#2e2323"/>
    <path id="Path_133" data-name="Path 133" d="M333.462,287.268c-.271,3-5.768,6.074-8.375,4.871a1.889,1.889,0,0,1-.519-.307c-1.085-.979-1.262-3.055-.543-3.255,2.854-.79,2.772-5.544,6.428-4.671A3.894,3.894,0,0,1,333.462,287.268Z" transform="translate(-223.041 -218.43)" fill="#392b2b"/>
    <path id="Path_134" data-name="Path 134" d="M347.787,324.419c-1.51-2.347-3.55-1.911-5.437-.779-1.144.684-.861,3.727-3.468,2.041-2.182-1.415-2.442-3.22-1.073-5.343,5.85-3.09,10.061-.212,13.954,3.81-1.356.071-2.7.153-4.057.224Z" transform="translate(-220.64 -212.105)" fill="#312626"/>
    <path id="Path_135" data-name="Path 135" d="M351.715,276.415c2.5,2.147.967,3.668-.944,4.836-1.734,1.05-3.763,2.347-5.591.2a4.75,4.75,0,0,1-.366-5.815c1.463-2.217,3.6-2.63,5.65-.4a1.051,1.051,0,0,0-.366,1.592A1.078,1.078,0,0,0,351.715,276.415Z" transform="translate(-219.379 -220.234)" fill="#362a29"/>
    <path id="Path_136" data-name="Path 136" d="M369.838,288.142a10.2,10.2,0,0,1,.165,1.887c-.165,1.592.519,3.574-1.569,4.4a2.69,2.69,0,0,1-3.692-1.474c-.873-1.793-2.666-3.456-.731-5.7,1.309-1.51,2.135-4.223,4.659-1.345A2.315,2.315,0,0,0,369.838,288.142Z" transform="translate(-215.941 -218.279)" fill="#3a2c2c"/>
    <path id="Path_137" data-name="Path 137" d="M304.781,288.644c-1.687-.342-3.008-1.486-2.052-3,1.144-1.793,2.8-3.9,5.225-3.645a3.469,3.469,0,0,1,2.772,3.727,5.009,5.009,0,0,1-3.409,4.789c-1.639.543-2.206-.59-2.559-1.9Z" transform="translate(-226.844 -218.757)" fill="#382c2c"/>
    <path id="Path_138" data-name="Path 138" d="M301.436,314.9c.413,3.456-1.769,5.461-4.293,7.018a3.479,3.479,0,0,1-5.013-.873c-1.333-1.982,1.073-2.241,1.828-3.267.366-.5.684-1.038,1.014-1.545C296.73,313.9,298.818,313.118,301.436,314.9Z" transform="translate(-228.76 -213.023)" fill="#352727"/>
    <path id="Path_139" data-name="Path 139" d="M301.271,315.861c-2.324-.366-4.258,1.156-6.464,1.333-1.286-.743-2.713-1.71-1.923-3.314.779-1.569-.649-3.539.755-4.612,2.194-1.675,3.7-.071,4.989,1.639l-.035-.024c.472-.047.944-.083,1.415-.13a11.583,11.583,0,0,0,1.238,1.286C301.247,313.313,301.259,314.587,301.271,315.861Z" transform="translate(-228.594 -213.986)" fill="#372a29"/>
    <path id="Path_140" data-name="Path 140" d="M283.44,358.177c-.012.743-.012,1.474-.024,2.218-4.824-1.581-7.938-5.473-11.606-8.622-.236-1.274.153-1.923,1.557-1.557,5.166.413,5.249.4,6.464,5.508C280.326,357.835,281.588,358.307,283.44,358.177Z" transform="translate(-232.348 -206.527)" fill="#a7a3a0"/>
    <path id="Path_141" data-name="Path 141" d="M327.5,294.31c.059.967.13,1.934.189,2.9-.035.224-.071.46-.118.684-.625,4.069,2.536,5.721,5,7.82a2.08,2.08,0,0,1-2.111,1.1c-3.043-.755-6.629-5.32-6.735-8.457C323.648,295.808,324.922,294.44,327.5,294.31Z" transform="translate(-223.017 -216.544)" fill="#271e1e"/>
    <path id="Path_142" data-name="Path 142" d="M323.763,311.525c.366,1.286,2.878,1.427,1.887,3.409-.779,1.557-2.088.767-3.255.578a1.908,1.908,0,0,0-2.312,1.5c-.342,1.439-1.156,1.746-2.406,1.014-1.7-.861-1.533-2.442-1.557-3.963C318.137,311.6,320.9,311.395,323.763,311.525Z" transform="translate(-224.382 -213.459)" fill="#251c1c"/>
    <path id="Path_143" data-name="Path 143" d="M270.86,328.02c2.843-2.465,5.827-2.949,8.858-.436,1.793,1.474,1.451,3.739-.837,4.022-2.619.33-4.14,2.89-6.806,2.713C271.344,332.278,274.08,329.577,270.86,328.02Z" transform="translate(-232.507 -210.87)" fill="#291f1f"/>
    <path id="Path_144" data-name="Path 144" d="M355.325,310.49c5.32.4,5.331.4,3.362,4.494-.708,1.486-1.451,2.961-2.253,4.4-.472.849-.908,2.147-2.206,1.6-1.415-.59-1.392-1.84-.743-3.1.189-.366.342-.743.519-1.12-.661-1.97,2.441-3.02,1.262-5.119A3.815,3.815,0,0,1,355.325,310.49Z" transform="translate(-217.751 -213.639)" fill="#5f4847"/>
    <path id="Path_145" data-name="Path 145" d="M271.333,327.7c5.485.967,5.485.967,1.215,6.3-1.25.4-2.43,1.793-3.822.307-1.073-1.144-.106-2.288.071-3.421A4.175,4.175,0,0,1,271.333,327.7Z" transform="translate(-232.979 -210.55)" fill="#624d4c"/>
    <path id="Path_146" data-name="Path 146" d="M375.558,307.6a11.189,11.189,0,0,0-.861-4.706c-.566-1.545-.661-3.2.979-4.341a4.885,4.885,0,0,1,2.56,2.253c-1.085,1.5-.224,2.206,1.109,2.725C379.2,308.08,378.742,308.564,375.558,307.6Z" transform="translate(-213.934 -215.783)" fill="#342828"/>
    <path id="Path_147" data-name="Path 147" d="M293.52,350.782c1.415-.613.944-2.725,2.512-3.232,2.194,5.19,1.934,5.9-2.571,7.006A10.97,10.97,0,0,1,293.52,350.782Z" transform="translate(-228.474 -206.987)" fill="#3c302f"/>
    <path id="Path_148" data-name="Path 148" d="M375.6,293.566c-.342,1.309-1.474,1.227-2.477,1.132-1.156-.118-1.97-.767-1.746-2.064.224-1.345,1.286-1.592,2.359-1.3A2.191,2.191,0,0,1,375.6,293.566Z" transform="translate(-214.47 -217.097)" fill="#2e2323"/>
    <path id="Path_149" data-name="Path 149" d="M349.1,296.1a7.676,7.676,0,0,1,.484-2.253c.743-1.1.484-3.09,2.536-3.008.283.012.684.507.8.861.637,1.828-.944,2.571-1.9,3.586C350.775,295.558,350.291,295.617,349.1,296.1Z" transform="translate(-218.462 -217.167)" fill="#2c2121"/>
    <path id="Path_150" data-name="Path 150" d="M294.206,328.074c-.212,1.156-.071,3.008-2.005,1.9a4.742,4.742,0,0,1-1.934-3.114c-.33-2.253,1.38-1.345,2.489-1.215C293.239,326.446,293.722,327.26,294.206,328.074Z" transform="translate(-229.031 -210.971)" fill="#b39e9e"/>
    <path id="Path_151" data-name="Path 151" d="M335.109,290.16c1.238.094,1.923.708,1.734,1.993-.094.649-.448,1.238-1.215,1.121-1.132-.177-1.923-.8-1.817-2.064A1.163,1.163,0,0,1,335.109,290.16Z" transform="translate(-221.208 -217.289)" fill="#322626"/>
    <path id="Path_152" data-name="Path 152" d="M337.891,302.938c.283-2.265-.366-4.435-1.321-7.348,4.671,2.536,2.972,4.942,1.321,7.348Z" transform="translate(-220.711 -216.314)" fill="#251c1c"/>
    <path id="Path_153" data-name="Path 153" d="M273.886,350.751l-1.557,1.557a7.185,7.185,0,0,1-3.48-4.093c.33-.378.684-.731,1.038-1.085Q271.887,348.935,273.886,350.751Z" transform="translate(-232.868 -207.062)" fill="#837f7c"/>
    <path id="Path_154" data-name="Path 154" d="M337.929,315.492c-2.677-1.073-1.463-2.76-.613-4.317.271-.507.955-.873,1.427-.413a2.5,2.5,0,0,1,.472,1.592,9.2,9.2,0,0,1-.224,1.781C338.649,314.6,338.3,315.044,337.929,315.492Z" transform="translate(-220.761 -213.628)" fill="#c5b3b3"/>
    <path id="Path_155" data-name="Path 155" d="M315.293,302.77c.436.047.873.082,1.321.13,1.026,1.746-.295,2.76-1.227,3.892-2.654-.083-2.748-.4-1.227-3.822A6.154,6.154,0,0,0,315.293,302.77Z" transform="translate(-224.912 -215.025)" fill="#543d3d"/>
    <path id="Path_156" data-name="Path 156" d="M293.894,350.375c.377,1.262,1.25,2.536-.059,3.774a3.806,3.806,0,0,1-2.595-2.5c.012-2.241,1.156-2.111,2.654-1.274Z" transform="translate(-228.848 -206.58)" fill="#c6b3b3"/>
    <path id="Path_157" data-name="Path 157" d="M279.652,324.826c-1.026.837-1.934-.083-2.878-.165-.661-.059-1.262-.484-1.121-1.168.236-1.073,1.1-1,1.875-.6C278.39,323.328,279.51,323.54,279.652,324.826Z" transform="translate(-231.65 -211.462)" fill="#271e1f"/>
    <path id="Path_158" data-name="Path 158" d="M356.75,305.6c1.651-1.958,3.574-1.757,5.579-.778C360.477,305.08,358.613,305.339,356.75,305.6Z" transform="translate(-217.089 -214.787)" fill="#2e2324"/>
    <path id="Path_159" data-name="Path 159" d="M355.224,311.47c1.038.2,2.89-.165,1.4,1.875-.826,1.132-1.781,2.17-2.677,3.255h0a2.984,2.984,0,0,1,.024-3.763C354.4,312.378,354.811,311.93,355.224,311.47Z" transform="translate(-217.709 -213.463)" fill="#cdbcbd"/>
    <path id="Path_160" data-name="Path 160" d="M294.026,350.614a2.363,2.363,0,0,0-2.654,1.274c-1.522-1.392-.861-2.583.613-3.208C293.684,347.96,293.884,349.4,294.026,350.614Z" transform="translate(-228.98 -206.819)" fill="#3c302f"/>
    <path id="Path_161" data-name="Path 161" d="M379.062,303.188c-1.439,1.3-2.453,1.191-3.067-.814-.625-2.029.625-1.97,1.958-1.911C378.319,301.371,378.7,302.279,379.062,303.188Z" transform="translate(-213.664 -215.443)" fill="#bea8a7"/>
    <path id="Path_162" data-name="Path 162" d="M338.019,301.82c-.024.613-.012,1.238-.083,1.852-.106.9-.554,1.734-1.522,1.227s-.484-1.415.106-2.017a8.559,8.559,0,0,1,1.5-1.062Z" transform="translate(-220.839 -215.196)" fill="#251c1c"/>
    <path id="Path_163" data-name="Path 163" d="M271.652,312.791c-1.427.071-3.02-.248-3.692,1.592l.059-.059c-.543-.13-1.1-.248-1.64-.377C267.524,310.691,269.435,311.021,271.652,312.791Z" transform="translate(-233.311 -213.463)" fill="#372a2a"/>
    <path id="Path_164" data-name="Path 164" d="M294.112,288.167c-.6.8-1.274,2.017-2.312,1.5-1.014-.5-.425-1.828-.366-2.807a4.8,4.8,0,0,0,1.014-.507C293.722,286.292,294.277,286.893,294.112,288.167Z" transform="translate(-228.854 -217.973)" fill="#b7a09f"/>
    <path id="Path_165" data-name="Path 165" d="M288.26,292.017c-.094.649-.436,1.132-1.121,1.073a.87.87,0,0,1-.779-1.215,1.912,1.912,0,0,1,1.168-1.085C288.178,290.743,288.284,291.439,288.26,292.017Z" transform="translate(-229.737 -217.176)" fill="#302424"/>
    <path id="Path_166" data-name="Path 166" d="M321.635,293.137c-.979.142-2.324.672-2.265-1,.071-1.958,1.4-.66,2.229-.613C321.611,292.063,321.623,292.594,321.635,293.137Z" transform="translate(-223.799 -217.128)" fill="#c7b4b4"/>
    <path id="Path_167" data-name="Path 167" d="M369.216,287.951c-.826.531-1.757,1.356-2.406-.071a1.405,1.405,0,0,1,1.227-2.159l-.012-.012a2.884,2.884,0,0,1,1.144,1.592A.5.5,0,0,0,369.216,287.951Z" transform="translate(-215.318 -218.088)" fill="#cabfc2"/>
    <path id="Path_168" data-name="Path 168" d="M265.061,329.254c-.177-.26-.566-.554-.578-.861-.024-.672-.425-1.6.708-1.793a2.022,2.022,0,0,1,.413,1.026C265.639,328.216,265.793,328.9,265.061,329.254Z" transform="translate(-233.667 -210.748)" fill="#2e2322"/>
    <path id="Path_169" data-name="Path 169" d="M293.923,288.335a2.03,2.03,0,0,0-1.663-1.816c.46-.366.92-.743,1.38-1.109C296.152,286.141,295.846,287.156,293.923,288.335Z" transform="translate(-228.665 -218.141)" fill="#6d5959"/>
    <path id="Path_170" data-name="Path 170" d="M352.933,282.22c1.144.271,1.816.991,1.356,2.123-.5,1.215-1.592.849-2.56.6A3.6,3.6,0,0,1,352.933,282.22Z" transform="translate(-217.99 -218.714)" fill="#ab9fa2"/>
    <path id="Path_171" data-name="Path 171" d="M327.845,308.074c-.153.354-.236.92-.5,1.014s-.7-.248-1.05-.4c.153-.354.236-.908.5-1.014S327.479,307.921,327.845,308.074Z" transform="translate(-222.555 -214.149)" fill="#2f2323"/>
    <path id="Path_172" data-name="Path 172" d="M348.56,277.406c-1.321-1.687-.79-2.418,1.227-2.406a7.513,7.513,0,0,1,.248.92C350.436,277.3,349.881,277.725,348.56,277.406Z" transform="translate(-218.689 -220.01)" fill="#c6bbbf"/>
    <path id="Path_173" data-name="Path 173" d="M348.45,277.266c.483-.5.979-.991,1.462-1.486a3.24,3.24,0,0,1,1,.271c-.012.814.224,1.864-.613,2.265A1.312,1.312,0,0,1,348.45,277.266Z" transform="translate(-218.579 -219.87)" fill="#ab9696"/>
    <path id="Path_174" data-name="Path 174" d="M326.84,278.232c.389-1.12,1.132-1.663,2.064-.7.849.885.554,1.722-.684,2.076C327.8,279.117,326.982,279.011,326.84,278.232Z" transform="translate(-222.458 -219.645)" fill="#847374"/>
    <path id="Path_175" data-name="Path 175" d="M333.293,281.1a2.711,2.711,0,0,1,.083-4.176l.46.425a2.61,2.61,0,0,1-.189,3.444Z" transform="translate(-221.468 -219.665)" fill="#392c2c"/>
    <path id="Path_176" data-name="Path 176" d="M357.505,278.115a1.731,1.731,0,0,0,.083,1.215,3.386,3.386,0,0,1-2.878-.507C355.488,277.962,356.5,278.057,357.505,278.115Z" transform="translate(-217.455 -219.457)" fill="#5e5d5b"/>
    <path id="Path_177" data-name="Path 177" d="M321.51,328.883v-1.168c1.439-.071,2.878-.165,4.034.967l-.212.248a2.55,2.55,0,0,1-2.371.885A2.68,2.68,0,0,1,321.51,328.883Z" transform="translate(-223.415 -210.554)" fill="#362a2a"/>
    <path id="Path_178" data-name="Path 178" d="M354.111,312.63c-.189,1.25-.59,2.5-.024,3.763-.519,0-1.038,0-1.557.012C352.565,314.93,352.542,313.444,354.111,312.63Z" transform="translate(-217.846 -213.255)" fill="#5f4847"/>
    <path id="Path_179" data-name="Path 179" d="M308.107,320.3H304.25C305.536,318.71,306.821,318.7,308.107,320.3Z" transform="translate(-226.513 -212.093)" fill="#2e2323"/>
    <path id="Path_180" data-name="Path 180" d="M265.593,314.65a2.577,2.577,0,0,1-1.2,2.654A2.956,2.956,0,0,1,265.593,314.65Z" transform="translate(-233.668 -212.893)" fill="#372a2a"/>
    <path id="Path_181" data-name="Path 181" d="M326.877,278.05a1.568,1.568,0,0,1,1.38,1.392C326.995,279.76,326.216,279.619,326.877,278.05Z" transform="translate(-222.495 -219.463)" fill="#dfcfd1"/>
    <path id="Path_182" data-name="Path 182" d="M321.78,282.552c-.708.024-1.875.59-1.958-.318-.142-1.474,1.227-.743,1.993-.861A9.852,9.852,0,0,1,321.78,282.552Z" transform="translate(-223.72 -218.88)" fill="#9e9295"/>
    <path id="Path_183" data-name="Path 183" d="M368.954,287.3c-.378-.531-.755-1.062-1.144-1.592A1.471,1.471,0,0,1,368.954,287.3Z" transform="translate(-215.104 -218.088)" fill="#3a2c2c"/>
    <path id="Path_184" data-name="Path 184" d="M291.534,307.21l-1.274,1.274h0l1.274-1.274Z" transform="translate(-229.024 -214.228)" fill="#261e1e"/>
    <path id="Path_185" data-name="Path 185" d="M266.637,322.29v1.227c-.507-.165-.7-.472-.484-.873C266.224,322.479,266.46,322.408,266.637,322.29Z" transform="translate(-233.367 -211.521)" fill="#372a2a"/>
    <path id="Path_186" data-name="Path 186" d="M290.343,308.28c-.094.177-.236.519-.283.507-.436-.094-.33-.295.283-.507Z" transform="translate(-229.108 -214.036)" fill="#261e1e"/>
    <path id="Path_187" data-name="Path 187" d="M264.4,317.98c.389.472.79.944,1.179,1.415C265.178,318.924,264.789,318.452,264.4,317.98Z" transform="translate(-233.666 -212.295)" fill="#372a2a"/>
    <path id="Path_188" data-name="Path 188" d="M269.907,347.152c-.342.366-.7.72-1.038,1.085C268.585,347.282,268.739,346.727,269.907,347.152Z" transform="translate(-232.886 -207.084)" fill="#b1aba7"/>
    <path id="Path_189" data-name="Path 189" d="M300.118,311.7l-1.238-1.274Z" transform="translate(-227.477 -213.65)" fill="#352727"/>
    <path id="Path_231" data-name="Path 231" d="M346.72,324.522c1.132.377,1.1,1.18.436,1.84-1.109,1.109-2.206.837-3.114-.389C343.854,323.507,345.14,323.743,346.72,324.522Z" transform="translate(-219.373 -211.217)" fill="#cdbdbe"/>
    <path id="Path_232" data-name="Path 232" d="M346.9,324.645c-1.109.082-2.158.283-2.677,1.451-.8-.318-1.5-.861-1.132-1.746.8-1.934,2.371-.578,3.609-.7l-.071-.047A3.554,3.554,0,0,0,346.9,324.645Z" transform="translate(-219.558 -211.34)" fill="#bdb0b3"/>
    <path id="Path_233" data-name="Path 233" d="M320.329,338.045c-.92,2.536-2.76,3.987-5.261,2.76-2.383-1.18-2.5-3.763-1.958-6.157.366-1.6,1.356-2.583,3.22-2.206,1.651.33,3.314.566,4.954.908a2.709,2.709,0,0,1,2.241,2.725c-.035,1.982-1.675,2.1-3.244,2.017a1.627,1.627,0,0,0-.743-.542A2.184,2.184,0,0,1,320.329,338.045Z" transform="translate(-224.97 -209.713)" fill="#362a2a"/>
    <path id="Path_234" data-name="Path 234" d="M322.892,328.927l2.265-.177c.708,1.238,3.055,2.43.094,3.763a15.063,15.063,0,0,0-1.392-1.073V331.3C323.34,330.59,321.736,330.331,322.892,328.927Z" transform="translate(-223.24 -210.362)" fill="#c1b0b1"/>
    <path id="Path_235" data-name="Path 235" d="M323.254,328.936c.33.79.649,1.581.979,2.371-.814-.012-1.616-.024-2.43-.047a8.97,8.97,0,0,1-1.333-1.345c.413-.4.826-.814,1.227-1.215C322.216,328.783,322.735,328.853,323.254,328.936Z" transform="translate(-223.601 -210.37)" fill="#5f4645"/>
    <path id="Path_236" data-name="Path 236" d="M320.47,329.74c.448.448.885.9,1.333,1.345C321.355,330.636,320.918,330.188,320.47,329.74Z" transform="translate(-223.601 -210.184)" fill="#362a2a"/>
    <path id="Path_237" data-name="Path 237" d="M323.65,331.03a1.592,1.592,0,0,1,1.392,1.073C324.582,331.738,324.122,331.384,323.65,331.03Z" transform="translate(-223.031 -209.952)" fill="#362a2a"/>
    <path id="Path_238" data-name="Path 238" d="M317.468,317.164c.8-.342,1.6-.672,2.406-1.014.908.165,2.335-.059,2.029,1.439a2.869,2.869,0,0,1-3.161,2.194C316.89,319.7,317.244,318.356,317.468,317.164Z" transform="translate(-224.173 -212.623)" fill="#ae9d9e"/>
    <path id="Path_239" data-name="Path 239" d="M340.99,302.109c.8-.366,1.2-2.076,2.406-.908a1.543,1.543,0,0,1-.248,2.217c-1.286.779-1.663-.507-2.147-1.356Z" transform="translate(-219.918 -215.379)" fill="#d7c5c5"/>
    <path id="Path_240" data-name="Path 240" d="M291.656,337.317c.979-1.073,2.265-1.38,3.173-.271,1.392,1.71.071,3.067-1.144,4.211-1.085,1.014-2.394,1.982-3.786.684-1.109-1.038-.66-2.217.389-3.173C291.3,338.815,291.656,338.226,291.656,337.317Z" transform="translate(-229.205 -208.997)" fill="#5e4747"/>
    <path id="Path_241" data-name="Path 241" d="M291.5,337.17c1.793.531,1.522,1.7.79,2.854-.271.413-1.085.92-1.4.79-.92-.377-.59-1.4-.743-2.182Z" transform="translate(-229.046 -208.85)" fill="#c3b2b3"/>
    <path id="Path_242" data-name="Path 242" d="M302.6,299.359c-.118-1.1.318-1.557.955-1.628,1.345-.142.991,1.05,1.085,1.71.094.637.472,1.875-.955,1.533C302.839,300.751,302.686,299.808,302.6,299.359Z" transform="translate(-226.812 -215.932)" fill="#d5c3c3"/>
    <path id="Path_243" data-name="Path 243" d="M302.146,326.942c-.035-1.05-.271-2.158.944-2.772.9.142,1.1.967,1.522,1.557C304.376,327.307,303.267,327.131,302.146,326.942Z" transform="translate(-226.898 -211.184)" fill="#b39d9c"/>
    <path id="Path_244" data-name="Path 244" d="M304.472,325.925l-1.522-1.557a10.953,10.953,0,0,0,.26-1.073c.755-.012,1.639-.625,2.217.2C306.241,324.663,304.9,325.147,304.472,325.925Z" transform="translate(-226.746 -211.382)" fill="#d7c6c7"/>
    <path id="Path_245" data-name="Path 245" d="M307.525,350.361c-.165-.79.366-1.062.967-1.168a1.18,1.18,0,0,1,1.38.885c.177.861-.118,1.628-1.25,1.486A1.226,1.226,0,0,1,307.525,350.361Z" transform="translate(-225.931 -206.695)" fill="#c1afaf"/>
    <path id="Path_246" data-name="Path 246" d="M281.623,315.092c-.118-1.38.236-3,1.828-2.135,1.533.826.944,2.524-.307,3.692C282.307,316.46,282.154,315.587,281.623,315.092Z" transform="translate(-230.578 -213.24)" fill="#ab999a"/>
    <path id="Path_247" data-name="Path 247" d="M281.655,314.73c.507.519,1.014,1.038,1.533,1.545-.283.554-.814.955-1.3.578C281.207,316.334,281.408,315.485,281.655,314.73Z" transform="translate(-230.61 -212.878)" fill="#dac5c4"/>
    <path id="Path_248" data-name="Path 248" d="M341.7,288.511c1.286-.189,1.852-.024,2.052.6.236.767-.4,1.05-.967,1.191-.743.189-1.7.448-1.64-.8A1.685,1.685,0,0,1,341.7,288.511Z" transform="translate(-219.89 -217.598)" fill="#dacdcf"/>
    <path id="Path_249" data-name="Path 249" d="M267.908,313.949c2.453,1.557.979,3.574,1.132,6.074-3.338-2.158-2.442-4.128-1.085-6.133Z" transform="translate(-233.247 -213.029)" fill="#d2bab9"/>
    <path id="Path_250" data-name="Path 250" d="M315.07,306.781c-.531-1.592.7-2.63,1.227-3.892,1.757-.2,3.079.047,1.84,2.229A3.178,3.178,0,0,1,315.07,306.781Z" transform="translate(-224.594 -215.014)" fill="#b29e9f"/>
    <path id="Path_251" data-name="Path 251" d="M280.707,337.624c-.566,1.356-1.238,2.689-3.031,2.489-.224-.024-.613-1.132-.46-1.569.413-1.191,1.109-2.324,2.619-2.182C280.353,336.409,281.131,336.692,280.707,337.624Z" transform="translate(-231.372 -208.997)" fill="#b8a5a6"/>
    <path id="Path_252" data-name="Path 252" d="M307.064,310.37a2.137,2.137,0,0,1,1.817,1.486c.189.79.307,1.781-.826,1.793-.873,0-1.38-.885-1.616-1.71A1.327,1.327,0,0,1,307.064,310.37Z" transform="translate(-226.131 -213.661)" fill="#b6a3a3"/>
    <path id="Path_253" data-name="Path 253" d="M355.017,299.969c.035-.885-.613-2.135.861-2.347a1.352,1.352,0,0,1,1.474,1.51c-.224,1.463-1.463.8-2.359.814C355.005,299.945,355.017,299.969,355.017,299.969Z" transform="translate(-217.42 -215.951)" fill="#b2a1a2"/>
    <path id="Path_254" data-name="Path 254" d="M326.99,297.495a.639.639,0,0,0,.118-.684c1.014-.236,2.005-.46,2.784.554.637.814,1.5,1.769.519,2.63-1.038.908-1.793-.153-2.406-.967C327.639,298.544,327.332,298,326.99,297.495Z" transform="translate(-222.431 -216.131)" fill="#aa9899"/>
    <path id="Path_255" data-name="Path 255" d="M273.456,300.89c.6.413.837.484.9.625.837,2.064.92,4.01-1.062,5.5a1.13,1.13,0,0,1-1.062-.189C271.1,304.735,271.663,302.919,273.456,300.89Z" transform="translate(-232.366 -215.363)" fill="#cfbcbd"/>
    <path id="Path_256" data-name="Path 256" d="M359.676,342.271c-1.215.142-2.689.578-2.442-1.5.094-.826.814-1.84,1.581-1.639,1.651.425,1.026,1.9.92,3.055A.5.5,0,0,1,359.676,342.271Z" transform="translate(-217.007 -208.502)" fill="#bdaeaf"/>
    <path id="Path_257" data-name="Path 257" d="M333.45,280.724c.059-1.144.118-2.288.189-3.444,1.168.024,2.029.448,1.923,1.781A1.71,1.71,0,0,1,333.45,280.724Z" transform="translate(-221.271 -219.601)" fill="#d0bcbc"/>
    <path id="Path_258" data-name="Path 258" d="M299.159,302.943c-.189.9-.7,1.427-1.651,1.227-.224-.047-.578-.661-.5-.778.543-.861,1.415-.425,2.17-.413C299.182,302.967,299.159,302.943,299.159,302.943Z" transform="translate(-227.814 -215.009)" fill="#aba0a3"/>
    <path id="Path_259" data-name="Path 259" d="M285.4,301.481a1.4,1.4,0,0,1,1.415.944,1.318,1.318,0,0,1-.743,1.97c-.731.307-1.144-.2-1.333-.79A1.773,1.773,0,0,1,285.4,301.481Z" transform="translate(-230.036 -215.258)" fill="#bfaeaf"/>
    <path id="Path_260" data-name="Path 260" d="M326.022,289.491a4.275,4.275,0,0,1-.849.4c-.106.024-.271-.259-.413-.4a4.268,4.268,0,0,1,.849-.4C325.7,289.078,325.88,289.35,326.022,289.491Z" transform="translate(-222.831 -217.481)" fill="#dbcdd0"/>
    <path id="Path_261" data-name="Path 261" d="M304.477,288.1c-.094-.4-.2-.79-.271-1.191-.13-.79-.318-1.663.755-1.911.283-.071.743.224.991.484a1.133,1.133,0,0,1,.012,1.628,8.286,8.286,0,0,1-1.51.979A.041.041,0,0,1,304.477,288.1Z" transform="translate(-226.539 -218.217)" fill="#c1b6b9"/>
    <path id="Path_262" data-name="Path 262" d="M298.246,310.53c.778,2.548-.755,3.02-2.654,2.63-1.522-.318-1.215-1.7-.318-2.265.767-.484,1.982-.248,3.008-.33C298.282,310.553,298.246,310.53,298.246,310.53Z" transform="translate(-228.259 -213.632)" fill="#c1b3b6"/>
    <path id="Path_263" data-name="Path 263" d="M271.138,331.229c-.5-.177-.7-.5-.507-.92.248-.554.637-1.1,1.309-.719a1.138,1.138,0,0,1,.189,1.1C272,330.957,271.48,331.052,271.138,331.229Z" transform="translate(-232.561 -210.233)" fill="#e3cfce"/>
    <path id="Path_315" data-name="Path 315" d="M319.979,337.526c-.4.106-.79.212-1.191.33-1.486.436-3.185,1.746-3.94-.873-.165-.554.059-1.557.7-1.427,1.581.307,4.4-1.781,4.388,2.017C319.932,337.561,319.979,337.526,319.979,337.526Z" transform="translate(-224.62 -209.194)" fill="#dbccce"/>
  </g>
</svg>
